<svg width="660" height="507" viewBox="0 0 660 507" fill="none" xmlns="http://www.w3.org/2000/svg">
<path d="M352.031 1.84126C405.611 1.68596 471.658 16.8753 514.842 68.0431C535.106 92.0537 545.255 114.612 549.528 135.462C574.219 156.19 588.496 186.764 588.539 219.002C588.501 238.939 583.009 258.486 572.659 275.525C614.922 291.713 642.831 332.279 642.843 377.536C642.792 407.993 630.03 437.046 607.636 457.689C606.933 458.835 606.504 459.464 606.504 459.464L659.922 506.071H0.82666C0.82666 506.071 27.4135 498.863 50.6277 486.551C36.2957 473.88 28.0746 455.679 28.0432 436.549C28.0738 408.97 45.0283 384.237 70.7408 374.263C49.0437 353.106 36.8066 324.086 36.8018 293.781C36.9069 253.926 58.104 217.105 92.5163 197C85.8247 183.172 82.3272 168.016 82.2828 152.655C82.2828 96.0578 128.164 50.1775 184.76 50.1775C197.475 50.178 210.078 52.5445 221.927 57.1564C236.193 39.7112 253.384 28.0813 269.585 17.8771C282.53 9.72355 314.167 1.95088 352.031 1.84126Z" fill="#F2F4FF"/>
<path d="M66.1181 294.648C95.0335 294.718 120.353 300.73 134.836 317.32C186.329 376.307 176.878 404.907 239.941 409.287C303.004 413.666 344.989 398.561 368.228 452.316C387.604 497.135 451.712 478.101 484.167 506.071H0.82666C0.82666 506.071 27.4135 498.863 50.6277 486.551C36.2957 473.88 28.0746 455.679 28.0432 436.549C28.0738 408.97 45.0283 384.237 70.7408 374.263C49.708 353.703 37.5688 325.721 36.9265 296.316C46.8718 295.236 56.6862 294.625 66.1181 294.648Z" fill="#E7EAFF"/>
<path d="M217.223 490.438L217.454 477.604H205.092H200.71L200.126 494.939L217.223 490.438Z" fill="#F6C6C0"/>
<path d="M297.262 250.667L286.855 263.343L273.901 244.135L282.708 232.087L297.262 250.667Z" fill="white"/>
<path d="M276.098 229.525C274.831 229.496 273.151 229.965 270.979 231.133C268.621 232.124 266.545 232.972 264.738 233.762L263.487 270.339C268.771 271.335 274.502 272.268 276.233 272.005C277.867 271.643 279.464 270.973 280.984 270.068C279.561 262.572 275.806 241.628 275.806 241.628C279.343 239.117 281.591 229.648 276.098 229.525Z" fill="#F6CDC1"/>
<path d="M198.395 229.525C199.663 229.496 201.342 229.965 203.514 231.133C205.872 232.124 207.948 232.972 209.756 233.762L211.006 270.339C205.722 271.335 199.992 272.268 198.261 272.005C196.626 271.643 195.029 270.973 193.509 270.068C194.933 262.572 198.687 241.628 198.687 241.628C195.151 239.117 192.902 229.648 198.395 229.525Z" fill="#F6CDC1"/>
<path d="M238.601 99.4233C229.67 99.4988 221.78 104.84 213.01 109.148C204.274 113.792 195.149 118.004 188.921 127.047C178.086 142.88 156.733 189.442 156.733 189.442C156.733 189.442 150.821 200.609 155.857 212.872C159.798 219.879 177.231 250.667 177.231 250.667L191.786 232.087L179.506 206.084L203.707 168.352C203.8 169.26 203.887 170.16 203.961 171.044L200.535 247.514H270.253L280.995 203.851C284.482 188.913 287.975 177.192 293.624 165.238L310.605 189.239L282.709 232.088L297.263 250.668C297.263 250.668 323.77 218.304 333.424 205.839C340.193 197.1 341.763 187.666 339.285 177.137C337.61 170.019 325.76 145.972 317.549 131C313.187 122.979 309.525 116.843 298.712 112.563L269.457 99.1792L246.636 101.348C243.753 99.9658 241.102 99.4021 238.601 99.4233Z" fill="#7265AD"/>
<path d="M230.335 52.088L225.802 63.5511C209.858 61.8216 217.191 25.6534 230.335 52.088Z" fill="#F69CB3"/>
<path d="M223.382 26.4316C223.382 26.4316 218.139 27.5653 215.306 32.5237C212.473 37.4824 221.823 53.492 221.823 53.492L223.382 26.4316Z" fill="#3D3D3D"/>
<path d="M267.444 23.1732C267.444 23.1732 274.811 22.7485 276.794 31.9572C278.778 41.1662 270.702 58.7342 270.702 58.7342C272.101 71.2651 267.914 81.2833 256.96 69.6433C252.001 63.976 249.026 32.6656 249.026 32.6656C249.026 32.6656 229.182 35.7796 220.969 29.5473C212.756 23.315 203.972 4.6625 215.306 1.09602C226.64 -2.4702 229.238 5.59856 253.654 4.51327C266.404 3.94672 271.694 14.3892 267.444 23.1732Z" fill="#3D3D3D"/>
<path d="M266.876 63.551C266.876 63.551 265.743 79.1355 266.027 85.9359C266.31 92.7366 266.168 96.4203 266.168 96.4203L249.553 111.526L240.879 103.433L245.568 85.9309L266.876 63.551Z" fill="#F6C6C0"/>
<path d="M266.877 63.551L245.569 85.9311L242.021 99.1693C245.474 99.8914 249.253 99.7565 252 97.1287C258.517 90.8951 260.501 75.027 260.501 75.027L266.877 63.551Z" fill="#F69CB3"/>
<path d="M266.877 63.551C282.821 61.8213 275.487 25.6533 262.344 52.088C258.812 46.184 251.421 37.535 255.431 26.1409C243.557 30.0087 233.707 33.0039 220.969 29.547C215.896 85.0262 243.736 118.756 266.877 63.551Z" fill="#F6C6C0"/>
<path d="M266.169 56.0423C266.098 55.7589 266.948 51.6504 269.285 48.8169C271.623 45.9831 273.606 49.3834 273.606 49.3834C273.606 49.3834 271.481 48.7461 270.277 50.7294C269.073 52.7127 273.111 55.1921 269.356 57.6006C265.602 60.0092 266.169 56.0423 266.169 56.0423Z" fill="#F69CB3"/>
<path d="M249.553 111.526L266.159 94.9201L266.091 89.2358C271.9 93.3245 273.728 96.9145 272.817 100.339L261.204 124.958L249.553 111.526Z" fill="white"/>
<path d="M240.879 103.433L243.738 92.7751C237.673 94.2215 229.141 99.1057 230.536 104.717C230.984 106.376 237.981 124.424 237.981 124.424L249.553 111.526L240.879 103.433Z" fill="white"/>
<path d="M200.63 252.664L200.816 393.855L200.71 477.605H217.453L229.899 392.545L242.579 322.137L279.29 433.811L291.641 477.605H308.619L302.268 433.811L271.451 257.624L200.63 252.664Z" fill="#17B794"/>
<path d="M223.946 433.192L200.807 433.154L200.71 477.604H217.454L223.946 433.192Z" fill="#008E5C"/>
<path d="M302.268 433.811H279.29L291.641 477.605H308.619L302.268 433.811Z" fill="#008E5C"/>
<path d="M242.58 322.137L233.576 288.536H226.595L236.442 355.478L242.58 322.137Z" fill="#008E5C"/>
<path d="M200.534 247.515L200.539 252.657L271.451 257.624L270.252 247.515H200.534V247.515Z" fill="white"/>
<path d="M200.505 483.195L217.351 483.033L217.36 490.082C211.105 490.277 200.503 493.395 200.465 493.201C200.468 489.905 200.248 487.526 200.505 483.195Z" fill="white"/>
<path d="M170.37 506.071H219.143L217.359 490.082L211.55 488.493C207.596 484.676 200.357 483.739 195.417 489.365C195.417 489.365 186.376 495.871 181.966 495.981C173.03 495.981 169.69 497.691 170.37 506.071Z" fill="#3D3D3D"/>
<path d="M293.612 490.082L291.641 477.605H305.058H308.62L310.9 495.186L293.612 490.082Z" fill="#F6C6C0"/>
<path d="M309.39 483.139L292.544 483.348L293.612 490.082C293.612 490.082 310.815 488.96 310.853 488.767C310.892 488.574 309.39 483.139 309.39 483.139Z" fill="white"/>
<path d="M322.191 506.071H292.913L293.611 490.082L299.421 488.493C303.375 484.675 309.39 483.139 312.707 488.763C317.008 499.902 322.886 495.283 322.191 506.071Z" fill="#3D3D3D"/>
<path d="M274.825 242.253C275.391 241.812 275.805 241.628 275.805 241.628L281.418 240.706C283.637 240.853 290.333 248.401 291.819 251.879C295.887 261.348 287.021 269.612 276.232 272.005C266.498 272.605 261.257 270.927 259.947 263.054C259.332 255.866 266.973 244.249 274.825 242.253Z" fill="#F6CDC1"/>
<path d="M177.23 250.667L187.638 263.343L200.592 244.135L191.785 232.087L177.23 250.667Z" fill="white"/>
<path d="M199.668 242.253C199.102 241.812 198.688 241.628 198.688 241.628L193.075 240.706C190.856 240.853 184.16 248.401 182.675 251.879C178.606 261.348 187.472 269.612 198.261 272.005C207.995 272.605 213.236 270.927 214.546 263.054C215.161 255.866 207.52 244.249 199.668 242.253Z" fill="#F6CDC1"/>
<path d="M282.125 104.972L232.392 175.452H249.91L300.82 113.484C294.281 107.577 286.15 105.409 282.125 104.972Z" fill="white"/>
<path d="M219.788 105.59L249.91 175.452H232.392L201.519 115.438C205.909 109.744 215.762 106.028 219.788 105.59Z" fill="white"/>
<path d="M263.251 184.668C263.251 197.3 253.011 207.541 240.379 207.541C227.746 207.541 217.506 197.3 217.506 184.668C217.506 172.036 227.747 161.796 240.379 161.796C253.011 161.796 263.251 172.036 263.251 184.668Z" fill="white"/>
<path d="M254.565 184.668C254.565 192.503 248.214 198.855 240.378 198.855C232.543 198.855 226.192 192.503 226.192 184.668C226.192 176.833 232.543 170.481 240.378 170.481C248.214 170.481 254.565 176.833 254.565 184.668Z" fill="#CECFFF"/>
<path d="M246.257 193.392C245.213 194.165 241.768 192.209 240.469 192.221C239.169 192.233 235.762 194.255 234.703 193.501C233.645 192.747 234.441 188.866 234.028 187.634C233.615 186.402 230.639 183.786 231.029 182.546C231.419 181.307 235.356 180.865 236.4 180.091C237.444 179.318 239.013 175.679 240.312 175.667C241.611 175.655 243.249 179.263 244.307 180.017C245.365 180.77 249.311 181.138 249.724 182.37C250.137 183.601 247.211 186.274 246.821 187.513C246.432 188.753 247.301 192.619 246.257 193.392Z" fill="#F2F4FF"/>
<path d="M470.252 490.082L468.72 477.605H483.67H487.231L487.54 495.186L470.252 490.082Z" fill="#F6C6C0"/>
<path d="M363.615 197.124C362.852 199.331 361.511 202.842 360.864 205.4C360.147 208.239 360.524 211.555 361.267 214.074C369.729 242.776 405.714 271.149 415.675 276.881L422.818 264.893C409.247 262.484 389.752 227.047 381.034 210.091C381.63 207.657 382.597 205.211 383.261 203.418C375.821 201.898 369.809 198.482 363.615 197.124Z" fill="#F6C6C0"/>
<path d="M411.778 257.687C408.158 257.84 404.547 264.017 402.821 267.604C404.89 269.288 406.828 270.787 408.599 272.098L414.931 273.818C414.931 273.818 420.596 268.877 420.815 267.315C420.989 266.08 420.828 266.155 417.887 262.802C415.909 261.542 413.859 259.798 411.778 257.687Z" fill="#F69CB3"/>
<path d="M417.555 255.465C418.456 255.681 419.556 256.327 420.873 257.557C422.354 258.698 423.663 259.686 424.793 260.581L418.844 286.665C414.924 286.382 416.158 286.048 414.983 285.539C413.896 284.977 412.892 284.206 411.987 283.282C414.393 278.25 415.501 264.073 415.501 264.073C413.47 261.638 413.65 254.525 417.555 255.465Z" fill="#F6C6C0"/>
<path d="M484.396 263.91L488.047 433.811L487.232 477.605H468.721L464.123 433.811L453.41 331.771L428.203 433.811L417.385 477.605H400.407L405.226 433.811L406.815 322.547C399.908 305.051 395.196 275.684 420.597 268.877L484.396 263.91Z" fill="#7265AD"/>
<path d="M464.123 433.811H488.046L487.231 477.605H468.72L464.123 433.811Z" fill="#574B89"/>
<path d="M405.226 433.811H428.203L417.385 477.605H400.407L405.226 433.811Z" fill="#574B89"/>
<path d="M453.41 331.771L457.768 315.203H464.749L458.044 376.307L453.41 331.771Z" fill="#574B89"/>
<path d="M506.307 192.069C507.071 194.276 508.412 196.255 509.058 198.812C509.776 201.652 510.93 206.39 510.188 208.909C501.726 237.611 496.069 263.028 487.75 271.607L480.826 263.998C488.266 241.006 491.009 226.261 493.159 206.35C492.562 203.915 489.078 199.827 488.413 198.034C495.854 196.515 500.113 193.427 506.307 192.069Z" fill="#F6C6C0"/>
<path d="M485.759 247.467C489.379 247.62 496.523 251.025 496.936 254.118C494.593 260.236 493.585 266.827 491.815 268.137L488.492 268.544C488.492 268.544 482.828 263.604 482.609 262.041C482.435 260.806 479.668 265.395 482.609 262.041C484.587 260.782 483.291 253.895 485.759 247.467Z" fill="#F69CB3"/>
<path d="M485.87 250.191C484.968 250.408 483.869 251.053 482.552 252.283C481.071 253.424 479.761 254.412 478.632 255.308L484.581 281.391C488.501 281.108 487.267 280.774 488.441 280.265C489.529 279.704 490.533 278.932 491.437 278.009C489.031 272.976 487.923 258.799 487.923 258.799C489.955 256.364 489.775 249.252 485.87 250.191Z" fill="#F6C6C0"/>
<path d="M484.4 258.768L484.395 263.91L420.595 268.877L421.794 258.768H484.4V258.768Z" fill="white"/>
<path d="M487.231 483.139L469.316 483.348L470.253 490.082C470.253 490.082 487.456 488.96 487.494 488.767C487.533 488.574 487.231 483.139 487.231 483.139Z" fill="white"/>
<path d="M517.242 506.071H468.47L470.253 490.082L476.061 488.493C480.016 484.675 487.254 483.739 492.195 489.366C492.195 489.366 501.236 495.871 505.646 495.981C514.582 495.981 517.922 497.691 517.242 506.071Z" fill="#3D3D3D"/>
<path d="M415.414 490.082L417.385 477.605H403.968H400.406L398.126 495.186L415.414 490.082Z" fill="#F6C6C0"/>
<path d="M399.636 483.139L416.482 483.348L415.414 490.082C415.414 490.082 398.211 488.96 398.173 488.767C398.134 488.574 399.636 483.139 399.636 483.139Z" fill="white"/>
<path d="M386.835 506.071H416.114L415.414 490.082L409.606 488.493C405.651 484.676 399.636 483.14 396.319 488.763C392.018 499.902 386.139 495.283 386.835 506.071Z" fill="#3D3D3D"/>
<path d="M400.375 45.5522C400.375 45.5522 385.448 93.8324 367.184 117.863C348.92 141.894 359.697 161.477 382.74 161.462C405.782 161.447 452.589 150.491 452.589 150.491L471.128 145.571C471.128 145.571 484.224 126.685 472.999 110.583C461.772 94.4809 463.618 66.5135 463.618 66.5135C463.618 66.5135 414.627 34.0942 400.375 45.5522Z" fill="#3D3D3D"/>
<path d="M437.423 115.927C430.933 115.52 432.501 111.798 432.501 111.798C421.08 116.802 402.781 123.452 390.941 134.393C382.326 142.669 362.408 189.034 356.893 197.36C356.572 197.844 357.154 196.866 356.893 197.36L383.26 203.418L396.494 186.154L413.764 217.61L421.794 258.768H484.4L469.684 198.323C474.094 196.254 478.391 189.57 476.603 181.578C479.587 188.707 484.069 197.002 487.581 204.225L509.291 187.902C501.835 173.769 491.184 153.403 486.309 143.166C477.28 126.342 464.327 123.351 459.343 121.468C441.125 113.822 445.257 116.418 437.423 115.927Z" fill="#FFB443"/>
<path d="M460.29 71.7201L464.058 83.4571C480.081 82.7812 475.146 46.2086 460.29 71.7201Z" fill="#F69CB3"/>
<path d="M423.072 80.752C423.072 80.752 423.177 96.3773 422.446 103.144C421.716 109.911 421.615 113.596 421.615 113.596L437.199 129.764L446.387 122.259L442.86 104.486L423.072 80.752Z" fill="#F6C6C0"/>
<path d="M423.072 80.752L442.86 104.487L445.528 117.93C442.035 118.423 438.273 118.04 435.705 115.236C429.613 108.587 428.678 92.6228 428.678 92.6228L423.072 80.752Z" fill="#F69CB3"/>
<path d="M423.072 80.752C407.276 77.9758 416.976 42.3693 428.35 69.6122C432.263 63.9539 440.208 55.8101 436.957 44.177C448.55 48.8185 458.182 52.4557 471.12 49.8451C472.528 105.538 442.527 137.361 423.072 80.752Z" fill="#F6C6C0"/>
<path d="M424.274 73.3056C424.364 73.0278 423.786 68.872 421.64 65.8906C419.494 62.9089 417.291 66.1716 417.291 66.1716C417.291 66.1716 419.454 65.6753 420.525 67.7339C421.596 69.7925 417.403 72.0003 420.991 74.6511C424.579 77.3019 424.274 73.3056 424.274 73.3056Z" fill="#F69CB3"/>
<path d="M437.199 129.764L421.723 112.1L422.165 106.433C416.1 110.13 414.943 116.504 415.628 119.981L424.689 142.399L437.199 129.764Z" fill="white"/>
<path d="M446.387 122.259L444.236 111.436C450.192 113.279 455.197 122.125 453.436 127.632C452.879 129.258 447.897 143.395 447.897 143.395L437.199 129.763L446.387 122.259Z" fill="white"/>
<path d="M470.94 52.5763C466.441 65.8111 442.165 82.1916 429.445 75.5597L428.351 69.6121C428.351 69.6121 425.106 60.9425 420.509 59.4753C415.912 58.0083 400.374 45.5525 400.374 45.5525C400.374 45.5525 407.602 23.3475 422.679 14.3577C437.755 5.36796 459.552 17.1788 472.134 26.0188C479.371 31.1027 476.855 40.5056 476.855 40.5056C479.751 48.1578 484.919 54.6436 479.754 63.0803C474.588 71.5173 469.834 72.7003 469.834 72.7003C469.834 72.7003 471.364 61.5904 470.94 52.5763Z" fill="#3D3D3D"/>
<path d="M468.72 477.604L469.316 483.348L487.231 483.14V477.604H468.72Z" fill="#F6CDC1"/>
<path d="M396.494 186.153L397.37 163.143L383.261 203.418L396.494 186.153Z" fill="#FF9A3D"/>
<path d="M384.654 203.65L389.334 197.841L355.801 184.013L356.028 198.827L384.654 203.65Z" fill="white"/>
<path d="M415.501 264.073C410.276 260.851 405.185 266.554 403.079 271.11C400.105 278.031 406.586 284.073 414.473 285.822C421.589 286.26 425.42 285.034 426.378 279.279C426.827 274.024 421.242 265.532 415.501 264.073Z" fill="#F6C6C0"/>
<path d="M476.603 181.578L473.361 166.888L495.477 197.981L487.581 204.225L476.603 181.578Z" fill="#FF9A3D"/>
<path d="M487.581 204.225L481.606 199.758L509.371 178.617L512.824 193.024L487.581 204.225Z" fill="white"/>
<path d="M469.684 198.323C469.684 198.323 460.531 201.201 452.479 197.02C444.427 192.84 443.499 192.375 443.499 192.375C443.499 192.375 435.292 198.259 430.338 198.878C425.383 199.498 421.048 197.485 421.048 197.485C421.048 197.485 429.409 220.71 450.621 228.607C471.834 236.503 478.236 233.616 478.236 233.616L469.684 198.323Z" fill="#FF9A3D"/>
<path d="M487.924 258.799C493.149 255.577 498.241 261.28 500.346 265.836C503.32 272.757 496.839 278.799 488.952 280.548C481.837 280.987 478.005 279.76 477.048 274.005C476.598 268.75 482.184 260.258 487.924 258.799Z" fill="#F6C6C0"/>
<path d="M408.629 122.436L451.706 193.776H436.765L393.535 132.174C396.712 127.329 405.195 122.809 408.629 122.436Z" fill="white"/>
<path d="M461.792 122.248L436.765 193.776H451.706L477.265 130.976C474.888 126.393 466.539 122.293 461.792 122.248Z" fill="white"/>
<path d="M425.545 191.441C426.327 202.186 435.673 210.264 446.419 209.482C457.165 208.7 465.242 199.354 464.459 188.608C463.677 177.862 454.331 169.785 443.586 170.567C432.84 171.349 424.763 180.695 425.545 191.441Z" fill="white"/>
<path d="M432.933 190.903C433.419 197.568 439.215 202.578 445.88 202.093C452.546 201.608 457.556 195.811 457.07 189.146C456.585 182.481 450.788 177.471 444.123 177.956C437.458 178.441 432.448 184.238 432.933 190.903Z" fill="#CECFFF"/>
<path d="M440.541 197.81C441.477 198.403 444.287 196.525 445.393 196.455C446.499 196.385 449.523 197.894 450.377 197.187C451.23 196.48 450.313 193.228 450.588 192.154C450.863 191.081 453.233 188.671 452.824 187.641C452.416 186.611 449.039 186.478 448.103 185.885C447.168 185.292 445.607 182.293 444.502 182.363C443.396 182.434 442.226 185.604 441.372 186.311C440.519 187.018 437.185 187.575 436.91 188.648C436.635 189.722 439.289 191.814 439.698 192.844C440.106 193.874 439.606 197.216 440.541 197.81Z" fill="#F2F4FF"/>
<path d="M293.624 165.238L300.814 151.56L310.604 189.238L293.624 165.238Z" fill="#574B89"/>
<path d="M203.706 168.352V142.364L192.977 185.154L203.706 168.352Z" fill="#574B89"/>
<path d="M543.258 353.498C552.58 353.498 560.136 361.054 560.136 370.376C560.131 371.067 560.084 371.756 559.994 372.442C560.425 372.406 560.857 372.389 561.288 372.386C570.61 372.386 578.166 379.943 578.166 389.265C578.159 392.406 577.275 395.484 575.613 398.151C583.958 399.301 590.177 406.428 590.187 414.851C590.187 424.172 582.63 431.729 573.309 431.729C572.46 431.721 571.614 431.649 570.776 431.513C572.111 440.773 572.63 450.96 571.804 461.92C571.665 463.899 569.948 465.391 567.968 465.252C565.989 465.113 564.497 463.396 564.636 461.417C564.637 461.405 564.638 461.393 564.639 461.381C565.39 451.417 564.983 442.148 563.854 433.693C560.721 436.716 556.541 438.412 552.187 438.426C542.866 438.426 535.309 430.87 535.309 421.549C535.316 418.503 536.148 415.516 537.715 412.904C532.22 409.971 528.787 404.251 528.784 398.022C528.789 392.996 531.035 388.233 534.91 385.03C529.641 382.032 526.385 376.438 526.38 370.376C526.38 361.054 533.937 353.498 543.258 353.498Z" fill="#CECFFF"/>
<path d="M581.472 339.375C572.846 337.064 563.979 342.183 561.667 350.809C560.169 356.421 561.795 362.406 565.927 366.487C561.547 368.49 558.288 372.34 557.037 376.991C555.495 382.756 557.253 388.901 561.611 392.977C559.513 395.006 558.003 397.564 557.242 400.381C554.93 409.007 560.05 417.874 568.676 420.185L568.676 420.186C572.702 421.262 576.988 420.743 580.64 418.736C579.587 426.83 577.668 435.495 574.507 444.516C573.874 446.308 574.815 448.274 576.608 448.907C578.401 449.539 580.366 448.599 580.998 446.806C581 446.801 581.002 446.797 581.004 446.791C584.486 436.854 586.529 427.299 587.589 418.399C588.332 418.731 589.099 419.007 589.884 419.225C598.51 421.536 607.377 416.417 609.688 407.791C611.768 399.993 607.779 391.856 600.342 388.722C602.541 386.667 604.122 384.038 604.909 381.131C607.22 372.506 602.101 363.638 593.475 361.327C593.074 361.221 592.67 361.131 592.263 361.057C592.516 360.445 592.731 359.819 592.907 359.18C595.218 350.555 590.099 341.687 581.473 339.376C581.472 339.375 581.472 339.375 581.472 339.375Z" fill="#A5A3FF"/>
<path d="M543.255 463.037L548.685 496.017C549.439 501.536 553.169 506.071 558.738 506.071H603.409C608.978 506.071 612.609 501.521 613.462 496.017L618.581 463.037H543.255Z" fill="#CECFFF"/>
<path d="M543.255 463.037L544.495 470.571H617.411L618.581 463.037H543.255Z" fill="#B7BBFF"/>
<path d="M540.799 442.929H621.298C626.868 442.929 631.352 447.413 631.352 452.983C631.352 458.553 626.868 463.037 621.298 463.037H540.799C535.229 463.037 530.745 458.553 530.745 452.983C530.745 447.413 535.229 442.929 540.799 442.929Z" fill="#CECFFF"/>
<path d="M620.969 350.092C611.648 350.092 604.092 357.648 604.092 366.969C604.097 367.66 604.144 368.35 604.233 369.035C603.803 368.999 603.371 368.982 602.939 368.98C593.617 368.98 586.061 376.536 586.061 385.858C586.069 389 586.953 392.078 588.614 394.745C580.269 395.894 574.051 403.021 574.041 411.444C574.041 420.766 581.597 428.322 590.918 428.322C591.767 428.314 592.614 428.242 593.452 428.107C592.116 437.366 591.598 447.554 592.424 458.514C592.565 460.492 594.284 461.983 596.263 461.842C598.242 461.701 599.732 459.982 599.591 458.003C599.59 457.993 599.589 457.984 599.589 457.974C598.837 448.011 599.244 438.742 600.374 430.286C603.507 433.31 607.687 435.006 612.04 435.02C621.362 435.02 628.918 427.464 628.918 418.142C628.911 415.097 628.08 412.109 626.513 409.498C632.008 406.565 635.44 400.844 635.443 394.616C635.438 389.59 633.192 384.826 629.317 381.624C634.586 378.625 637.842 373.032 637.848 366.97C637.848 357.648 630.29 350.092 620.97 350.092H620.969V350.092Z" fill="#CECFFF"/>
<path d="M83.598 69.0738C80.1068 69.1116 76.6193 70.3886 73.8813 72.933L71.0742 75.5417L76.2915 81.1554L79.0986 78.5467C81.9052 75.9382 86.1793 76.0948 88.7875 78.9011C91.3957 81.7075 91.2391 85.9821 88.4325 88.5903L88.3422 88.6743L85.9056 90.9959L85.6537 91.2297C80.5677 96.729 80.4982 105.403 85.6753 110.974C91.1033 116.814 100.354 117.153 106.195 111.725H106.195L109.002 109.116L109.002 109.116C111.809 106.508 116.083 106.664 118.691 109.471C121.299 112.277 121.143 116.549 118.339 119.158C118.338 119.158 118.338 119.159 118.336 119.16C117.401 120.032 116.442 120.877 115.557 121.799C110.471 127.298 110.402 135.972 115.579 141.543C121.007 147.384 130.258 147.723 136.099 142.295L138.906 139.686L133.689 134.073L130.882 136.681C128.076 139.289 123.801 139.133 121.193 136.326C118.585 133.52 118.742 129.246 121.549 126.638L123.862 124.407L124.327 123.998C129.413 118.499 129.482 109.825 124.305 104.254C118.877 98.4136 109.626 98.0748 103.786 103.503L103.785 103.503L100.978 106.111L100.978 106.112C98.1713 108.72 93.8973 108.563 91.289 105.757C88.6808 102.95 88.8382 98.6767 91.6445 96.0687L94.1714 93.653L94.4229 93.428C99.5086 87.9287 99.5778 79.2551 94.4009 73.6841C91.5175 70.5817 87.5546 69.0318 83.598 69.0738Z" fill="#CECFFF"/>
<path d="M168.334 33.9597L161.317 37.0442L162.86 40.5518L180.377 80.4037L181.918 83.9126L188.934 80.8279L187.392 77.3203L169.874 37.467L168.334 33.9597Z" fill="#CECFFF"/>
<path d="M62.4168 193.418L60.3672 200.803L64.0594 201.828L106.005 213.471L109.698 214.497L111.747 207.112L108.055 206.088L66.1085 194.444L62.4168 193.418Z" fill="#CECFFF"/>
<path d="M107.269 317.886L111.238 324.442L114.516 322.458L151.758 299.918L155.037 297.934L151.068 291.377L147.79 293.362L110.547 315.902L107.269 317.886Z" fill="#CECFFF"/>
<path d="M330.357 54.3989C336.096 54.3989 341.295 57.8716 343.491 63.174C345.687 68.476 344.467 74.6082 340.409 78.6662C336.351 82.7242 330.219 83.9445 324.917 81.7485C319.615 79.5521 316.142 74.353 316.142 68.6141V64.8485H323.673V68.6141C323.673 71.3288 325.292 73.7508 327.8 74.7899C330.308 75.8284 333.165 75.2608 335.084 73.3414C337.004 71.422 337.573 68.5653 336.534 66.0574C335.495 63.5493 333.071 61.9307 330.357 61.9307H326.591V54.3992H330.357V54.3989Z" fill="#CECFFF"/>
<path d="M115.903 242.492V246.258V251.69V255.455H123.434V251.69V246.258V242.492H115.903Z" fill="#CECFFF"/>
<path d="M115.903 266.921V270.686V276.118V279.884H123.434V276.118V270.686V266.921H115.903Z" fill="#CECFFF"/>
<path d="M138.364 257.422H134.599H129.167H125.401V264.954H129.167H134.599H138.364V257.422Z" fill="#CECFFF"/>
<path d="M113.935 257.422H110.169H104.737H100.972V264.954H104.737H110.169H113.935V257.422Z" fill="#CECFFF"/>
<path d="M537.064 260.23C542.803 260.23 548.002 263.702 550.198 269.005C552.394 274.307 551.174 280.439 547.116 284.497C543.058 288.555 536.925 289.775 531.623 287.579C526.321 285.383 522.849 280.184 522.849 274.444V270.679H530.38V274.444C530.38 277.159 531.998 279.581 534.506 280.62C537.014 281.66 539.871 281.091 541.791 279.173C543.71 277.252 544.279 274.395 543.24 271.888C542.201 269.38 539.778 267.761 537.064 267.761H533.298V260.23H537.064Z" fill="#CECFFF"/>
<path d="M584.819 199.515L586.869 206.9L583.177 207.925L541.231 219.568L537.538 220.594L535.489 213.209L539.181 212.185L581.128 200.541L584.819 199.515Z" fill="#CECFFF"/>
<path d="M353.814 324.985C351.008 322.908 347.457 321.821 343.739 322.196L339.926 322.583L340.697 330.207L344.51 329.822C348.322 329.436 351.635 332.14 352.02 335.953C352.406 339.764 349.701 343.078 345.889 343.463L345.767 343.476L342.423 343.856L342.08 343.89C334.706 345.205 329.415 352.078 330.181 359.645C330.983 367.578 338.154 373.432 346.087 372.63L349.899 372.244C353.711 371.858 357.024 374.563 357.41 378.375C357.795 382.186 355.092 385.498 351.281 385.886C351.281 385.886 351.28 385.886 351.278 385.886C350.006 386.016 348.732 386.111 347.469 386.312C340.095 387.626 334.804 394.5 335.569 402.067C336.371 409.999 343.542 415.854 351.475 415.052L355.289 414.666L354.518 407.042L350.705 407.427C346.892 407.813 343.58 405.108 343.194 401.296C342.809 397.484 345.513 394.172 349.325 393.786L352.517 393.404L353.134 393.358C360.508 392.043 365.799 385.17 365.034 377.604C364.231 369.671 357.06 363.816 349.128 364.619L345.315 365.004C341.503 365.39 338.19 362.686 337.804 358.873C337.419 355.061 340.124 351.749 343.936 351.364L347.408 350.963L347.744 350.936C355.118 349.621 360.409 342.747 359.644 335.181C359.218 330.966 356.994 327.339 353.813 324.984L353.814 324.985Z" fill="#CECFFF"/>
<path d="M337.506 241.922V245.687V251.119V254.885H345.037V251.119V245.687V241.922H337.506Z" fill="#CECFFF"/>
<path d="M337.506 266.351V270.116V275.548V279.314H345.037V275.548V270.116V266.351H337.506Z" fill="#CECFFF"/>
<path d="M359.968 256.852H356.202H350.77H347.004V264.383H350.77H356.202H359.968V256.852Z" fill="#CECFFF"/>
<path d="M335.539 256.852H331.774H326.342H322.576V264.383H326.342H331.774H335.539V256.852Z" fill="#CECFFF"/>
<path d="M600.202 274.6V278.365V283.797V287.563H607.733V283.797V278.365V274.6H600.202Z" fill="#CECFFF"/>
<path d="M600.202 299.028V302.794V308.226V311.991H607.733V308.226V302.794V299.028H600.202Z" fill="#CECFFF"/>
<path d="M622.663 289.53H618.898H613.466H609.7V297.061H613.466H618.898H622.663V289.53Z" fill="#CECFFF"/>
<path d="M598.235 289.53H594.469H589.037H585.271V297.061H589.037H594.469H598.235V289.53Z" fill="#CECFFF"/>
<path d="M167.939 346.937C173.677 346.937 178.877 350.409 181.073 355.712C183.269 361.014 182.049 367.146 177.991 371.204C173.933 375.262 167.8 376.482 162.498 374.286C157.196 372.09 153.724 366.891 153.724 361.152V357.386H161.255V361.152C161.255 363.867 162.873 366.289 165.382 367.328C167.889 368.367 170.747 367.798 172.666 365.879C174.586 363.96 175.154 361.103 174.115 358.595C173.076 356.087 170.653 354.468 167.939 354.468H164.173V346.937H167.939Z" fill="#CECFFF"/>
<path d="M526.27 49.4431L533.286 52.5278L531.744 56.0351L514.226 95.8874L512.685 99.3958L505.669 96.3116L507.211 92.804L524.729 52.9507L526.27 49.4431Z" fill="#CECFFF"/>
<path d="M584.269 85.3761C587.76 85.4136 591.248 86.6906 593.985 89.235L596.793 91.8437L591.575 97.4574L588.768 94.8489C585.962 92.2404 581.688 92.3971 579.079 95.2031C576.471 98.01 576.628 102.284 579.434 104.892L579.524 104.976L581.961 107.298L582.213 107.532C587.299 113.031 587.369 121.704 582.191 127.276C576.764 133.116 567.512 133.455 561.672 128.027V128.027L558.865 125.418V125.418C556.058 122.81 551.784 122.967 549.176 125.773C546.568 128.579 546.724 132.852 549.529 135.46C549.529 135.46 549.529 135.461 549.529 135.462C550.464 136.334 551.422 137.179 552.308 138.101C557.394 143.6 557.463 152.274 552.285 157.845C546.858 163.686 537.607 164.025 531.766 158.597L528.959 155.988L534.176 150.375L536.983 152.983C539.789 155.591 544.064 155.435 546.672 152.628C549.28 149.822 549.123 145.549 546.316 142.94L544.003 140.709L543.538 140.3C538.452 134.8 538.383 126.127 543.56 120.556C548.988 114.716 558.239 114.376 564.079 119.805V119.805L566.886 122.413V122.414C569.692 125.022 573.967 124.865 576.575 122.059C579.183 119.252 579.026 114.979 576.219 112.371L573.693 109.955L573.441 109.73C568.356 104.231 568.286 95.5571 573.463 89.9864C576.347 86.8837 580.309 85.3336 584.266 85.3761H584.269Z" fill="#CECFFF"/>
<path d="M42.2451 463.037L47.6742 496.017C48.428 501.535 52.1583 506.071 57.7279 506.071H102.398C107.968 506.071 111.598 501.521 112.452 496.017L117.57 463.037H42.2451Z" fill="#CECFFF"/>
<path d="M42.2451 463.037L43.4849 470.571H116.401L117.57 463.037H42.2451Z" fill="#B7BBFF"/>
<path d="M120.23 392.945C115.296 392.995 101.991 397.526 98.3371 403.684C94.7596 409.714 95.8868 415.67 99.2444 419.941C98.9716 420.756 98.7021 421.613 98.4422 422.517C96.073 430.748 94.2921 442.855 96.4378 458.47C96.6684 460.244 98.2935 461.495 100.068 461.265C101.842 461.034 103.093 459.409 102.863 457.635C102.861 457.618 102.858 457.604 102.856 457.588C102.534 455.242 102.307 452.989 102.161 450.825C104.621 452.065 107.669 452.1 110.517 449.962C114.155 447.23 115.861 437.659 114.896 436.373C113.904 435.051 106.721 434.288 102.428 435.853C102.919 431.381 103.739 427.559 104.643 424.399C110.857 427.635 119.006 426.92 123.822 418.803C127.997 411.765 124.746 394.966 121.781 393.207C121.469 393.023 120.935 392.938 120.23 392.945Z" fill="#CECFFF"/>
<path d="M33.5746 402.065C30.744 402.097 28.5497 402.508 27.7832 403.265C25.7267 405.296 26.2293 422.775 31.9791 428.598C36.9673 433.648 43.1037 434.016 48.1208 431.758C49.0851 432.885 50.0893 434.154 51.0814 435.569C46.9373 436.003 42.3457 437.927 41.8338 439.174C41.2237 440.661 45.2852 449.495 49.494 451.222C52.7713 452.567 55.6999 451.779 57.7666 449.98C58.1026 451.339 58.3747 452.748 58.5654 454.206C58.7574 455.984 60.3545 457.271 62.1334 457.079C63.9123 456.887 65.1983 455.29 65.0066 453.511C65.001 453.462 64.995 453.413 64.9873 453.364C63.5262 442.207 58.1359 433.586 53.4152 427.963C58.2801 422.781 59.7869 414.585 53.061 407.775C49.1081 403.773 39.8019 401.997 33.5746 402.065Z" fill="#A5A3FF"/>
<path d="M111.781 352.726C105.804 352.632 94.6004 355.342 90.5437 360.283C84.5901 367.533 86.6341 375.388 91.7267 380.136C91.5983 380.479 91.4702 380.83 91.3429 381.191C87.1956 392.931 83.6323 413.982 85.0293 452.514C85.0702 454.303 86.5536 455.719 88.3419 455.679C90.1303 455.637 91.5471 454.155 91.5062 452.366C91.5054 452.338 91.5046 452.309 91.503 452.28C90.9808 437.885 91.1742 426.025 91.8165 416.269C95.4387 418.244 100.398 417.852 102.999 413.223C105.227 409.256 102.927 399.809 101.526 399.022C100.493 398.442 96.6629 399.407 93.3616 401.166C94.4784 393.484 95.9091 387.787 97.3637 383.606C102.63 385.534 108.853 384.678 113.444 379.086C118.637 372.763 117.536 355.31 115.303 353.477C114.719 352.998 113.455 352.752 111.781 352.726Z" fill="#A5A3FF"/>
<path d="M64.9737 326.025C64.8488 326.03 64.7336 326.044 64.6287 326.069C61.8155 326.731 53.1382 341.912 55.0133 349.877C56.6479 356.821 61.736 360.334 67.2254 360.996C69.5251 379.116 73.8456 418.148 72.9983 449.999C72.9305 451.787 74.3245 453.29 76.1121 453.358C77.9 453.427 79.4042 452.032 79.4723 450.245C79.4731 450.22 79.4736 450.195 79.4741 450.171C80.042 428.818 78.3593 404.579 76.4782 385.273C79.6649 386 83.2121 384.996 85.2749 381.324C87.5028 377.357 85.2038 367.91 83.8026 367.122C82.683 366.494 78.2774 367.682 74.8211 369.726C74.4177 366.245 74.039 363.173 73.6977 360.488C80.5235 358.58 86.0432 352.378 83.856 343.087C82.0396 335.371 68.8473 325.892 64.9737 326.025Z" fill="#A5A3FF"/>
<path d="M39.7888 442.929H120.288C125.857 442.929 130.341 447.413 130.341 452.983C130.341 458.553 125.857 463.037 120.288 463.037H39.7888C34.2189 463.037 29.7349 458.553 29.7349 452.983C29.7349 447.413 34.2186 442.929 39.7888 442.929Z" fill="#CECFFF"/>
<path d="M36.9039 361.625C36.1662 361.619 35.5846 361.718 35.209 361.929C32.6887 363.343 28.5541 380.335 32.5612 387.469C36.8925 395.18 44.8636 396.352 51.1928 393.661C57.648 405.539 67.1885 428.7 64.9088 458.942C64.7625 460.725 66.0892 462.289 67.872 462.436C69.6551 462.582 71.2193 461.255 71.3656 459.473C71.3667 459.458 71.3677 459.443 71.369 459.428C72.4696 444.831 70.924 431.756 68.2656 420.651C71.836 422.346 76.4878 421.798 78.9772 417.366C81.2051 413.399 78.9061 403.952 77.5047 403.166C75.8877 402.257 67.4177 405.133 64.851 408.914C62.1606 401.093 59.1129 394.716 56.5445 390.028C60.5375 385.939 62.196 379.723 58.3965 372.958C54.8903 366.716 42.0683 361.66 36.9039 361.625Z" fill="#CECFFF"/>
</svg>
