<svg width="99" height="36" viewBox="0 0 99 36" fill="none" xmlns="http://www.w3.org/2000/svg">
<path d="M25.1279 35.408V29.9668H28.6883V30.3524H25.5086V32.495H27.9948V32.8882H25.5086V35.408H25.1279Z" fill="#653494"/>
<path d="M25.1279 35.408V29.9668H28.6883V30.3524H25.5086V32.495H27.9948V32.8882H25.5086V35.408H25.1279Z" stroke="#653494" stroke-width="0.344" stroke-linecap="round" stroke-linejoin="round"/>
<path d="M32.5229 29.9668H32.9028V35.408H32.5229V29.9668Z" fill="#653494"/>
<path d="M32.5229 29.9668H32.9028V35.408H32.5229V29.9668Z" stroke="#653494" stroke-width="0.344" stroke-linecap="round" stroke-linejoin="round"/>
<path d="M37.4818 30.9877V35.4081H37.1011V29.8997L40.9064 34.4032V29.9667H41.2871V35.5L37.4818 30.9877Z" fill="#653494"/>
<path d="M37.4818 30.9877V35.4081H37.1011V29.8997L40.9064 34.4032V29.9667H41.2871V35.5L37.4818 30.9877Z" stroke="#653494" stroke-width="0.344" stroke-linecap="round" stroke-linejoin="round"/>
<path d="M47.5064 30.8287L46.1873 33.6505H48.7672L47.5064 30.8287ZM46.0103 34.0264L45.3588 35.408H44.936L47.5236 29.8998L49.9677 35.408H49.5535L48.9356 34.0264H46.0103Z" fill="#653494"/>
<path d="M47.5064 30.8287L46.1873 33.6505H48.7672L47.5064 30.8287ZM46.0103 34.0264L45.3588 35.408H44.936L47.5236 29.8998L49.9677 35.408H49.5535L48.9356 34.0264H46.0103Z" stroke="#653494" stroke-width="0.344" stroke-linecap="round" stroke-linejoin="round"/>
<path d="M54.0008 30.9877V35.4081H53.6201V29.8997L57.4257 34.4032V29.9667H57.8062V35.5L54.0008 30.9877Z" fill="#653494"/>
<path d="M54.0008 30.9877V35.4081H53.6201V29.8997L57.4257 34.4032V29.9667H57.8062V35.5L54.0008 30.9877Z" stroke="#653494" stroke-width="0.344" stroke-linecap="round" stroke-linejoin="round"/>
<path d="M64.3882 35.4666C63.8862 35.4666 63.4215 35.3406 62.9935 35.0897C62.5646 34.8387 62.2269 34.4993 61.9786 34.0729C61.7303 33.6461 61.6064 33.1816 61.6064 32.6789C61.6064 32.1767 61.7303 31.7132 61.9786 31.2895C62.2269 30.8651 62.5646 30.5275 62.9935 30.2765C63.4215 30.0256 63.8862 29.8994 64.3882 29.8994C64.7776 29.8994 65.1513 29.9797 65.5089 30.1387C65.8672 30.2978 66.1818 30.5223 66.4516 30.8125L66.156 31.0719C65.9308 30.821 65.6646 30.6254 65.3568 30.4858C65.0492 30.346 64.7269 30.2765 64.3882 30.2765C63.9543 30.2765 63.5537 30.3834 63.1877 30.5987C62.8215 30.8131 62.5293 31.1049 62.3129 31.4734C62.0954 31.8416 61.9872 32.2431 61.9872 32.6789C61.9872 33.1144 62.0954 33.5159 62.3129 33.8843C62.5293 34.2526 62.8215 34.5443 63.1877 34.7588C63.5537 34.9741 63.9543 35.0812 64.3882 35.0812C64.7493 35.0812 65.0919 35.003 65.4161 34.847C65.7402 34.6906 66.0177 34.4729 66.2488 34.1939L66.553 34.4287C66.2884 34.7579 65.967 35.0133 65.5897 35.1943C65.2117 35.3756 64.8111 35.4666 64.3882 35.4666Z" fill="#653494"/>
<path d="M64.3882 35.4666C63.8862 35.4666 63.4215 35.3406 62.9935 35.0897C62.5646 34.8387 62.2269 34.4993 61.9786 34.0729C61.7303 33.6461 61.6064 33.1816 61.6064 32.6789C61.6064 32.1767 61.7303 31.7132 61.9786 31.2895C62.2269 30.8651 62.5646 30.5275 62.9935 30.2765C63.4215 30.0256 63.8862 29.8994 64.3882 29.8994C64.7776 29.8994 65.1513 29.9797 65.5089 30.1387C65.8672 30.2978 66.1818 30.5223 66.4516 30.8125L66.156 31.0719C65.9308 30.821 65.6646 30.6254 65.3568 30.4858C65.0492 30.346 64.7269 30.2765 64.3882 30.2765C63.9543 30.2765 63.5537 30.3834 63.1877 30.5987C62.8215 30.8131 62.5293 31.1049 62.3129 31.4734C62.0954 31.8416 61.9872 32.2431 61.9872 32.6789C61.9872 33.1144 62.0954 33.5159 62.3129 33.8843C62.5293 34.2526 62.8215 34.5443 63.1877 34.7588C63.5537 34.9741 63.9543 35.0812 64.3882 35.0812C64.7493 35.0812 65.0919 35.003 65.4161 34.847C65.7402 34.6906 66.0177 34.4729 66.2488 34.1939L66.553 34.4287C66.2884 34.7579 65.967 35.0133 65.5897 35.1943C65.2117 35.3756 64.8111 35.4666 64.3882 35.4666Z" stroke="#653494" stroke-width="0.344" stroke-linecap="round" stroke-linejoin="round"/>
<path d="M70.2246 35.408V29.9668H73.785V30.3524H70.6053V32.495H73.0829V32.8797H70.6053V35.0147H73.785V35.408H70.2246Z" fill="#653494"/>
<path d="M70.2246 35.408V29.9668H73.785V30.3524H70.6053V32.495H73.0829V32.8797H70.6053V35.0147H73.785V35.408H70.2246Z" stroke="#653494" stroke-width="0.344" stroke-linecap="round" stroke-linejoin="round"/>
<path d="M12.4805 8.37719C12.4805 10.6679 11.5649 12.2258 9.67989 13.1411C8.71135 13.6219 7.70118 13.869 6.68262 13.8782H2.06857V2.8885H6.68262C7.70366 2.8885 8.71701 3.13183 9.69573 3.61176C11.5692 4.53531 12.4805 6.09384 12.4805 8.37719ZM10.6477 1.81976C9.32566 1.17963 7.99158 0.854975 6.68262 0.854975H0V21.439H2.06857V15.8976H6.68262C7.98909 15.8976 9.32294 15.5781 10.6468 14.9481C13.2731 13.6817 14.6045 11.4716 14.6045 8.37719C14.6045 5.29128 13.2731 3.085 10.6477 1.81976Z" fill="black"/>
<path d="M46.191 12.7015L39.9674 0.841084H37.6807L45.1768 14.9389L45.1627 21.439H47.232L47.246 14.9389L54.6998 0.841084H52.4289L46.191 12.7015Z" fill="black"/>
<path d="M73.7851 8.38952C73.7851 5.30584 72.4578 3.10069 69.8406 1.83365C68.5183 1.19352 67.1847 0.869091 65.8757 0.869091H59.1523V21.439H61.2207V2.90262H65.8757C66.9065 2.90262 67.9207 3.14572 68.8904 3.62565C70.7627 4.54764 71.6735 6.10617 71.6735 8.38952C71.6735 10.6738 70.7627 12.2332 68.8911 13.1543C67.9126 13.6349 66.8981 13.8782 65.8757 13.8782H62.2564L70.0855 21.439H73.1169L67.2168 15.7704C68.6346 15.532 69.8798 15.0473 70.9246 14.3234C72.8229 12.9972 73.7851 11.0007 73.7851 8.38952Z" fill="black"/>
<path d="M15.7275 21.4675H18.2683L22.3667 13.7309H19.8414L15.7275 21.4675Z" fill="black"/>
<path d="M26.8758 5.21895L30.3912 11.812H32.8812L28.1076 2.79669L26.8765 0.500115L20.8618 11.812H23.3833L26.8758 5.21895Z" fill="#653494"/>
<path d="M35.4571 21.3125L35.5392 21.4675H37.9944L33.8978 13.7309H31.4146L35.4571 21.3125Z" fill="black"/>
<path d="M79.5934 11.0993C79.5934 8.75117 80.4417 6.71585 82.1144 5.05111C83.7993 3.39377 85.8552 2.55334 88.225 2.55334C90.5956 2.55334 92.6508 3.39377 94.3341 5.05022C96.0091 6.71741 96.8583 8.75274 96.8583 11.0993C96.8583 11.3408 96.8436 11.577 96.8257 11.8118H98.8798C98.8943 11.5758 98.9128 11.3415 98.9128 11.1002C98.921 8.19304 97.871 5.67645 95.7933 3.61984C93.7159 1.56256 91.1741 0.51981 88.2391 0.51981C85.305 0.51981 82.7633 1.56256 80.6841 3.61984C78.6065 5.67735 77.5483 8.19304 77.5391 11.0993C77.5391 11.3408 77.5574 11.5756 77.5719 11.8118H79.6262C79.6081 11.577 79.5934 11.3408 79.5934 11.0993Z" fill="black"/>
<path d="M94.3353 17.1457C92.6527 18.8028 90.5977 19.6435 88.2254 19.6435C85.8549 19.6435 83.7987 18.8028 82.1156 17.1466C81.1036 16.1397 80.399 14.9952 79.9954 13.7309H77.8662C78.3198 15.5451 79.2494 17.171 80.6704 18.5772C82.7494 20.6345 85.2913 21.6772 88.2254 21.6772C91.1597 21.6772 93.7011 20.6345 95.7815 18.5772C97.2027 17.1706 98.1325 15.5446 98.5859 13.7309H96.4562C96.0524 14.9946 95.3473 16.1386 94.3353 17.1457Z" fill="#653494"/>
</svg>
