<svg width="211" height="50" viewBox="0 0 211 50" fill="none" xmlns="http://www.w3.org/2000/svg">
<path d="M204.583 4.24759H204.907C205.037 4.24759 205.102 4.18338 205.102 4.05495V1.29375H206.075C206.205 1.29375 206.27 1.22954 206.27 1.10111V0.844258C206.27 0.71583 206.205 0.651616 206.075 0.651616H203.415C203.286 0.651616 203.221 0.71583 203.221 0.844258V1.0369C203.221 1.16533 203.286 1.22954 203.415 1.22954H204.388V3.99074C204.388 4.18338 204.453 4.24759 204.583 4.24759ZM210.746 4.05495L210.292 0.780044C210.292 0.651616 210.162 0.587402 210.097 0.587402H210.032C209.902 0.587402 209.837 0.651616 209.773 0.780044L208.67 3.28438L207.567 0.780044C207.502 0.651616 207.437 0.587402 207.308 0.587402H207.243C207.113 0.587402 207.048 0.651616 207.048 0.780044L206.594 4.05495C206.594 4.18338 206.659 4.24759 206.789 4.24759H207.113C207.243 4.24759 207.308 4.18338 207.308 4.05495L207.567 2.06432L208.41 4.05495C208.475 4.18338 208.54 4.24759 208.67 4.24759H208.735C208.864 4.24759 208.929 4.18338 208.994 4.05495L209.837 2.06432L210.097 4.05495C210.097 4.18338 210.162 4.24759 210.292 4.24759H210.551C210.681 4.24759 210.746 4.18338 210.746 4.05495Z" fill="#1B284B"/>
<path d="M84.9628 1.03687C81.7193 1.03687 78.865 2.32114 76.7243 4.24756V3.22014C76.7243 2.06429 76.0108 1.35793 74.8431 1.35793H73.0267C71.8591 1.35793 71.1455 2.06429 71.1455 3.22014V33.1438C71.1455 34.2996 71.8591 35.006 73.0267 35.006H75.881C77.0487 35.006 77.6974 34.2996 77.6974 33.1438V24.0254C79.6435 25.5023 82.1734 26.4655 84.9628 26.4655C92.1634 26.4655 97.2881 20.8147 97.2881 13.7512C97.2881 6.62347 92.0985 1.03687 84.9628 1.03687ZM83.9898 20.8789C80.2922 20.8789 77.3082 18.3104 77.3082 13.7512C77.3082 9.12781 80.3571 6.62347 83.9898 6.62347C88.0766 6.62347 90.8011 9.83416 90.8011 13.7512C90.7363 17.7325 88.0766 20.8789 83.9898 20.8789ZM124.793 1.29372H122.977C121.809 1.29372 121.095 2.00007 121.095 3.15592V4.24756C118.955 2.32114 116.1 1.03687 112.857 1.03687C105.656 1.03687 100.597 6.62347 100.597 13.7512C100.597 20.8789 105.656 26.4655 112.857 26.4655C116.36 26.4655 119.084 24.9886 121.095 22.8696V23.9612C121.095 25.1171 121.809 25.8234 122.977 25.8234H124.793C125.961 25.8234 126.674 25.1171 126.674 23.9612V3.09171C126.674 1.93586 125.961 1.29372 124.793 1.29372ZM113.895 20.8789C109.808 20.8789 107.084 17.7325 107.084 13.7512C107.084 9.76995 109.743 6.62347 113.895 6.62347C117.528 6.62347 120.577 9.19202 120.577 13.7512C120.577 18.2462 117.528 20.8789 113.895 20.8789ZM154.114 1.42215H151.584C150.417 1.42215 149.768 2.1285 149.314 3.28435L143.476 17.8609L137.637 3.28435C137.183 2.1285 136.535 1.42215 135.367 1.42215H132.188C131.021 1.42215 130.307 2.19271 130.826 3.28435L140.297 24.1538L138.61 27.7498C137.702 29.6762 136.729 29.9973 135.561 29.9973C134.978 29.9973 134.329 29.8689 133.875 29.6762C132.642 29.2267 131.994 29.5478 131.734 30.511L131.215 32.3732C130.891 33.4649 131.54 33.9144 132.188 34.2354C133.161 34.7491 134.459 35.006 135.886 35.006C139.259 35.006 142.113 33.6575 144.189 28.8415L155.412 3.28435C155.996 2.19271 155.282 1.42215 154.114 1.42215ZM174.743 1.48636C173.77 1.16529 172.862 1.03687 171.694 1.03687C168.905 1.03687 166.699 2.44957 165.142 4.76127V3.22014C165.142 2.06429 164.429 1.35793 163.261 1.35793H161.38C160.212 1.35793 159.499 2.06429 159.499 3.22014V23.897C159.499 25.0528 160.212 25.7592 161.38 25.7592H164.234C165.402 25.7592 166.05 25.0528 166.05 23.897V12.4669C166.05 8.99938 167.867 6.55926 171.11 6.55926C171.824 6.55926 172.602 6.68768 173.251 6.94454C174.094 7.20139 174.873 7.07297 175.197 5.8529L175.846 3.41278C176.17 2.06429 175.457 1.679 174.743 1.48636ZM190.117 26.4655C197.837 26.4655 203.48 21.0074 203.48 13.7512C203.48 6.49504 197.837 1.03687 190.117 1.03687C182.398 1.03687 176.754 6.49504 176.754 13.7512C176.689 21.0074 182.398 26.4655 190.117 26.4655ZM190.117 20.8789C186.03 20.8789 183.176 17.8609 183.176 13.7512C183.176 9.64152 186.095 6.55926 190.117 6.55926C194.139 6.55926 196.993 9.57731 196.993 13.687C196.993 17.7967 194.074 20.8789 190.117 20.8789Z" fill="#1B284B"/>
<path d="M11.1409 7.07302C12.4383 3.15598 16.1359 0.266357 20.5471 0.266357H37.0889C47.0789 0.266357 55.8364 7.71516 56.4202 17.5399C57.0689 28.2636 48.5061 37.1251 37.8025 37.1251H25.2826C25.2177 37.1251 25.2177 37.1251 25.2177 37.1893L5.17285 25.0529L11.1409 7.07302Z" fill="#653494"/>
<path d="M11.2062 7.00879C10.8819 7.90778 10.6873 9.06363 10.6873 10.0911C10.6873 15.485 15.0984 19.8516 20.5475 19.8516H27.294C28.9158 19.8516 30.0834 21.3927 29.6293 22.9338L23.1423 43.418C21.9098 47.2709 18.3419 49.9036 14.2551 49.9036H10.5575C5.10843 49.9036 0.697266 45.5371 0.697266 40.1431C0.697266 39.1157 0.891876 38.0241 1.21623 37.0609L11.2062 7.00879Z" fill="#B97EB7"/>
</svg>
