<svg width="13" height="18" viewBox="0 0 13 18" fill="none" xmlns="http://www.w3.org/2000/svg">
<path d="M10.7385 6.75146C10.7385 8.71496 9.95378 10.0503 8.33806 10.8348C7.50789 11.2469 6.64202 11.4587 5.76898 11.4666H1.81408V2.04687H5.76898C6.64416 2.04687 7.51274 2.25543 8.35164 2.6668C9.95746 3.45842 10.7385 4.7943 10.7385 6.75146ZM9.16765 1.1308C8.03443 0.582121 6.89094 0.303844 5.76898 0.303844H0.0410156V17.9473H1.81408V13.1975H5.76898C6.8888 13.1975 8.03211 12.9237 9.16687 12.3836C11.418 11.2982 12.5591 9.40383 12.5591 6.75146C12.5591 4.10639 11.418 2.21529 9.16765 1.1308Z" fill="black"/>
</svg>
