<svg width="110" height="27" viewBox="0 0 110 27" fill="none" xmlns="http://www.w3.org/2000/svg">
<path d="M105.981 2.51822H106.15C106.217 2.51822 106.251 2.48486 106.251 2.41814V0.983758H106.756C106.824 0.983758 106.857 0.9504 106.857 0.883684V0.750253C106.857 0.683537 106.824 0.650179 106.756 0.650179H105.375C105.307 0.650179 105.273 0.683537 105.273 0.750253V0.850326C105.273 0.917042 105.307 0.9504 105.375 0.9504H105.88V2.38479C105.88 2.48486 105.914 2.51822 105.981 2.51822ZM109.182 2.41814L108.947 0.716895C108.947 0.650179 108.879 0.616821 108.845 0.616821H108.812C108.744 0.616821 108.711 0.650179 108.677 0.716895L108.104 2.01785L107.531 0.716895C107.498 0.650179 107.464 0.616821 107.396 0.616821H107.363C107.295 0.616821 107.262 0.650179 107.262 0.716895L107.026 2.41814C107.026 2.48486 107.059 2.51822 107.127 2.51822H107.295C107.363 2.51822 107.396 2.48486 107.396 2.41814L107.531 1.38405L107.969 2.41814C108.003 2.48486 108.037 2.51822 108.104 2.51822H108.138C108.205 2.51822 108.239 2.48486 108.273 2.41814L108.711 1.38405L108.845 2.41814C108.845 2.48486 108.879 2.51822 108.947 2.51822H109.081C109.149 2.51822 109.182 2.48486 109.182 2.41814Z" fill="white"/>
<path d="M43.8409 0.850342C42.156 0.850342 40.6732 1.5175 39.5612 2.51823V1.98451C39.5612 1.38407 39.1905 1.01713 38.5839 1.01713H37.6403C37.0338 1.01713 36.6631 1.38407 36.6631 1.98451V17.5293C36.6631 18.1297 37.0338 18.4966 37.6403 18.4966H39.1231C39.7297 18.4966 40.0667 18.1297 40.0667 17.5293V12.7924C41.0776 13.5597 42.3919 14.06 43.8409 14.06C47.5815 14.06 50.2437 11.1246 50.2437 7.45519C50.2437 3.75247 47.5478 0.850342 43.8409 0.850342ZM43.3354 11.1579C41.4146 11.1579 39.8645 9.8236 39.8645 7.45519C39.8645 5.05343 41.4483 3.75247 43.3354 3.75247C45.4585 3.75247 46.8738 5.42037 46.8738 7.45519C46.8401 9.52338 45.4585 11.1579 43.3354 11.1579ZM64.5319 0.983773H63.5884C62.9818 0.983773 62.6111 1.35071 62.6111 1.95115V2.51823C61.4991 1.5175 60.0163 0.850342 58.3314 0.850342C54.5908 0.850342 51.9623 3.75247 51.9623 7.45519C51.9623 11.1579 54.5908 14.06 58.3314 14.06C60.1511 14.06 61.5665 13.2928 62.6111 12.192V12.7591C62.6111 13.3595 62.9818 13.7265 63.5884 13.7265H64.5319C65.1385 13.7265 65.5092 13.3595 65.5092 12.7591V1.91779C65.5092 1.31735 65.1385 0.983773 64.5319 0.983773ZM58.8706 11.1579C56.7475 11.1579 55.3322 9.52338 55.3322 7.45519C55.3322 5.38701 56.7138 3.75247 58.8706 3.75247C60.7577 3.75247 62.3415 5.08679 62.3415 7.45519C62.3415 9.79024 60.7577 11.1579 58.8706 11.1579ZM79.7638 1.05049H78.4495C77.8429 1.05049 77.506 1.41742 77.2701 2.01787L74.2372 9.59009L71.2043 2.01787C70.9684 1.41742 70.6314 1.05049 70.0248 1.05049H68.3736C67.767 1.05049 67.3963 1.45078 67.6659 2.01787L72.5859 12.8592L71.7098 14.7272C71.238 15.7279 70.7325 15.8947 70.1259 15.8947C69.8226 15.8947 69.4857 15.828 69.2498 15.7279C68.6095 15.4944 68.2725 15.6612 68.1377 16.1616L67.8681 17.129C67.6996 17.696 68.0366 17.9296 68.3736 18.0963C68.8791 18.3632 69.5531 18.4966 70.2944 18.4966C72.0468 18.4966 73.5295 17.7961 74.6079 15.2943L80.4377 2.01787C80.741 1.45078 80.3704 1.05049 79.7638 1.05049ZM90.48 1.08385C89.9745 0.917057 89.5027 0.850342 88.8961 0.850342C87.4471 0.850342 86.3013 1.58421 85.4926 2.7851V1.98451C85.4926 1.38407 85.1219 1.01713 84.5153 1.01713H83.538C82.9315 1.01713 82.5608 1.38407 82.5608 1.98451V12.7257C82.5608 13.3262 82.9315 13.6931 83.538 13.6931H85.0208C85.6274 13.6931 85.9643 13.3262 85.9643 12.7257V6.78804C85.9643 4.98671 86.9079 3.71912 88.5928 3.71912C88.9635 3.71912 89.3679 3.78583 89.7049 3.91926C90.143 4.05269 90.5474 3.98598 90.7159 3.35218L91.0529 2.08458C91.2213 1.38407 90.8507 1.18392 90.48 1.08385ZM98.4666 14.06C102.477 14.06 105.409 11.2246 105.409 7.45519C105.409 3.68576 102.477 0.850342 98.4666 0.850342C94.4564 0.850342 91.5246 3.68576 91.5246 7.45519C91.4909 11.2246 94.4564 14.06 98.4666 14.06ZM98.4666 11.1579C96.3436 11.1579 94.8608 9.5901 94.8608 7.45519C94.8608 5.32029 96.3773 3.71912 98.4666 3.71912C100.556 3.71912 102.039 5.28693 102.039 7.42184C102.039 9.55674 100.522 11.1579 98.4666 11.1579Z" fill="white"/>
<path d="M5.49189 3.986C6.16586 1.95118 8.08669 0.450073 10.3782 0.450073H18.9714C24.161 0.450073 28.7103 4.31958 29.0136 9.42333C29.3506 14.9941 24.9024 19.5975 19.3421 19.5975H12.8382C12.8045 19.5975 12.8045 19.5975 12.8045 19.6308L2.3916 13.3262L5.49189 3.986Z" fill="white"/>
<path d="M5.5256 3.95264C5.35711 4.41965 5.25601 5.02009 5.25601 5.55381C5.25601 8.35587 7.54753 10.6242 10.3782 10.6242H13.8829C14.7254 10.6242 15.3319 11.4248 15.096 12.2254L11.7262 22.8665C11.0859 24.868 9.23246 26.2357 7.10944 26.2357H5.18862C2.35792 26.2357 0.0664062 23.9673 0.0664062 21.1653C0.0664062 20.6316 0.167502 20.0645 0.335996 19.5641L5.5256 3.95264Z" fill="white"/>
</svg>
