<svg width="28" height="28" viewBox="0 0 28 28" fill="none" xmlns="http://www.w3.org/2000/svg">
<path d="M21 15.1667H15.1667V21C15.1667 21.6417 14.6417 22.1667 14 22.1667C13.3584 22.1667 12.8334 21.6417 12.8334 21V15.1667H7.00004C6.35837 15.1667 5.83337 14.6417 5.83337 14C5.83337 13.3583 6.35837 12.8333 7.00004 12.8333H12.8334V7.00001C12.8334 6.35834 13.3584 5.83334 14 5.83334C14.6417 5.83334 15.1667 6.35834 15.1667 7.00001V12.8333H21C21.6417 12.8333 22.1667 13.3583 22.1667 14C22.1667 14.6417 21.6417 15.1667 21 15.1667Z" fill="#1A1244"/>
</svg>
