<svg width="294" height="233" viewBox="0 0 294 233" fill="none" xmlns="http://www.w3.org/2000/svg">
<path fill-rule="evenodd" clip-rule="evenodd" d="M66.4326 124.417L71.059 131.031L73.3979 125.575L66.4326 124.417Z" fill="#653494"/>
<path fill-rule="evenodd" clip-rule="evenodd" d="M66.4326 124.417L71.059 131.031L73.3979 125.575L66.4326 124.417Z" stroke="#200849" stroke-width="0.870769" stroke-linecap="round" stroke-linejoin="round"/>
<path fill-rule="evenodd" clip-rule="evenodd" d="M104.37 131.03L104.402 116.369L105.643 115.964C107.038 115.204 107.441 114.148 106.674 112.741L109.484 108.964L104.37 131.03ZM21.5857 185.062C24.4697 189.425 27.4947 187.653 28.9994 182.331C27.9092 182.361 21.5857 185.062 21.5857 185.062Z" fill="#653494"/>
<path fill-rule="evenodd" clip-rule="evenodd" d="M104.069 116.876C105.165 150.364 103.472 182.723 100.239 214.458C99.9184 217.889 96.2002 220.777 91.097 220.931C87.4058 201.796 83.5958 183.397 87.5904 169.45C85.4035 162.799 84.7779 157.847 84.7948 151.67C84.7948 151.67 81.7384 158.483 79.4692 163.542C77.9319 166.968 75.0675 169.622 71.5343 170.894C58.2716 175.668 25.7454 187.376 25.7454 187.376C29.7391 184.714 30.171 178.254 29.8428 170.983C43.2853 162.865 55.6767 157.53 64.9552 157.291C66.362 145.207 69.6121 134.118 73.406 125.576L90.1109 128.578L93.6976 117.869L104.069 116.876Z" fill="#E3E1FF"/>
<path fill-rule="evenodd" clip-rule="evenodd" d="M123.626 74.0889C124.858 74.7202 125.936 75.6101 126.788 76.6868C125.828 78.6447 125.231 79.7371 124.347 82.9132C122.502 80.2426 119.859 78.9486 116.694 78.215L117.497 74.2717C117.497 74.2717 117.518 74.4407 118.12 74.6605C120.573 75.5561 122.425 75.2805 123.626 74.0889Z" fill="#200849"/>
<path fill-rule="evenodd" clip-rule="evenodd" d="M145.817 82.0754C148.903 85.2437 156.13 84.5788 157.014 78.9902L157.579 104.856C157.579 104.856 154.581 104.539 153.152 104.856L145.817 82.0754Z" fill="#653494"/>
<path fill-rule="evenodd" clip-rule="evenodd" d="M146.578 186.993C140.199 186.026 135.302 180.512 135.302 173.864C135.302 166.534 141.253 160.584 148.582 160.584C155.911 160.584 161.862 166.534 161.862 173.864C161.862 177.375 160.496 180.57 158.267 182.946C157.194 182.548 156.049 182.338 154.882 182.338C152.3 182.338 149.824 183.364 147.998 185.19C147.451 185.737 146.975 186.343 146.578 186.993Z" fill="#F2F4FF"/>
<path fill-rule="evenodd" clip-rule="evenodd" d="M146.578 186.993C140.199 186.026 135.302 180.512 135.302 173.864C135.302 166.534 141.253 160.584 148.582 160.584C155.911 160.584 161.862 166.534 161.862 173.864C161.862 177.375 160.496 180.57 158.267 182.946C157.194 182.548 156.049 182.338 154.882 182.338C152.3 182.338 149.824 183.364 147.998 185.19C147.451 185.737 146.975 186.343 146.578 186.993Z" stroke="#653494" stroke-width="0.870769" stroke-linecap="round" stroke-linejoin="round"/>
<path fill-rule="evenodd" clip-rule="evenodd" d="M38.0398 200.601C39.1226 200.369 40.245 200.247 41.3957 200.247C50.1983 200.247 57.3456 207.394 57.3456 216.197C57.3456 218.749 56.7448 221.162 55.6772 223.301C47.7328 217.716 41.5272 209.823 38.0398 200.601ZM184.088 219.483C176.79 219.445 170.878 213.509 170.878 206.203C170.878 198.874 176.828 192.924 184.157 192.924C188.24 192.924 191.895 194.77 194.332 197.672C194.163 197.663 193.993 197.659 193.823 197.659C191.241 197.659 188.765 198.684 186.939 200.51C185.114 202.336 184.088 204.812 184.088 207.394V219.483Z" fill="#653494"/>
<path fill-rule="evenodd" clip-rule="evenodd" d="M135.412 232.554C137.994 232.554 140.47 231.528 142.296 229.703C144.121 227.877 145.147 225.401 145.147 222.819V192.073C145.147 189.491 146.173 187.015 147.998 185.19C149.824 183.364 152.3 182.338 154.882 182.338C157.465 182.338 159.941 183.364 161.766 185.19C163.592 187.015 164.617 189.491 164.617 192.073V222.819C164.617 225.401 165.643 227.877 167.469 229.703C169.295 231.528 171.771 232.554 174.353 232.554C176.935 232.554 132.83 232.554 135.412 232.554Z" fill="#E3E1FF"/>
<path fill-rule="evenodd" clip-rule="evenodd" d="M174.337 232.554C176.919 232.554 179.395 231.528 181.221 229.702C183.047 227.877 184.072 225.401 184.072 222.819V207.576C184.072 204.994 185.098 202.518 186.924 200.692C188.749 198.867 191.225 197.841 193.807 197.841H193.808C196.39 197.841 198.866 198.867 200.691 200.692C202.517 202.518 203.543 204.994 203.543 207.576V222.819C203.543 225.401 204.568 227.877 206.394 229.702C208.22 231.528 210.696 232.554 213.278 232.554C215.86 232.554 171.755 232.554 174.337 232.554Z" fill="#E3E1FF"/>
<path d="M191.633 182.226V108.839H161.149" stroke="#200849" stroke-width="0.870769" stroke-linecap="round" stroke-linejoin="round"/>
<path d="M152.773 108.839H125.677V222.412C125.677 224.993 126.702 227.47 128.528 229.295C130.354 231.121 132.83 232.147 135.412 232.147C137.994 232.147 140.47 231.121 142.296 229.295C144.121 227.47 145.147 224.993 145.147 222.412V192.073C145.147 189.491 146.173 187.015 147.998 185.19C149.824 183.364 152.3 182.338 154.882 182.338C157.464 182.338 159.94 183.364 161.766 185.19C163.592 187.015 164.617 189.491 164.617 192.073V222.412C164.617 224.993 165.643 227.47 167.469 229.295C169.295 231.121 171.771 232.147 174.353 232.147C176.935 232.147 179.411 231.121 181.236 229.295C183.062 227.47 184.088 224.993 184.088 222.412C184.088 217.306 184.088 212.5 184.088 207.394C184.088 204.812 185.113 202.336 186.939 200.51C188.765 198.684 191.241 197.659 193.823 197.659C196.405 197.659 198.881 198.684 200.707 200.51C202.533 202.336 203.558 204.812 203.558 207.394C203.558 212.092 203.994 217.714 203.994 222.412C203.994 224.993 205.019 227.47 206.845 229.295C208.671 231.121 211.147 232.147 213.729 232.147H213.729C216.311 232.147 269.925 232.147 269.925 232.147" stroke="#200849" stroke-width="0.870769" stroke-linecap="round" stroke-linejoin="round"/>
<path d="M194.046 197.659H249.837C252.419 197.659 254.475 198.685 256.301 200.511C258.126 202.336 259.152 204.812 259.152 207.394V222.412C259.152 224.994 260.178 227.47 262.003 229.296C263.829 231.121 266.305 232.147 268.887 232.147C270.029 232.147 281.239 232.147 293.388 232.147M154.591 182.342L210.49 182.227C213.072 182.227 215.128 183.252 216.954 185.078C218.779 186.904 219.805 189.38 219.805 191.962V196.966" stroke="#200849" stroke-width="0.870769" stroke-linecap="round" stroke-linejoin="round"/>
<path d="M293.388 232.146H3.84058" stroke="#200849" stroke-width="0.870769" stroke-linecap="round" stroke-linejoin="round"/>
<path d="M125.71 208.125C120.666 216.665 113.093 223.537 104.026 227.708M41.3956 200.247C50.1982 200.247 57.3455 207.394 57.3455 216.197C57.3455 225 50.1982 232.147 41.3956 232.147C32.5926 232.147 25.4453 225 25.4453 216.197C25.4453 207.394 32.5926 200.247 41.3956 200.247Z" stroke="#653494" stroke-width="0.870769" stroke-linecap="round" stroke-linejoin="round"/>
<path d="M104.402 139.204C113.127 143.309 120.442 149.924 125.413 158.116M97.0057 230.301C92.7699 231.503 88.3002 232.147 83.6816 232.147C56.7601 232.147 34.9033 210.29 34.9033 183.369C34.9033 161.529 49.288 143.022 69.0919 136.813L97.0057 230.301Z" stroke="#653494" stroke-width="0.870769" stroke-linecap="round" stroke-linejoin="round"/>
<path fill-rule="evenodd" clip-rule="evenodd" d="M148.582 124.322C155.911 124.322 161.862 130.273 161.862 137.602C161.862 144.931 155.911 150.882 148.582 150.882C141.253 150.882 135.302 144.931 135.302 137.602C135.302 130.273 141.253 124.322 148.582 124.322Z" fill="#F2F4FF"/>
<path fill-rule="evenodd" clip-rule="evenodd" d="M148.582 124.322C155.911 124.322 161.862 130.273 161.862 137.602C161.862 144.931 155.911 150.882 148.582 150.882C141.253 150.882 135.302 144.931 135.302 137.602C135.302 130.273 141.253 124.322 148.582 124.322Z" stroke="#653494" stroke-width="0.870769" stroke-linecap="round" stroke-linejoin="round"/>
<path d="M142.119 128.767C142.819 146.354 152.602 146.049 153.65 136.406" stroke="#653494" stroke-width="0.870769" stroke-linecap="round" stroke-linejoin="round"/>
<path fill-rule="evenodd" clip-rule="evenodd" d="M139.111 128.298C141.521 125.845 144.875 124.322 148.582 124.322C151.876 124.322 154.891 125.524 157.213 127.512C157.288 127.77 157.352 128.032 157.406 128.299C157.979 131.052 158.475 133.809 158.893 136.571L153.618 136.669C153.629 136.582 142.742 128.766 142.742 128.766C142.874 132.08 142.705 134.759 143.363 136.86L137.813 136.963C138.193 134.209 138.593 131.45 139.042 128.684C139.062 128.554 139.085 128.426 139.111 128.298Z" fill="#653494"/>
<path d="M144.613 139.812V145.184" stroke="#653494" stroke-width="0.870769" stroke-linecap="round" stroke-linejoin="round"/>
<path d="M152.727 143.421C154.869 143.842 156.616 144.577 158.893 145.655M138.025 145.655C140.22 144.524 142.271 143.727 144.613 143.313L138.025 145.655Z" stroke="#653494" stroke-width="0.870769" stroke-linecap="round" stroke-linejoin="round"/>
<path d="M140.554 144.538C146.054 148.911 151.057 149.304 156.039 144.538" stroke="#653494" stroke-width="0.870769" stroke-linecap="round" stroke-linejoin="round"/>
<path fill-rule="evenodd" clip-rule="evenodd" d="M236.783 212.271C242.268 212.271 246.721 216.724 246.721 222.209C246.721 227.693 242.268 232.147 236.783 232.147C231.299 232.147 226.845 227.693 226.845 222.209C226.845 216.724 231.299 212.271 236.783 212.271Z" stroke="#200849" stroke-width="0.870769" stroke-linecap="round" stroke-linejoin="round"/>
<path d="M236.671 232.146C236.671 232.146 239.373 232.147 233.888 232.147C228.403 232.147 223.95 227.693 223.95 222.209C223.95 216.724 228.403 212.271 233.888 212.271H236.671" stroke="#200849" stroke-width="0.870769" stroke-linecap="round" stroke-linejoin="round"/>
<path d="M233.062 225.537C233.599 226.652 234.635 227.675 236.899 227.675C239.009 227.675 240.505 226.637 240.505 224.987C240.505 221.292 233.657 222.223 233.657 219.001C233.657 217.764 234.827 216.741 236.841 216.741C238.74 216.741 239.603 217.673 239.968 218.284" stroke="#200849" stroke-width="0.870769" stroke-linecap="round" stroke-linejoin="round"/>
<path d="M236.161 215.914V228.502" stroke="#200849" stroke-width="0.870769" stroke-linecap="round" stroke-linejoin="round"/>
<path d="M237.406 215.914V228.502" stroke="#200849" stroke-width="0.870769" stroke-linecap="round" stroke-linejoin="round"/>
<path d="M167.714 171.032H183.342" stroke="#653494" stroke-width="0.870769" stroke-linecap="round" stroke-linejoin="round"/>
<path d="M167.714 176.544H176.717" stroke="#653494" stroke-width="0.870769" stroke-linecap="round" stroke-linejoin="round"/>
<path d="M167.714 134.847H183.342" stroke="#653494" stroke-width="0.870769" stroke-linecap="round" stroke-linejoin="round"/>
<path d="M167.714 140.358H176.717" stroke="#653494" stroke-width="0.870769" stroke-linecap="round" stroke-linejoin="round"/>
<path fill-rule="evenodd" clip-rule="evenodd" d="M147.809 37.1844L139.798 30.1416L137.766 32.4522L145.144 39.9156L147.809 37.1844Z" fill="#E3E1FF"/>
<path fill-rule="evenodd" clip-rule="evenodd" d="M131.783 117.997L123.772 110.954L121.741 113.265L129.118 120.728L131.783 117.997Z" fill="#E3E1FF"/>
<path fill-rule="evenodd" clip-rule="evenodd" d="M185.539 33.5681C185.501 29.1197 187.354 25.4982 190.679 22.5206L187.468 21.0264C184.171 23.9448 182.196 27.4239 181.656 31.5122L185.539 33.5681ZM189.515 128.305C190.76 124.034 193.578 121.1 197.619 119.206L194.974 116.851C190.976 118.696 188.083 121.459 186.389 125.218L189.515 128.305Z" fill="#E3E1FF"/>
<path fill-rule="evenodd" clip-rule="evenodd" d="M76.9928 94.9444C73.7383 94.6339 71.6053 92.8145 70.3462 89.8203L68.3748 92.3773C69.5986 95.344 71.594 97.2541 74.4275 98.0164L76.9928 94.9444ZM110.032 173.007C110.766 169.821 112.849 167.945 115.983 167.089L113.707 164.8C110.605 165.624 108.45 167.352 107.323 170.062L110.032 173.007Z" fill="#F2F4FF"/>
<path fill-rule="evenodd" clip-rule="evenodd" d="M114.348 133.334C112.434 133.152 111.179 132.082 110.438 130.32L109.279 131.825C109.999 133.57 111.173 134.693 112.839 135.141L114.348 133.334Z" fill="#E3E1FF"/>
<path fill-rule="evenodd" clip-rule="evenodd" d="M125.166 20.8789C121.779 23.7638 117.813 24.6689 113.396 24.0324L114.313 27.4537C118.667 28.1072 122.602 27.3866 126.083 25.1753L125.166 20.8789Z" fill="#F2F4FF"/>
<path fill-rule="evenodd" clip-rule="evenodd" d="M211.782 115.708C210.67 118.181 208.723 119.715 206.124 120.518L207.522 122.163C210.091 121.385 212.069 119.961 213.409 117.834L211.782 115.708Z" fill="#E3E1FF"/>
<path fill-rule="evenodd" clip-rule="evenodd" d="M190.543 42.0928L184.213 46.6086L185.688 49.0585L193.365 43.961L190.543 42.0928Z" fill="#E3E1FF"/>
<path fill-rule="evenodd" clip-rule="evenodd" d="M91.6738 47.155L100.574 47.2882L100.989 43.5922L91.9734 41.6865L91.6738 47.155Z" fill="#E3E1FF"/>
<path fill-rule="evenodd" clip-rule="evenodd" d="M39.1013 75.3767L43.6241 83.0429L45.6887 82.3428L42.6197 73.6543L39.1013 75.3767Z" fill="#E3E1FF"/>
<path fill-rule="evenodd" clip-rule="evenodd" d="M138.577 0.798828L138.754 9.69765L141.156 9.98414L141.876 0.90811L138.577 0.798828Z" fill="#E3E1FF"/>
<path fill-rule="evenodd" clip-rule="evenodd" d="M212.622 45.614L215.206 54.1314L218.852 53.4009L217.922 44.2334L212.622 45.614Z" fill="#F2F4FF"/>
<path d="M157.077 108.487C157.077 108.487 157.76 111.735 157.915 112.47C157.935 112.567 157.947 112.667 157.95 112.766C157.968 113.358 158.034 115.566 158.071 116.82C158.077 116.987 157.986 117.142 157.839 117.221C157.692 117.3 157.513 117.288 157.377 117.191C157.377 117.191 157.377 117.19 157.376 117.19C157.073 116.973 156.872 116.643 156.819 116.274C156.706 115.489 156.519 114.183 156.519 114.183L155.689 110.704M155.779 109.552C155.779 109.552 155.451 111.804 155.362 112.411C155.348 112.51 155.325 112.607 155.293 112.703C155.104 113.265 154.403 115.358 154.004 116.547C153.951 116.706 153.813 116.82 153.647 116.843C153.482 116.866 153.318 116.793 153.224 116.655C153.224 116.655 153.224 116.654 153.224 116.654C153.014 116.346 152.94 115.966 153.018 115.602C153.184 114.827 153.46 113.536 153.46 113.536L152.773 108.838L155.779 109.552ZM158.806 108.283C158.806 108.283 159.262 110.954 159.373 111.606C159.39 111.701 159.398 111.798 159.397 111.894C159.396 112.444 159.391 114.435 159.388 115.615C159.388 115.782 159.293 115.934 159.142 116.006C158.992 116.079 158.814 116.059 158.683 115.956C158.396 115.728 158.214 115.393 158.179 115.029C158.105 114.241 157.98 112.917 157.98 112.917L158.806 108.283Z" stroke="#200849" stroke-width="0.870769" stroke-linecap="round" stroke-linejoin="round"/>
<path d="M131.161 105.586C131.161 105.586 147.463 105.078 155.528 104.858C157.739 104.808 159.768 106.073 160.697 108.08H160.698L161.149 111.573L160.457 114.531L159.933 115.48" stroke="#200849" stroke-width="0.870769" stroke-linecap="round" stroke-linejoin="round"/>
<path d="M159.397 106.342C160.563 106.582 162.335 106.828 163.311 106.727C163.479 106.698 163.649 106.762 163.757 106.894C163.776 106.915 163.794 106.937 163.812 106.959C163.948 107.125 163.955 107.361 163.831 107.535C163.202 108.281 161.989 108.455 161.002 108.486" stroke="#200849" stroke-width="0.870769" stroke-linecap="round" stroke-linejoin="round"/>
<path d="M164.872 85.1035L166.289 104.353" stroke="#200849" stroke-width="0.870769" stroke-linecap="round" stroke-linejoin="round"/>
<path d="M137.807 86.8613L135.284 104.856" stroke="#200849" stroke-width="0.870769" stroke-linecap="round" stroke-linejoin="round"/>
<path d="M153.152 104.856C153.152 104.856 148.2 89.4765 143.69 75.4671C142.559 71.954 139.335 69.5358 135.645 69.4331C131.956 69.3303 128.602 71.5656 127.278 75.0108C122.556 87.3418 118.455 99.8308 115.215 112.541C114.678 114.703 115.269 116.989 116.785 118.621C118.301 120.252 120.538 121.009 122.733 120.633C124.439 120.347 125.677 120.135 125.677 120.135" stroke="#200849" stroke-width="0.870769" stroke-linecap="round" stroke-linejoin="round"/>
<path d="M125.677 122.163L119.274 136.392L125.677 140.995" stroke="#200849" stroke-width="0.870769" stroke-linecap="round" stroke-linejoin="round"/>
<path d="M164.836 75.543L178.944 98.8844" stroke="#200849" stroke-width="0.870769" stroke-linecap="round" stroke-linejoin="round"/>
<path d="M156.966 72.0467C160.166 71.495 164.429 72.5687 164.67 74.5149C164.822 75.7339 164.529 78.4629 164.488 79.6167C164.484 79.7264 164.422 79.8261 164.324 79.8779C164.227 79.9293 164.11 79.925 164.016 79.8666C163.868 79.7735 163.741 79.6938 163.741 79.6938" stroke="#200849" stroke-width="0.870769" stroke-linecap="round" stroke-linejoin="round"/>
<path d="M161.694 75.7672C161.694 75.7672 161.97 78.3808 162.041 79.0552C162.052 79.1601 162.053 79.2655 162.045 79.3704C161.995 79.9673 161.817 82.1151 161.716 83.3407C161.702 83.5048 161.597 83.6472 161.443 83.7081C161.29 83.7691 161.116 83.7377 160.993 83.6272C160.993 83.6272 160.993 83.6272 160.992 83.6267C160.721 83.382 160.561 83.0372 160.55 82.6715C160.527 81.8913 160.487 80.589 160.487 80.589L159.754 76.2156M163.379 75.0645C163.379 75.0645 163.53 77.7247 163.567 78.3795C163.572 78.4757 163.57 78.5719 163.559 78.6673C163.496 79.2084 163.272 81.1516 163.139 82.3062C163.12 82.4699 163.01 82.6084 162.854 82.6628C162.699 82.7172 162.526 82.6785 162.409 82.5622C162.154 82.3088 162.013 81.9627 162.019 81.6031C162.034 80.8237 162.058 79.5102 162.058 79.5102L163.379 75.0645Z" stroke="#200849" stroke-width="0.870769" stroke-linecap="round" stroke-linejoin="round"/>
<path d="M160.142 78.0336C160.142 78.0336 160.064 80.7361 160.022 82.1737C160.018 82.3387 159.92 82.4863 159.77 82.5556C159.62 82.6243 159.444 82.6026 159.316 82.499C159.316 82.4985 159.316 82.4985 159.315 82.4985C159.031 82.2686 158.853 81.9325 158.822 81.5681C158.757 80.7901 158.648 79.4918 158.648 79.4918L156.84 75.7666" stroke="#200849" stroke-width="0.870769" stroke-linecap="round" stroke-linejoin="round"/>
<path d="M156.656 68.542L157.579 104.856" stroke="#200849" stroke-width="0.870769" stroke-linecap="round" stroke-linejoin="round"/>
<path d="M153.904 67.7402C165.037 70.1705 163.905 60.8433 152.97 50.7275" stroke="#200849" stroke-width="0.870769" stroke-linecap="round" stroke-linejoin="round"/>
<path fill-rule="evenodd" clip-rule="evenodd" d="M143.059 71.3684C143.728 66.9283 148.935 65.9923 147.863 62.5227C147.863 62.5227 145.894 62.3838 144.395 62.2784C143.473 62.2136 142.773 61.4203 142.824 60.4968C142.824 60.4968 142.824 60.4964 142.824 60.496C142.85 60.0297 143.064 59.5943 143.418 59.2891C143.772 58.9843 144.234 58.8363 144.699 58.8794C146.48 59.0444 148.962 59.2738 148.962 59.2738L152.584 62.3895L151.423 56.6742C153.799 54.526 156.464 48.1241 155.981 44.8008C155.979 44.7999 155.068 45.3494 153.501 46.0299C148.011 48.4136 143.024 46.5663 139.101 51.0873C135.179 55.6079 135.098 62.3011 138.91 66.9157C140.256 68.5175 141.63 70.0148 143.059 71.3684Z" fill="#200849"/>
<path d="M124.26 62.5792L127.308 65.084C126.833 66.1097 125.882 66.5543 125.34 66.7119M156.785 54.6387L161.289 55.7972C161.332 57.251 160.569 58.3595 159.948 58.5432L156.785 54.6387Z" stroke="#200849" stroke-width="0.870769" stroke-linecap="round" stroke-linejoin="round"/>
<path d="M144.979 60.7148L147.64 60.8794" stroke="#200849" stroke-width="0.870769" stroke-linecap="round" stroke-linejoin="round"/>
<path d="M112.437 63.4414L114.532 64.2112" stroke="#200849" stroke-width="0.870769" stroke-linecap="round" stroke-linejoin="round"/>
<path d="M143.254 68.0898L143.379 74.6472" stroke="#200849" stroke-width="0.870769" stroke-linecap="round" stroke-linejoin="round"/>
<path d="M176.427 102.197L191.317 82.6025" stroke="#200849" stroke-width="0.870769" stroke-linecap="round" stroke-linejoin="round"/>
<path d="M191.317 82.6025C192.198 91.133 206.925 95.1151 198.711 85.3742" stroke="#200849" stroke-width="0.870769" stroke-linecap="round" stroke-linejoin="round"/>
<path d="M192.814 82.1156C192.814 82.1156 193.541 81.3337 194.231 80.5909C195.006 79.7571 196.1 79.293 197.238 79.3152C199.566 79.3605 203.338 79.4341 203.338 79.4341L205.556 79.94C205.556 79.94 206.573 79.8264 207.514 79.7214C207.793 79.6901 208.065 79.825 208.209 80.0667C208.353 80.3079 208.342 80.6114 208.181 80.8417C208.135 80.9079 208.107 80.9488 208.104 80.9523C208.104 80.9523 208.104 80.9523 208.103 80.9523C208.076 80.9614 205.961 81.665 205.961 81.665C205.961 81.665 204.74 81.6119 203.854 81.574C203.271 81.5487 202.696 81.7181 202.219 82.0551C201.489 82.571 200.403 83.339 199.857 83.7248C199.635 83.8824 199.377 83.9825 199.106 84.0161C198.598 84.0801 197.8 84.1798 197.8 84.1798M200.789 90.785C198.906 95.9817 194.294 103.739 190.657 108.838L200.789 90.785Z" stroke="#200849" stroke-width="0.870769" stroke-linecap="round" stroke-linejoin="round"/>
<path d="M202.311 79.4141C202.311 79.4141 207.939 79.4911 210.608 79.5273C210.878 79.5312 211.124 79.6836 211.247 79.9239C211.371 80.1638 211.352 80.4525 211.197 80.6741C211.197 80.6745 211.197 80.6745 211.197 80.6749C211.076 80.8491 210.877 80.9545 210.665 80.9579C209.872 80.9706 207.957 81.001 207.957 81.001" stroke="#200849" stroke-width="0.870769" stroke-linecap="round" stroke-linejoin="round"/>
<path d="M199.306 83.9883L196.255 89.4389" stroke="#200849" stroke-width="0.870769" stroke-linecap="round" stroke-linejoin="round"/>
<path fill-rule="evenodd" clip-rule="evenodd" d="M225.106 77.8839C225.106 77.5047 224.956 77.1411 224.687 76.8729C224.419 76.6047 224.056 76.4541 223.676 76.4541C216.271 76.4541 182.341 76.4541 174.936 76.4541C174.557 76.4541 174.193 76.6047 173.925 76.8729C173.657 77.1411 173.506 77.5047 173.506 77.8839C173.506 77.8843 173.506 77.8843 173.506 77.8848C173.506 78.264 173.657 78.6275 173.925 78.8957C174.193 79.1639 174.557 79.3146 174.936 79.3146C182.341 79.3146 216.271 79.3146 223.676 79.3146C224.056 79.3146 224.419 79.1639 224.687 78.8957C224.956 78.6275 225.106 78.264 225.106 77.8848C225.106 77.8843 225.106 77.8843 225.106 77.8839Z" stroke="#200849" stroke-width="0.870769" stroke-linecap="round" stroke-linejoin="round"/>
<path d="M202.589 76.4541C202.21 76.4541 201.847 76.6047 201.579 76.8729C201.31 77.1411 201.16 77.5047 201.16 77.8839C201.16 77.8843 201.16 77.8843 201.16 77.8848C201.16 78.264 201.31 78.6275 201.579 78.8957C201.847 79.1639 202.21 79.3146 202.589 79.3146" stroke="#200849" stroke-width="0.870769" stroke-linecap="round" stroke-linejoin="round"/>
<path d="M221.231 77.8848H222.661" stroke="#200849" stroke-width="0.870769" stroke-linecap="round" stroke-linejoin="round"/>
<path d="M217.865 77.8848H219.567" stroke="#200849" stroke-width="0.870769" stroke-linecap="round" stroke-linejoin="round"/>
<path fill-rule="evenodd" clip-rule="evenodd" d="M235.447 55.4436C235.667 55.0392 235.658 54.548 235.423 54.1518C235.187 53.7556 234.761 53.5127 234.3 53.5127C228.665 53.5127 213.811 53.5127 208.967 53.5127C208.011 53.5127 207.131 54.0356 206.673 54.8755C203.986 59.8101 194.919 76.4549 194.919 76.4549H224.002C224.002 76.4549 232.437 60.9704 235.447 55.4436Z" stroke="#200849" stroke-width="0.870769" stroke-linecap="round" stroke-linejoin="round"/>
<path fill-rule="evenodd" clip-rule="evenodd" d="M219.126 58.4844C223.619 58.4844 225.52 61.6379 223.369 65.5224C221.218 69.4064 215.823 72.5599 211.33 72.5599C206.837 72.5599 204.936 69.4064 207.087 65.5224C209.239 61.6379 214.633 58.4844 219.126 58.4844Z" fill="#653494"/>
<path fill-rule="evenodd" clip-rule="evenodd" d="M212.69 68.6115L220.521 64.0339L219.694 62.6611L213.625 66.2091L212.589 64.4924L210.828 65.522L212.69 68.6115Z" fill="white"/>
<path d="M122.167 56.8799C127.544 68.9718 125.718 77.4344 118.12 74.6606" stroke="#200849" stroke-width="0.870769" stroke-linecap="round" stroke-linejoin="round"/>
<path d="M118.12 71.4629L104.402 131.033" stroke="#200849" stroke-width="0.870769" stroke-linecap="round" stroke-linejoin="round"/>
<path d="M106.817 112.779L100.239 110.855" stroke="#200849" stroke-width="0.870769" stroke-linecap="round" stroke-linejoin="round"/>
<path d="M113.703 58.9707L116.04 59.7143" stroke="#200849" stroke-width="0.870769" stroke-linecap="round" stroke-linejoin="round"/>
<path fill-rule="evenodd" clip-rule="evenodd" d="M107.491 76.6868C99.9635 73.3003 96.9184 60.847 105.135 53.4246C107.233 51.5289 111.219 50.5441 114.046 50.5314C116.874 50.5188 119.59 51.6343 121.592 53.6305C122.976 55.0098 123.992 56.023 123.992 56.023C121.711 61.2132 117.091 59.1573 116.024 62.7061C116.024 62.7061 114.255 62.1436 112.836 61.6921C112.373 61.5449 111.872 61.5876 111.441 61.8105C111.01 62.0335 110.685 62.4183 110.538 62.8807C110.538 62.8811 110.538 62.8816 110.538 62.882C110.232 63.8447 110.764 64.873 111.726 65.1795C113.176 65.6402 115.002 66.221 115.002 66.221C113.67 71.0333 109.603 69.4354 108.533 73.0979L107.491 76.6868Z" fill="#653494"/>
<path fill-rule="evenodd" clip-rule="evenodd" d="M106.2 75.9979C106.526 75.9269 106.864 76.0358 107.086 76.2831C107.308 76.5308 107.38 76.8783 107.275 77.1939C104.364 85.9099 90.1108 128.578 90.1108 128.578L100.416 77.2627C100.416 77.2627 104.033 76.472 106.2 75.9979Z" stroke="#200849" stroke-width="0.870769" stroke-linecap="round" stroke-linejoin="round"/>
<path d="M109.849 108.75L119.555 96.2627" stroke="#200849" stroke-width="0.870769" stroke-linecap="round" stroke-linejoin="round"/>
<path d="M104.069 116.876C105.165 150.364 103.472 182.723 100.239 214.458C99.9183 217.889 96.2001 220.777 91.097 220.931C87.4058 201.796 83.5957 183.397 87.5904 169.45C85.4034 162.799 84.7778 157.847 84.7948 151.67" stroke="#653494" stroke-width="0.870769" stroke-linecap="round" stroke-linejoin="round"/>
<path d="M100.239 117.243C100.239 117.243 85.3987 150.325 79.4692 163.542C77.9319 166.969 75.0675 169.623 71.5343 170.894C58.2716 175.668 25.7454 187.377 25.7454 187.377" stroke="#653494" stroke-width="0.870769" stroke-linecap="round" stroke-linejoin="round"/>
<path d="M29.8428 170.983C43.2853 162.866 55.6767 157.53 64.9552 157.291C66.362 145.208 69.3539 134.075 73.1474 125.533M21.5857 185.062C26.0305 191.787 30.8111 183.938 29.8428 170.983L21.5857 185.062Z" stroke="#653494" stroke-width="0.870769" stroke-linecap="round" stroke-linejoin="round"/>
<path d="M90.111 128.578L66.4326 124.323L86.1024 99.9746" stroke="#200849" stroke-width="0.870769" stroke-linecap="round" stroke-linejoin="round"/>
<path d="M29.7017 171.152L22.1164 175.76C20.4136 174.986 18.6612 174.382 16.6519 174.669C15.9553 174.767 15.3318 175.153 14.9347 175.734C13.4409 177.89 9.40519 183.787 9.40519 183.787C9.40519 183.787 4.06963 188.879 1.80115 191.044C1.2409 191.578 1.2001 192.459 1.70863 193.043C1.70885 193.044 1.70911 193.044 1.70937 193.044C2.11937 193.515 2.79718 193.647 3.35382 193.364C5.74038 192.151 11.8124 189.063 11.8124 189.063L15.93 187.376L28.5675 182.206M100.416 77.5904L88.4573 60.3536L84.7944 40.3555L73.9829 46.9472C75.8429 63.5384 79.2707 78.4747 87.4389 88.4067L85.7035 107.846L100.416 77.5904Z" stroke="#200849" stroke-width="0.870769" stroke-linecap="round" stroke-linejoin="round"/>
<path d="M21.0135 175.293C17.8905 178.824 16.4564 182.355 19.5707 185.887" stroke="#200849" stroke-width="0.870769" stroke-linecap="round" stroke-linejoin="round"/>
<path fill-rule="evenodd" clip-rule="evenodd" d="M92.1688 224.996C91.9628 224.821 91.702 224.726 91.4321 224.726C91.406 224.726 91.379 224.726 91.3511 224.726C90.8739 224.726 90.4473 225.023 90.2827 225.471C90.1181 225.919 90.2509 226.422 90.6144 226.731C93.205 228.932 96.9998 232.154 96.9998 232.154H100.597C100.597 232.154 93.7414 226.332 92.1688 224.996Z" fill="#200849"/>
<path fill-rule="evenodd" clip-rule="evenodd" d="M92.1688 224.996C91.9628 224.821 91.702 224.726 91.4321 224.726C91.406 224.726 91.379 224.726 91.3511 224.726C90.8739 224.726 90.4473 225.023 90.2827 225.471C90.1181 225.919 90.2509 226.422 90.6144 226.731C93.205 228.932 96.9998 232.154 96.9998 232.154H100.597C100.597 232.154 93.7414 226.332 92.1688 224.996Z" stroke="#200849" stroke-width="0.870769" stroke-linecap="round" stroke-linejoin="round"/>
<path d="M90.2131 225.592C90.2327 224.289 91.3795 222.733 92.785 222.006C92.785 222.006 94.0162 222.841 95.2174 223.655C96.3338 224.411 97.8237 224.3 98.8155 223.387C99.3836 222.836 100.097 222.455 100.99 222.382C100.99 222.382 102.709 225.462 103.695 227.229C104.126 228.001 104.857 228.56 105.715 228.775C106.638 229.005 107.851 229.308 108.725 229.527C109.453 229.708 110.092 230.145 110.527 230.757C110.527 230.758 110.527 230.758 110.527 230.758C110.718 231.027 110.743 231.381 110.592 231.675C110.44 231.969 110.137 232.153 109.806 232.153C106.733 232.153 100.597 232.153 100.597 232.153" stroke="#200849" stroke-width="0.870769" stroke-linecap="round" stroke-linejoin="round"/>
<path d="M99.7629 216.212L99.8226 222.686" stroke="#200849" stroke-width="0.870769" stroke-linecap="round" stroke-linejoin="round"/>
<path d="M147.531 177.566C153.487 182.779 156.569 177.901 155.116 166.421" stroke="#653494" stroke-width="0.870769" stroke-linecap="round" stroke-linejoin="round"/>
<path fill-rule="evenodd" clip-rule="evenodd" d="M140.59 163.26C142.815 161.581 145.583 160.584 148.582 160.584C150.417 160.584 152.165 160.957 153.754 161.631C153.85 161.752 153.943 161.877 154.033 162.006C155.199 163.662 156.038 165.135 156.402 166.325C155.397 168.328 151.859 169.798 149.973 169.928L148.395 173.516L147.881 170.264C147.881 170.264 146.994 169.256 146.262 168.425C146.027 168.158 145.686 168.01 145.331 168.022C144.976 168.033 144.645 168.202 144.428 168.483C144.428 168.483 144.428 168.484 144.428 168.484C144.073 168.941 144.101 169.588 144.493 170.014C145.148 170.725 146.041 171.696 146.041 171.696C145.251 174.033 144.541 174.175 142.593 176.282C142.4 174.625 141.556 172.103 140.373 169.092C139.661 167.129 139.787 165.047 140.59 163.26Z" fill="#653494"/>
<path d="M155.465 170.658L157.314 173.56C156.731 174.464 155.875 174.765 155.478 174.573" stroke="#653494" stroke-width="0.870769" stroke-linecap="round" stroke-linejoin="round"/>
<path d="M145.385 169.334L146.479 170.47" stroke="#653494" stroke-width="0.870769" stroke-linecap="round" stroke-linejoin="round"/>
<path d="M142.593 173.035V180.539L139.117 183.187" stroke="#653494" stroke-width="0.870769" stroke-linecap="round" stroke-linejoin="round"/>
<path d="M150.847 179.537L150.907 183.187" stroke="#653494" stroke-width="0.870769" stroke-linecap="round" stroke-linejoin="round"/>
<path d="M142.593 180.538C143.776 183.017 145.51 184.721 148.395 184.814" stroke="#653494" stroke-width="0.870769" stroke-linecap="round" stroke-linejoin="round"/>
<path d="M77.7656 44.2622L78.4613 36.7884C77.2627 35.1356 76.5121 33.1329 76.3745 30.6507C75.3527 28.762 74.6482 26.7432 74.2755 24.5889C74.2372 24.3633 74.3596 24.1413 74.5707 24.0534C74.5707 24.0529 74.5712 24.0525 74.5712 24.0525C74.7127 23.9937 74.8724 23.9954 75.0122 24.0586C75.1524 24.1213 75.2599 24.2393 75.31 24.3842C75.8756 26.0021 76.6118 27.4933 77.5448 28.8395M149.844 105.02C148.417 105.483 147.707 106.723 147.531 108.627L149.844 105.02ZM84.3756 40.3528C84.3756 40.3528 84.3094 38.3549 84.2694 37.1401C84.2493 36.5411 84.3738 35.9459 84.632 35.4047C85.4314 33.7306 87.1708 30.0869 87.1708 30.0869C87.1708 30.0869 87.6053 27.105 87.8434 25.4692C87.8713 25.2777 87.7864 25.087 87.6253 24.9794C87.4642 24.8719 87.2557 24.8671 87.0898 24.9664C87.0327 24.9999 86.9822 25.0304 86.9413 25.0547C86.8703 25.097 86.8107 25.1566 86.768 25.2276C86.2194 26.1563 85.7902 27.3688 85.4754 28.8522C84.2741 29.0328 83.2044 30.0608 82.4882 31.0239L84.3756 40.3528Z" stroke="#200849" stroke-width="0.870769" stroke-linecap="round" stroke-linejoin="round"/>
<path d="M77.2292 28.3679C76.7707 26.2676 76.6667 23.5708 76.9083 21.3338C76.9344 21.1066 77.1134 20.9276 77.3402 20.9015C77.3406 20.9011 77.3411 20.9011 77.3415 20.9011C77.4935 20.8837 77.6463 20.9298 77.763 21.0291C77.8801 21.1279 77.9506 21.2707 77.9584 21.4235C78.0529 23.1355 78.3468 24.7729 78.8697 26.3251" stroke="#200849" stroke-width="0.870769" stroke-linecap="round" stroke-linejoin="round"/>
<path fill-rule="evenodd" clip-rule="evenodd" d="M78.937 27.5896C78.6932 25.4483 79.3507 21.29 79.8718 18.9315C79.9223 18.7094 80.1183 18.5514 80.346 18.5484C80.346 18.5479 80.346 18.5479 80.3464 18.5479C80.5009 18.5462 80.6494 18.6084 80.7561 18.7203C80.8632 18.8318 80.9189 18.9829 80.9098 19.1374C80.8179 21.2299 80.9032 24.8201 81.225 26.1223L78.937 27.5896ZM81.225 27.0092C81.4967 24.8732 83.1211 20.9948 84.1882 18.8266C84.2914 18.6202 84.5226 18.5113 84.7473 18.5632C84.7477 18.5632 84.7477 18.5632 84.7477 18.5632C84.8979 18.5976 85.0272 18.6929 85.1043 18.8266C85.1818 18.9598 85.2009 19.1191 85.1565 19.2667C84.7059 20.9234 84.2749 23.4969 83.9745 25.1645C83.873 25.6965 83.8582 26.242 83.9313 26.7793C83.9462 26.8895 83.9566 26.9656 83.9566 26.9656L84.2318 28.9828L81.225 27.0092ZM77.8281 30.7239C79.1813 29.8165 80.6895 29.2427 82.488 29.2932L77.8281 30.7239ZM107.131 77.6109C107.059 87.5781 109.491 90.5697 114.123 88.9157L109.673 108.141L106.873 112.847C106.873 112.847 107.023 113.052 107.176 113.26C107.372 113.528 107.421 113.877 107.305 114.189C107.26 114.31 107.209 114.446 107.156 114.589C106.775 115.613 105.835 116.322 104.747 116.408C101.27 116.681 93.9243 117.26 93.9243 117.26L107.131 77.6109Z" stroke="#200849" stroke-width="0.870769" stroke-linecap="round" stroke-linejoin="round"/>
</svg>
