<svg width="22" height="22" viewBox="0 0 22 22" fill="none" xmlns="http://www.w3.org/2000/svg">
<path d="M17.4163 7.33333H13.7497C13.2437 7.33333 12.833 6.92267 12.833 6.41667V2.75" stroke="#653494" stroke-width="1.5" stroke-linecap="round" stroke-linejoin="round"/>
<path d="M4.58301 11.9167V4.58333C4.58301 3.57042 5.40342 2.75 6.41634 2.75H12.9907C13.4765 2.75 13.9431 2.94342 14.2868 3.28717L16.8792 5.8795C17.2229 6.22325 17.4163 6.68983 17.4163 7.17567V17.4167C17.4163 18.4296 16.5959 19.25 15.583 19.25H11.9163" stroke="#653494" stroke-width="1.5" stroke-linecap="round" stroke-linejoin="round"/>
<path d="M9.39302 17.7729C8.47177 18.6942 6.98035 18.6942 6.0591 17.7729C5.13785 16.8517 5.13785 15.3602 6.0591 14.439C6.98035 13.5177 8.47177 13.5177 9.39302 14.439C10.3134 15.3602 10.3134 16.8535 9.39302 17.7729" stroke="#653494" stroke-width="1.2857" stroke-linecap="round" stroke-linejoin="round"/>
<path d="M8.25 10.0833H13.75" stroke="#653494" stroke-width="1.5" stroke-linecap="round" stroke-linejoin="round"/>
<path d="M11.917 12.8333H13.7503" stroke="#653494" stroke-width="1.5" stroke-linecap="round" stroke-linejoin="round"/>
<path d="M4.58301 19.2502L6.05884 17.7734" stroke="#653494" stroke-width="1.2857" stroke-linecap="round" stroke-linejoin="round"/>
</svg>
