<svg width="20" height="21" viewBox="0 0 20 21" fill="none" xmlns="http://www.w3.org/2000/svg">
<path d="M9.99909 7.16671C9.88409 7.16671 9.79075 7.26004 9.79159 7.37504C9.79159 7.49004 9.88492 7.58337 9.99992 7.58337C10.1149 7.58337 10.2083 7.49004 10.2083 7.37504C10.2083 7.26004 10.1149 7.16671 9.99909 7.16671" stroke="#4E5D78" stroke-width="1.5" stroke-linecap="round" stroke-linejoin="round"/>
<path fill-rule="evenodd" clip-rule="evenodd" d="M10 18V18C5.8575 18 2.5 14.6425 2.5 10.5V10.5C2.5 6.3575 5.8575 3 10 3V3C14.1425 3 17.5 6.3575 17.5 10.5V10.5C17.5 14.6425 14.1425 18 10 18Z" stroke="#4E5D78" stroke-width="1.5" stroke-linecap="round" stroke-linejoin="round"/>
<path d="M9.99992 10.5V14.6667" stroke="#4E5D78" stroke-width="1.5" stroke-linecap="round" stroke-linejoin="round"/>
</svg>
