<svg width="18" height="18" viewBox="0 0 18 18" fill="none" xmlns="http://www.w3.org/2000/svg">
<path d="M10.2594 9.72805C10.9547 10.4233 10.9547 11.5513 10.2594 12.2473C9.56419 12.9426 8.43619 12.9426 7.74019 12.2473C7.04494 11.5521 7.04494 10.4241 7.74019 9.72805C8.43619 9.03205 9.56419 9.03205 10.2594 9.72805" stroke="white" stroke-width="1.5" stroke-linecap="round" stroke-linejoin="round"/>
<path d="M5.25 13.5H4.5" stroke="white" stroke-width="1.5" stroke-linecap="round" stroke-linejoin="round"/>
<path d="M13.5 8.25H12.75" stroke="white" stroke-width="1.5" stroke-linecap="round" stroke-linejoin="round"/>
<path fill-rule="evenodd" clip-rule="evenodd" d="M14.25 15.675H3.675C2.88825 15.675 2.25 15.0368 2.25 14.25V7.425C2.25 6.63825 2.88825 6 3.675 6H14.325C15.1118 6 15.75 6.63825 15.75 7.425V14.175C15.75 15.0038 15.0788 15.675 14.25 15.675Z" stroke="white" stroke-width="1.5" stroke-linecap="round" stroke-linejoin="round"/>
<path d="M14.25 3.75H3.75" stroke="white" stroke-width="1.5" stroke-linecap="round" stroke-linejoin="round"/>
<path d="M13.5 1.5H4.5" stroke="white" stroke-width="1.5" stroke-linecap="round" stroke-linejoin="round"/>
</svg>
