<svg width="20" height="20" viewBox="0 0 20 20" fill="none" xmlns="http://www.w3.org/2000/svg">
<path d="M11.5005 12.1758V16.4529C11.5012 17.0328 12.6761 17.5032 14.1262 17.5032C15.5763 17.5032 16.7512 17.0328 16.7519 16.4529V12.1758" stroke="white" stroke-width="1.5" stroke-linecap="round" stroke-linejoin="round"/>
<path d="M11.501 14.3145C11.501 14.8944 12.6766 15.3647 14.1267 15.3647C15.5768 15.3647 16.7524 14.8944 16.7524 14.3145" stroke="white" stroke-width="1.5" stroke-linecap="round" stroke-linejoin="round"/>
<path d="M5.49805 9.24918H6.24836" stroke="white" stroke-width="1.5" stroke-linecap="round" stroke-linejoin="round"/>
<path d="M8.49902 9.24918H9.24934" stroke="white" stroke-width="1.5" stroke-linecap="round" stroke-linejoin="round"/>
<path d="M5.49805 11.5002H6.24836" stroke="white" stroke-width="1.5" stroke-linecap="round" stroke-linejoin="round"/>
<path d="M8.49902 11.5002H9.24934" stroke="white" stroke-width="1.5" stroke-linecap="round" stroke-linejoin="round"/>
<path d="M5.49805 9.24918H6.24836" stroke="white" stroke-width="1.5" stroke-linecap="round" stroke-linejoin="round"/>
<path d="M8.49902 9.24918H9.24934" stroke="white" stroke-width="1.5" stroke-linecap="round" stroke-linejoin="round"/>
<path d="M5.49805 13.7511H6.24836" stroke="white" stroke-width="1.5" stroke-linecap="round" stroke-linejoin="round"/>
<path d="M8.49902 13.7511H9.24934" stroke="white" stroke-width="1.5" stroke-linecap="round" stroke-linejoin="round"/>
<path d="M5.49805 13.7511H6.24836" stroke="white" stroke-width="1.5" stroke-linecap="round" stroke-linejoin="round"/>
<path d="M8.49902 13.7511H9.24934" stroke="white" stroke-width="1.5" stroke-linecap="round" stroke-linejoin="round"/>
<path d="M14.5018 6.9982H3.24707" stroke="white" stroke-width="1.5" stroke-linecap="round" stroke-linejoin="round"/>
<path d="M9.24957 16.0024H4.7477C3.91892 16.0024 3.24707 15.3305 3.24707 14.5018V4.7477C3.24707 3.91892 3.91892 3.24707 4.7477 3.24707H13.0011C13.8299 3.24707 14.5018 3.91892 14.5018 4.7477V9.24957" stroke="white" stroke-width="1.5" stroke-linecap="round" stroke-linejoin="round"/>
<path d="M5.49805 9.24918H6.24836" stroke="white" stroke-width="1.5" stroke-linecap="round" stroke-linejoin="round"/>
<path d="M8.49902 9.24918H9.24934" stroke="white" stroke-width="1.5" stroke-linecap="round" stroke-linejoin="round"/>
<path d="M11.5005 9.24918H12.2508" stroke="white" stroke-width="1.5" stroke-linecap="round" stroke-linejoin="round"/>
<path d="M11.5012 12.1753C11.5012 12.7552 12.6768 13.2256 14.127 13.2256C15.5771 13.2256 16.7519 12.7552 16.7519 12.1753C16.7519 11.5946 15.5756 11.125 14.1262 11.125C12.6768 11.125 11.5012 11.5954 11.5005 12.1753" stroke="white" stroke-width="1.5" stroke-linecap="round" stroke-linejoin="round"/>
</svg>
