<svg width="302" height="176" viewBox="0 0 302 176" fill="none" xmlns="http://www.w3.org/2000/svg">
<path fill-rule="evenodd" clip-rule="evenodd" d="M189.236 66.2109L195.678 84.7601H218.082L211.353 66.2109H189.236Z" fill="#E3E1FF"/>
<path fill-rule="evenodd" clip-rule="evenodd" d="M143.255 127.302L150.407 147.895H172.812L165.373 127.302H143.255Z" fill="#E3E1FF"/>
<path fill-rule="evenodd" clip-rule="evenodd" d="M77.4653 66.2109L83.9395 84.648L106.115 84.7601L99.3324 66.2109H77.4653Z" fill="#E3E1FF"/>
<path fill-rule="evenodd" clip-rule="evenodd" d="M167.501 105.776H180.546L187.886 126.896H165.546L162.185 117.424C164.975 114.084 166.809 110.046 167.501 105.776Z" fill="#653494"/>
<path fill-rule="evenodd" clip-rule="evenodd" d="M167.501 105.776H180.546L187.886 126.896H165.546L162.185 117.424C164.975 114.084 166.809 110.046 167.501 105.776Z" stroke="#653494" stroke-width="0.795008" stroke-linecap="round" stroke-linejoin="round"/>
<path d="M240.554 84.6562H160.481" stroke="#653494" stroke-width="0.795008" stroke-linecap="round" stroke-linejoin="round"/>
<path d="M125.006 84.6562H83.9426" stroke="#653494" stroke-width="0.795008" stroke-linecap="round" stroke-linejoin="round"/>
<path d="M247.876 105.776H167.501" stroke="#653494" stroke-width="0.795008" stroke-linecap="round" stroke-linejoin="round"/>
<path d="M115.909 105.776H91.3586" stroke="#653494" stroke-width="0.795008" stroke-linecap="round" stroke-linejoin="round"/>
<path d="M238.683 126.896H146.225" stroke="#653494" stroke-width="0.795008" stroke-linecap="round" stroke-linejoin="round"/>
<path d="M133.998 126.896H98.7749" stroke="#653494" stroke-width="0.795008" stroke-linecap="round" stroke-linejoin="round"/>
<path d="M218.444 148.016H106.191" stroke="#653494" stroke-width="0.795008" stroke-linecap="round" stroke-linejoin="round"/>
<path d="M248.988 148.016H246.357" stroke="#653494" stroke-width="0.795008" stroke-linecap="round" stroke-linejoin="round"/>
<path d="M99.3137 66.2109L135.455 169.136" stroke="#653494" stroke-width="0.795008" stroke-linecap="round" stroke-linejoin="round"/>
<path d="M124.619 74.3525L127.625 82.9128" stroke="#653494" stroke-width="0.795008" stroke-linecap="round" stroke-linejoin="round"/>
<path d="M143.341 127.667L157.902 169.135" stroke="#653494" stroke-width="0.795008" stroke-linecap="round" stroke-linejoin="round"/>
<path d="M144.207 66.2109L148.472 78.3571" stroke="#653494" stroke-width="0.795008" stroke-linecap="round" stroke-linejoin="round"/>
<path d="M162.189 117.419L180.349 169.135" stroke="#653494" stroke-width="0.795008" stroke-linecap="round" stroke-linejoin="round"/>
<path d="M166.654 66.2109L201.995 166.857" stroke="#653494" stroke-width="0.795008" stroke-linecap="round" stroke-linejoin="round"/>
<path d="M189.1 66.2109L204.294 109.481" stroke="#653494" stroke-width="0.795008" stroke-linecap="round" stroke-linejoin="round"/>
<path d="M208.062 120.21L218.028 148.592" stroke="#653494" stroke-width="0.795008" stroke-linecap="round" stroke-linejoin="round"/>
<path d="M211.547 66.2109L227.678 112.149" stroke="#653494" stroke-width="0.795008" stroke-linecap="round" stroke-linejoin="round"/>
<path d="M232.031 124.547L234.44 131.407" stroke="#653494" stroke-width="0.795008" stroke-linecap="round" stroke-linejoin="round"/>
<path d="M242.553 154.509L247.688 169.135" stroke="#653494" stroke-width="0.795008" stroke-linecap="round" stroke-linejoin="round"/>
<path fill-rule="evenodd" clip-rule="evenodd" d="M38.253 95.2942C38.253 94.6618 38.0013 94.0552 37.5541 93.608C37.107 93.1608 36.5004 92.9092 35.8679 92.9092C31.7851 92.9092 23.5038 92.9092 19.4212 92.9092C18.7886 92.9092 18.182 93.1608 17.7347 93.608C17.2874 94.0552 17.0361 94.6618 17.0361 95.2942C17.0361 100.559 17.0361 113.121 17.0361 118.385C17.0361 119.018 17.2874 119.625 17.7347 120.072C18.182 120.519 18.7886 120.77 19.4212 120.77C22.0149 120.77 30.1332 120.77 30.1332 120.77L38.3635 97.1943C38.3635 97.1943 38.253 96.0133 38.253 95.2942Z" fill="#F2F4FF"/>
<path fill-rule="evenodd" clip-rule="evenodd" d="M91.4879 36.9339C91.5559 36.8305 86.8963 36.9533 85.0269 36.8623C82.2173 42.2091 88.0753 42.1117 91.4879 36.9339Z" fill="#E3E1FF"/>
<path d="M1.09302 175.077H301.203" stroke="#200849" stroke-width="0.795008" stroke-linecap="round" stroke-linejoin="round"/>
<path d="M254.967 104.724L231.192 37.0146H119.988" stroke="#200849" stroke-width="0.795008" stroke-linecap="round" stroke-linejoin="round"/>
<path d="M101.826 38.7792C101.826 38.7792 102.078 40.8419 102.146 41.3972C102.157 41.4882 102.16 41.5796 102.155 41.6711C102.124 42.2121 102.009 44.2238 101.944 45.3671C101.935 45.5193 101.841 45.6533 101.701 45.7133C101.561 45.7729 101.399 45.7483 101.283 45.6493C101.283 45.6489 101.283 45.6489 101.283 45.6489C101.024 45.4279 100.867 45.1107 100.848 44.7712C100.808 44.0485 100.741 42.8457 100.741 42.8457C100.741 42.8457 99.3842 39.738 99.0706 39.0197C99.0292 38.9247 98.9561 38.8472 98.8639 38.7995C98.1559 38.4342 95.047 36.8311 95.047 36.8311L95.055 36.8625L84.9631 36.934" stroke="#200849" stroke-width="0.795008" stroke-linecap="round" stroke-linejoin="round"/>
<path d="M59.8464 35.5029L94.3987 135.413" stroke="#200849" stroke-width="0.795008" stroke-linecap="round" stroke-linejoin="round"/>
<path d="M88.3464 164.845L56.4082 148.496L11.1777 175.071L59.8728 35.5801" stroke="#200849" stroke-width="0.795008" stroke-linecap="round" stroke-linejoin="round"/>
<path d="M248.656 107.73L234.077 66.2109L132.161 66.2682" stroke="#200849" stroke-width="0.795008" stroke-linecap="round" stroke-linejoin="round"/>
<path d="M118.166 66.2638L77.4653 66.2109L113.607 169.136H198.155" stroke="#200849" stroke-width="0.795008" stroke-linecap="round" stroke-linejoin="round"/>
<path d="M113.607 169.136H198.155" stroke="#200849" stroke-width="0.795008" stroke-linecap="round" stroke-linejoin="round"/>
<path d="M230.431 169.135H266.84" stroke="#200849" stroke-width="0.795008" stroke-linecap="round" stroke-linejoin="round"/>
<path d="M76.2402 68.3955L98.9262 133.001" stroke="#653494" stroke-width="0.795008" stroke-linecap="round" stroke-linejoin="round"/>
<path fill-rule="evenodd" clip-rule="evenodd" d="M127.926 148.016C128.349 149.708 128.573 151.479 128.573 153.301C128.573 159.537 125.946 165.164 121.737 169.136H113.607L106.283 148.277L127.926 148.016ZM194.194 48.3184C195.137 48.3184 196.1 49.0414 196.343 49.9322C196.586 50.823 196.018 51.5461 195.074 51.5461C194.131 51.5461 193.168 50.823 192.925 49.9322C192.682 49.0414 193.251 48.3184 194.194 48.3184Z" fill="#653494"/>
<path fill-rule="evenodd" clip-rule="evenodd" d="M194.194 48.3184C195.137 48.3184 196.1 49.0414 196.343 49.9322C196.586 50.823 196.017 51.5461 195.074 51.5461C194.131 51.5461 193.168 50.823 192.925 49.9322C192.682 49.0414 193.25 48.3184 194.194 48.3184Z" stroke="#653494" stroke-width="0.795008" stroke-linecap="round" stroke-linejoin="round"/>
<path d="M178.682 36.9895C178.562 36.2414 178.5 35.4758 178.5 34.6963C178.5 26.2871 185.729 19.46 194.634 19.46C203.539 19.46 210.769 26.2871 210.769 34.6963C210.769 43.1051 203.539 49.9322 194.634 49.9322" stroke="#200849" stroke-width="0.795008" stroke-linecap="round" stroke-linejoin="round"/>
<path fill-rule="evenodd" clip-rule="evenodd" d="M130.499 48.4678C131.379 48.4678 132.277 49.1821 132.504 50.0618C132.731 50.9418 132.2 51.6558 131.321 51.6558C130.441 51.6558 129.543 50.9418 129.316 50.0618C129.089 49.1821 129.62 48.4678 130.499 48.4678Z" fill="#653494"/>
<path fill-rule="evenodd" clip-rule="evenodd" d="M130.499 48.4678C131.379 48.4678 132.277 49.1821 132.504 50.0618C132.731 50.9418 132.2 51.6558 131.321 51.6558C130.441 51.6558 129.543 50.9418 129.316 50.0618C129.089 49.1821 129.62 48.4678 130.499 48.4678Z" stroke="#653494" stroke-width="0.795008" stroke-linecap="round" stroke-linejoin="round"/>
<path d="M83.7957 55.752H112.842" stroke="#200849" stroke-width="0.795008" stroke-linecap="round" stroke-linejoin="round"/>
<path d="M126.616 55.752H141.689" stroke="#200849" stroke-width="0.795008" stroke-linecap="round" stroke-linejoin="round"/>
<path fill-rule="evenodd" clip-rule="evenodd" d="M73.3522 54.3362C73.6865 53.3926 74.5797 52.7617 75.581 52.7617C78.9947 52.7617 86.8808 52.7617 92.0213 52.7617C93.1204 52.7617 94.1512 53.2956 94.7856 54.1931C95.42 55.0907 95.5786 56.2407 95.2113 57.2766V57.277C94.8766 58.221 93.9838 58.8519 92.9825 58.8519C89.5687 58.8519 81.6827 58.8519 76.5421 58.8519C75.4426 58.8519 74.4123 58.318 73.7779 57.4205C73.1435 56.5225 72.9849 55.3729 73.3518 54.337C73.3522 54.3366 73.3522 54.3366 73.3522 54.3362Z" stroke="#200849" stroke-width="0.795008" stroke-linecap="round" stroke-linejoin="round"/>
<path d="M226.731 45.293H122.025" stroke="#200849" stroke-width="0.795008" stroke-linecap="round" stroke-linejoin="round"/>
<path d="M98.8847 45.293H70.1201" stroke="#200849" stroke-width="0.795008" stroke-linecap="round" stroke-linejoin="round"/>
<path fill-rule="evenodd" clip-rule="evenodd" d="M173.531 122.049L179.581 112.228L177.361 110.624L172.52 118.48L168.339 115.458L167.128 117.423L173.531 122.049Z" fill="white"/>
<path fill-rule="evenodd" clip-rule="evenodd" d="M240.252 126.917C230.188 134.936 218.541 148.407 207.054 161.331C208.924 166.275 211.924 168.526 215.435 169.552L216.283 168.713H217.881L221.143 166.379L221.439 165.419L219.848 163.615L240.252 126.917Z" fill="#E3E1FF"/>
<path fill-rule="evenodd" clip-rule="evenodd" d="M206.498 117.56C206.498 117.56 211.839 118.491 211.993 118.487C212.788 123.099 208.751 122.827 206.498 117.56Z" fill="#653494"/>
<path fill-rule="evenodd" clip-rule="evenodd" d="M206.498 117.56C206.498 117.56 211.839 118.491 211.993 118.487C212.788 123.099 208.751 122.827 206.498 117.56Z" stroke="#200849" stroke-width="0.795008" stroke-linecap="round" stroke-linejoin="round"/>
<path fill-rule="evenodd" clip-rule="evenodd" d="M294.772 162.454L294.244 153.862C300.752 151.818 303.104 159.662 294.772 162.454Z" fill="#653494"/>
<path fill-rule="evenodd" clip-rule="evenodd" d="M294.772 162.454L294.244 153.862C300.752 151.818 303.104 159.662 294.772 162.454Z" stroke="#200849" stroke-width="0.795008" stroke-linecap="round" stroke-linejoin="round"/>
<path fill-rule="evenodd" clip-rule="evenodd" d="M262.518 123.571L260.976 130.805L267.189 136.576L264.619 122.947L262.518 123.571Z" fill="#653494"/>
<path d="M294.244 154.039C294.244 154.039 294.511 158.233 294.805 162.865C295.004 166.01 293.899 169.098 291.751 171.403C289.602 173.707 286.599 175.025 283.447 175.046C281.885 175.056 280.541 175.065 279.712 175.071C278.621 175.078 277.537 174.913 276.498 174.583C269.327 172.309 258.295 162.973 251.066 151.579C248.791 147.994 247.608 143.445 245.61 140.368" stroke="#200849" stroke-width="0.795008" stroke-linecap="round" stroke-linejoin="round"/>
<path d="M247.481 144.014C244.904 154.444 238.743 158.093 231.964 166.379C228.381 165.581 223.094 167.893 219.803 163.774C219.803 163.774 233.137 139.747 240.611 126.279C241.824 124.092 243.961 122.57 246.424 122.138C248.888 121.706 251.415 122.41 253.3 124.054C264.326 133.583 275.047 143.302 284.124 155.493" stroke="#200849" stroke-width="0.795008" stroke-linecap="round" stroke-linejoin="round"/>
<path d="M278.696 153.067C277.737 156.379 278.166 159.502 279.706 162.473M279.825 149.911C283.782 154.203 288.551 155.651 294.244 153.862C300.752 151.818 303.104 159.662 294.772 162.454L279.825 149.911Z" stroke="#200849" stroke-width="0.795008" stroke-linecap="round" stroke-linejoin="round"/>
<path d="M264.619 123.128L267.189 136.576" stroke="#200849" stroke-width="0.795008" stroke-linecap="round" stroke-linejoin="round"/>
<path d="M271.395 120.421C266.099 122.736 260.532 124.303 254.772 125.335" stroke="#200849" stroke-width="0.795008" stroke-linecap="round" stroke-linejoin="round"/>
<path d="M240.252 126.917C239.581 126.951 238.907 126.98 238.232 127.005C236.325 127.076 234.592 125.903 233.952 124.106C233.189 121.967 234.169 119.599 236.219 118.623C243.43 115.191 259.729 107.435 269.101 102.975C273.263 100.994 278.249 102.331 280.862 106.128C291.029 120.925 296.815 136.236 300.094 156.296" stroke="#200849" stroke-width="0.795008" stroke-linecap="round" stroke-linejoin="round"/>
<path d="M276.958 102.872L274.693 98.6484L259.189 107.691" stroke="#200849" stroke-width="0.795008" stroke-linecap="round" stroke-linejoin="round"/>
<path d="M240.252 126.917C230.188 134.936 218.541 148.407 207.054 161.331C208.924 166.275 211.924 168.526 215.435 169.552" stroke="#200849" stroke-width="0.795008" stroke-linecap="round" stroke-linejoin="round"/>
<path d="M231.321 173.5L208.544 173.733" stroke="#200849" stroke-width="0.795008" stroke-linecap="round" stroke-linejoin="round"/>
<path d="M206.447 173.5L190.37 173.733" stroke="#200849" stroke-width="0.795008" stroke-linecap="round" stroke-linejoin="round"/>
<path fill-rule="evenodd" clip-rule="evenodd" d="M231.191 175.076C231.658 172.104 231.73 169.973 229.671 168.649C229.393 168.47 229.048 168.434 228.74 168.553C228.162 168.764 227.141 169.157 226.311 169.476C225.462 169.803 224.527 169.833 223.659 169.561C222.714 169.265 221.617 168.921 221.617 168.921L220.847 166.378C220.847 166.378 218.98 167.61 218.144 168.686C217.62 169.359 216.655 170.236 216.007 170.796C215.61 171.147 215.14 171.403 214.63 171.547C213.395 171.903 210.861 172.617 209.552 172.986C209.022 173.136 208.563 173.474 208.264 173.937C208.264 173.937 208.264 173.937 208.263 173.938C208.117 174.164 208.106 174.454 208.235 174.691C208.364 174.928 208.612 175.076 208.883 175.076C213.91 175.076 231.191 175.076 231.191 175.076Z" stroke="#200849" stroke-width="0.795008" stroke-linecap="round" stroke-linejoin="round"/>
<path d="M218.256 168.548C216.14 167.799 215.495 169.603 217.714 170.727M212.233 172.191C212.32 170.94 212.375 170.354 211.434 169.503C211.189 169.274 210.849 169.177 210.521 169.243C209.87 169.369 208.691 169.606 207.839 169.778C207.174 169.911 206.486 169.875 205.839 169.672C204.841 169.359 203.443 168.921 203.443 168.921L202.672 166.378C202.672 166.378 200.806 167.61 199.97 168.686C199.446 169.359 198.481 170.236 197.832 170.796C197.436 171.147 196.965 171.403 196.456 171.547C195.221 171.903 192.687 172.617 191.378 172.986C190.847 173.136 190.389 173.474 190.089 173.937C190.089 173.937 190.089 173.937 190.089 173.938C189.942 174.164 189.931 174.454 190.06 174.691C190.189 174.928 190.438 175.076 190.708 175.076C194.804 175.076 206.768 175.076 206.768 175.076L212.233 172.191Z" stroke="#200849" stroke-width="0.795008" stroke-linecap="round" stroke-linejoin="round"/>
<path d="M198.108 169.634C196.264 168.982 195.703 170.553 197.636 171.532M200.082 168.549C197.965 167.8 197.321 169.603 199.539 170.728L200.082 168.549ZM216.283 169.634C214.439 168.982 213.878 170.553 215.81 171.532L216.283 169.634Z" stroke="#200849" stroke-width="0.795008" stroke-linecap="round" stroke-linejoin="round"/>
<path d="M207.519 162.453L202.842 166.94" stroke="#200849" stroke-width="0.795008" stroke-linecap="round" stroke-linejoin="round"/>
<path d="M212.233 168.137L211.001 169.289" stroke="#200849" stroke-width="0.795008" stroke-linecap="round" stroke-linejoin="round"/>
<path d="M221.143 166.378L221.735 165.418" stroke="#200849" stroke-width="0.795008" stroke-linecap="round" stroke-linejoin="round"/>
<path d="M229.066 168.485L230.694 166.378" stroke="#200849" stroke-width="0.795008" stroke-linecap="round" stroke-linejoin="round"/>
<path d="M264.522 104.581L236.089 113.119L207.772 109.852" stroke="#200849" stroke-width="0.795008" stroke-linecap="round" stroke-linejoin="round"/>
<path d="M210.595 121.754C218.355 123.503 226.204 124.447 233.854 124.503" stroke="#200849" stroke-width="0.795008" stroke-linecap="round" stroke-linejoin="round"/>
<path d="M264.457 99.2213C253.669 101.65 252.562 94.1014 260.465 81.6846M207.771 109.852C216.585 122.412 209.718 125.088 206.498 117.559L207.771 109.852Z" stroke="#200849" stroke-width="0.795008" stroke-linecap="round" stroke-linejoin="round"/>
<path fill-rule="evenodd" clip-rule="evenodd" d="M274.483 97.9136C272.923 94.2927 268.292 94.662 268.426 91.4764C268.426 91.4764 270.064 90.9199 271.312 90.4954C272.083 90.233 272.501 89.4003 272.251 88.6255C272.25 88.6251 272.25 88.6247 272.25 88.6243C272.125 88.2356 271.846 87.9144 271.479 87.7351C271.112 87.5558 270.687 87.534 270.304 87.6739C268.827 88.2121 266.767 88.9638 266.767 88.9638L264.388 92.4189L264.096 87.3066C261.598 86.0139 259.814 84.1818 259.481 81.2518C259.482 81.2506 258.514 77.7486 258.516 77.749C264.896 78.8962 268.968 76.8463 273.309 79.8081C277.65 82.7695 279.216 88.4347 277.011 93.2052C276.226 94.8659 275.394 96.4444 274.483 97.9136Z" fill="#200849"/>
<path d="M257.804 86.3818L253.792 88.6222C254.117 90.0222 255.125 90.8891 255.764 90.9086" stroke="#200849" stroke-width="0.795008" stroke-linecap="round" stroke-linejoin="round"/>
<path d="M270.989 89.1611L268.113 90.0432" stroke="#200849" stroke-width="0.795008" stroke-linecap="round" stroke-linejoin="round"/>
<path d="M264.135 96.6738L265.023 103.685" stroke="#200849" stroke-width="0.795008" stroke-linecap="round" stroke-linejoin="round"/>
<path d="M207.906 110.48C207.906 110.48 201.037 108.849 200.284 108.67C200.239 108.659 200.194 108.654 200.148 108.655C199.231 108.674 189.401 108.875 186.3 108.938C186.107 108.942 185.932 109.048 185.839 109.217C185.746 109.385 185.75 109.59 185.849 109.755C185.854 109.763 185.858 109.771 185.863 109.779C185.948 109.92 186.093 110.015 186.256 110.036C187.754 110.228 195.235 111.186 195.235 111.186" stroke="#200849" stroke-width="0.795008" stroke-linecap="round" stroke-linejoin="round"/>
<path d="M193.82 110.955C193.82 110.955 192.942 112.437 192.468 113.239C192.292 113.535 192.368 113.916 192.643 114.123C193.48 114.743 194.318 115.127 195.16 115.3" stroke="#200849" stroke-width="0.795008" stroke-linecap="round" stroke-linejoin="round"/>
<path d="M193.375 114.51C193.375 114.51 193.246 114.982 193.136 115.385C193.048 115.709 193.211 116.049 193.519 116.182C193.876 116.336 194.278 116.51 194.278 116.51" stroke="#200849" stroke-width="0.795008" stroke-linecap="round" stroke-linejoin="round"/>
<path d="M195.325 113.181L197.319 114.175" stroke="#200849" stroke-width="0.795008" stroke-linecap="round" stroke-linejoin="round"/>
<path d="M141.189 78.0093C151.382 76.9373 161.53 82.4876 165.819 92.3712C171.112 104.567 165.495 118.77 153.283 124.07C141.071 129.37 126.86 123.772 121.567 111.577C116.275 99.3815 121.892 85.1775 134.104 79.878M200.545 111.476C200.545 111.476 200.702 111.739 200.892 112.058C201.061 112.341 201.1 112.683 200.998 112.996C200.897 113.31 200.664 113.564 200.362 113.694C198.855 114.342 196.465 115.369 196.465 115.369C196.465 115.369 195.516 116.015 194.762 116.528C194.523 116.691 194.36 116.944 194.31 117.229C194.259 117.514 194.326 117.807 194.495 118.042C194.495 118.042 194.495 118.042 194.495 118.042C194.75 118.398 195.198 118.561 195.623 118.454C196.382 118.262 197.484 117.984 197.484 117.984L199.849 117.193L200.545 111.476ZM198.96 117.49C200.31 118.888 202.818 118.298 204.571 117.228L211.903 118.486L198.96 117.49Z" stroke="#200849" stroke-width="0.795008" stroke-linecap="round" stroke-linejoin="round"/>
<path d="M139.623 110.481C141.433 112.042 144.056 113.056 148.071 111.314C151.813 109.69 153.668 106.699 152.4 103.778C149.56 97.2334 138.131 104.154 135.654 98.4474C134.704 96.2568 135.992 93.5442 139.564 91.9939C142.932 90.5323 145.179 91.5177 146.295 92.3187" stroke="#200849" stroke-width="0.795008" stroke-linecap="round" stroke-linejoin="round"/>
<path d="M137.722 91.0527L147.398 113.348" stroke="#200849" stroke-width="0.795008" stroke-linecap="round" stroke-linejoin="round"/>
<path d="M139.931 90.0938L149.607 112.389" stroke="#200849" stroke-width="0.795008" stroke-linecap="round" stroke-linejoin="round"/>
<path d="M117.57 28.1552C120.042 23.2265 125.024 19.9678 130.91 19.9678C139.214 19.9678 145.956 26.7098 145.956 35.0145C145.956 43.3192 139.214 50.0612 130.91 50.0612M107.216 40.0246C110.963 53.4623 117.181 66.0667 123.954 74.7196C127.587 72.302 132.035 70.2652 132.161 66.211L107.216 40.0246ZM150.984 124.955C146.307 127.65 140.767 128.044 136.447 127.394L150.984 124.955ZM136.447 127.394C128.942 126.267 122.127 121.626 118.505 114.457L136.447 127.394ZM118.505 114.457C118.292 114.036 118.091 113.607 117.9 113.169C112.607 100.974 118.225 86.7695 130.436 81.4696C131.22 81.1298 134.104 79.8784 134.104 79.8784L118.505 114.457Z" stroke="#200849" stroke-width="0.795008" stroke-linecap="round" stroke-linejoin="round"/>
<path d="M113.707 23.3027C115.602 24.5668 117.037 27.1029 117.598 29.1476C119.709 36.8477 123.005 48.8702 123.005 48.8702C123.005 48.8702 130.92 63.9547 134.042 69.9025C134.857 71.4568 136.058 72.7753 137.53 73.7317C137.844 73.9356 138.142 74.1292 138.386 74.2874C138.782 74.5446 139.111 74.8904 139.35 75.2975C139.875 76.1934 140.836 77.8343 141.317 78.656C141.51 78.9839 141.638 79.3453 141.697 79.7209C141.872 80.8458 142.261 83.3374 142.426 84.3944C142.441 84.4949 142.402 84.5967 142.323 84.6603C142.243 84.7243 142.136 84.741 142.041 84.7044C141.89 84.6456 141.76 84.5955 141.76 84.5955" stroke="#200849" stroke-width="0.795008" stroke-linecap="round" stroke-linejoin="round"/>
<path d="M117.085 13.2695C112.199 24.9132 105.124 29.178 102.083 22.0846M140.618 80.4477C140.618 80.4477 141.223 82.8463 141.371 83.4322C141.393 83.5177 141.407 83.6043 141.414 83.6918C141.451 84.1926 141.589 86.0052 141.67 87.0801C141.682 87.2315 141.606 87.3766 141.474 87.4534C141.343 87.5301 141.179 87.5249 141.053 87.4402C141.053 87.4402 141.052 87.4402 141.052 87.4398C140.774 87.2538 140.585 86.962 140.528 86.6325C140.404 85.9206 140.196 84.7237 140.196 84.7237L140.618 80.4477ZM104.186 36.9341C104.186 36.9341 105.23 39.1769 105.485 39.7246C105.522 39.8045 105.552 39.8872 105.575 39.9719C105.706 40.4564 106.181 42.2114 106.462 43.2517C106.502 43.3988 106.454 43.5554 106.339 43.6552C106.225 43.7553 106.063 43.7808 105.923 43.7211H105.922C105.615 43.5904 105.374 43.3391 105.256 43.0259C105.001 42.3497 104.573 41.2133 104.573 41.2133L104.186 36.9341ZM102.977 38.1159C102.977 38.1159 104.112 40.2764 104.403 40.8297C104.448 40.9148 104.485 41.0038 104.513 41.0956C104.674 41.6239 105.259 43.5391 105.592 44.6298C105.636 44.7757 105.594 44.9339 105.484 45.0385C105.373 45.143 105.212 45.176 105.069 45.1231C105.069 45.1231 105.069 45.1231 105.069 45.1227C104.749 45.0051 104.493 44.7618 104.357 44.4498C104.07 43.7855 103.591 42.6801 103.591 42.6801L102.023 39.8157L102.977 38.1159ZM139.208 81.3823C139.208 81.3823 139.919 83.7172 140.101 84.3151C140.129 84.4069 140.149 84.5015 140.159 84.5969C140.219 85.1458 140.434 87.1369 140.557 88.2706C140.574 88.4221 140.503 88.5699 140.374 88.6518C140.246 88.7337 140.082 88.7361 139.952 88.6574C139.951 88.657 139.951 88.657 139.951 88.657C139.659 88.4813 139.453 88.1943 139.378 87.8624C139.22 87.1564 138.957 85.9806 138.957 85.9806L137.953 82.8733L139.208 81.3823ZM137.953 81.8183C137.953 81.8183 137.815 83.8917 137.778 84.4502C137.771 84.5412 137.757 84.6319 137.735 84.7205C137.603 85.246 137.114 87.2009 136.836 88.312C136.799 88.4598 136.681 88.5739 136.532 88.6061C136.383 88.6387 136.229 88.5839 136.134 88.465L136.133 88.4646C135.921 88.1991 135.826 87.858 135.871 87.5209C135.967 86.8038 136.126 85.6097 136.126 85.6097C136.126 85.6097 135.322 82.0692 135.186 81.4685C135.173 81.4117 135.149 81.3576 135.116 81.3099C134.93 81.0444 134.298 80.1393 134.298 80.1393L137.953 81.8183ZM128.162 72.0008C128.162 72.0008 130.557 75.572 131.471 76.9342C131.701 77.2769 131.857 77.6632 131.93 78.0691C132.073 78.8621 132.303 80.1393 132.303 80.1393L128.162 72.0008Z" stroke="#200849" stroke-width="0.795008" stroke-linecap="round" stroke-linejoin="round"/>
<path d="M111.649 22.3632C111.649 22.3632 111.648 22.3636 111.647 22.3644C111.646 22.3648 111.645 22.366 111.645 22.3676C111.644 22.3692 111.645 22.3708 111.646 22.372C112.247 22.8355 112.844 23.1181 113.571 23.287C113.768 23.3335 113.974 23.2759 114.119 23.1348C114.263 22.9937 114.325 22.7886 114.283 22.591C114.018 21.2971 114.018 20.0247 114.335 18.7773L114.09 19.1053" stroke="#200849" stroke-width="0.795008" stroke-linecap="round" stroke-linejoin="round"/>
<path d="M103.749 20.5068L98.8845 23.5338" stroke="#200849" stroke-width="0.795008" stroke-linecap="round" stroke-linejoin="round"/>
<path d="M105.842 10.4775L106.854 12.5879" stroke="#200849" stroke-width="0.795008" stroke-linecap="round" stroke-linejoin="round"/>
<path fill-rule="evenodd" clip-rule="evenodd" d="M89.2145 12.583C93.9325 11.8997 98.3663 0.0755 109.07 0.321158C111.767 0.383168 114.328 1.51804 116.186 3.47496C118.044 5.43147 119.046 8.04824 118.968 10.7453C118.914 12.6084 118.875 13.9774 118.875 13.9774C113.776 15.7861 112.184 11.2315 109.02 12.8103C109.02 12.8103 108.254 11.2132 107.639 9.93162C107.439 9.51424 107.082 9.19385 106.645 9.04001C106.208 8.88658 105.728 8.91242 105.311 9.11276C105.311 9.11276 105.31 9.11316 105.31 9.11316C104.441 9.53014 104.074 10.5724 104.491 11.4413C105.118 12.7499 105.909 14.3984 105.909 14.3984C101.694 16.62 100.316 11.8257 96.9003 14.4008C96.0115 15.0705 94.6739 15.7606 93.7111 16.4082L93.5915 16.2201C92.4562 14.4389 91.1285 13.1828 89.2145 12.583ZM60.6145 19.5584C61.4564 13.5262 66.6415 8.87743 72.9033 8.87743C76.7544 8.87743 78.728 11.1675 84.3956 12.4025C84.1774 12.4514 83.9595 12.5086 83.7429 12.5742L60.6145 19.5584Z" fill="#653494"/>
<path d="M99.5268 27.3373C99.5268 27.3373 96.5324 21.7695 93.9915 17.0443C91.9341 13.2187 87.5035 11.3254 83.317 12.483C72.9377 15.3736 62.6933 18.5334 52.6122 22.0199C50.2355 22.8511 48.6467 25.0974 48.6546 27.6155C48.6626 30.1333 50.2653 32.3697 52.6471 33.1858C63.1333 36.8428 72.7338 39.578 85.5239 40.6899" stroke="#200849" stroke-width="0.795008" stroke-linecap="round" stroke-linejoin="round"/>
<path d="M82.2909 23.7012L79.4316 26.4173" stroke="#200849" stroke-width="0.795008" stroke-linecap="round" stroke-linejoin="round"/>
<path d="M70.7529 23.7012C70.7529 23.7012 95.744 31.3333 102.166 33.2945C103.139 33.5919 104.005 34.1635 104.66 34.9414C105.22 35.6052 105.804 36.2993 105.804 36.2993L107.042 39.267L107.143 42.0392L106.91 43.0008" stroke="#200849" stroke-width="0.795008" stroke-linecap="round" stroke-linejoin="round"/>
<path fill-rule="evenodd" clip-rule="evenodd" d="M90.8611 29.8525C78.1668 41.4843 86.9699 43.789 91.4879 36.9341L90.8611 29.8525ZM105.082 35.0316C106.159 34.9636 107.083 34.7971 107.786 34.4858C107.927 34.4195 108.094 34.4346 108.221 34.5252C108.24 34.5371 108.259 34.5506 108.278 34.5642C108.437 34.6774 108.501 34.8834 108.433 35.067C108.058 35.8755 107.032 36.3199 106.17 36.5851L105.082 35.0316ZM106.803 131.531C118.818 131.531 128.573 141.286 128.573 153.302C128.573 165.317 118.818 175.072 106.803 175.072C94.788 175.072 85.0333 165.317 85.0333 153.302C85.0333 141.286 94.788 131.531 106.803 131.531Z" stroke="#200849" stroke-width="0.795008" stroke-linecap="round" stroke-linejoin="round"/>
<path d="M56.4082 148.495H85.6311" stroke="#200849" stroke-width="0.795008" stroke-linecap="round" stroke-linejoin="round"/>
<path fill-rule="evenodd" clip-rule="evenodd" d="M253.701 23.4133C253.701 22.7809 253.449 22.1743 253.002 21.7271C252.555 21.2795 251.948 21.0283 251.316 21.0283H244.185C243.553 21.0283 242.946 21.2795 242.498 21.7271C242.051 22.1743 241.8 22.7809 241.8 23.4133V34.2712C241.8 34.9036 242.051 35.5102 242.498 35.9574C242.946 36.405 243.553 36.6562 244.185 36.6562H251.316C251.948 36.6562 252.555 36.405 253.002 35.9574C253.449 35.5102 253.701 34.9036 253.701 34.2712V23.4133Z" fill="#F2F4FF"/>
</svg>
