<svg width="24" height="24" viewBox="0 0 24 24" fill="none" xmlns="http://www.w3.org/2000/svg">
<path d="M9.35742 16.9996V8.93359" stroke="#B0B7C3" stroke-width="1.5" stroke-linecap="round" stroke-linejoin="round"/>
<path d="M5 8.93359V16.9996" stroke="#B0B7C3" stroke-width="1.5" stroke-linecap="round" stroke-linejoin="round"/>
<path d="M12 17H4L3 19V20H12" stroke="#B0B7C3" stroke-width="1.5" stroke-linecap="round" stroke-linejoin="round"/>
<path fill-rule="evenodd" clip-rule="evenodd" d="M21 5.928L12 2L3 5.928V8.934H21V5.928V5.928Z" stroke="#B0B7C3" stroke-width="1.5" stroke-linecap="round" stroke-linejoin="round"/>
<path d="M14.6426 13.9996V8.93359" stroke="#B0B7C3" stroke-width="1.5" stroke-linecap="round" stroke-linejoin="round"/>
<path d="M19 8.93359V10.9996" stroke="#B0B7C3" stroke-width="1.5" stroke-linecap="round" stroke-linejoin="round"/>
<path fill-rule="evenodd" clip-rule="evenodd" d="M3 5.928L12 2L21 5.928V8.934H3V5.928V5.928Z" stroke="#B0B7C3" stroke-width="1.5" stroke-linecap="round" stroke-linejoin="round"/>
<path fill-rule="evenodd" clip-rule="evenodd" d="M18.293 20.7071L21.7071 17.293C21.8947 17.1055 22 16.8511 22 16.5859C22 16.3207 21.8947 16.0663 21.7071 15.8788L20.1213 14.2929C19.9337 14.1054 19.6794 14 19.4142 14C19.1489 14 18.8946 14.1054 18.7071 14.2929L15.2929 17.707C15.1054 17.8945 15 18.1489 15 18.4141V20.5C15 20.7761 15.2239 21 15.5 21H17.5859C17.8511 21 18.1055 20.8946 18.293 20.7071Z" stroke="#B0B7C3" stroke-width="1.5" stroke-linecap="round" stroke-linejoin="round"/>
</svg>
