<svg width="16" height="14" viewBox="0 0 16 14" fill="none" xmlns="http://www.w3.org/2000/svg">
<path d="M11.3333 12.9997C9.49267 12.9997 8 11.507 8 9.66634C8 7.82567 9.49267 6.33301 11.3333 6.33301C13.1747 6.33301 14.6667 7.82567 14.6667 9.66634C14.6667 11.507 13.1747 12.9997 11.3333 12.9997" stroke="#653494" stroke-width="1.5" stroke-linecap="round" stroke-linejoin="round"/>
<path d="M1.3335 3.56673H14.0002" stroke="#653494" stroke-width="1.2" stroke-linecap="round" stroke-linejoin="round"/>
<path d="M14.0002 7.66667V2.33333C14.0002 1.59667 13.4035 1 12.6668 1H2.66683C1.93016 1 1.3335 1.59667 1.3335 2.33333V8.33333C1.3335 9.07 1.93016 9.66667 2.66683 9.66667H8.00016" stroke="#653494" stroke-width="1.2" stroke-linecap="round" stroke-linejoin="round"/>
<path d="M12.2736 8.72656L10.3936 10.6066" stroke="#653494" stroke-width="1.2" stroke-linecap="round" stroke-linejoin="round"/>
<path d="M12.2736 10.6066L10.3936 8.72656" stroke="#653494" stroke-width="1.2" stroke-linecap="round" stroke-linejoin="round"/>
</svg>
