<svg width="411" height="524" viewBox="0 0 411 524" fill="none" xmlns="http://www.w3.org/2000/svg">
<path opacity="0.75" d="M129.47 181.53C129.763 181.823 130.237 181.823 130.53 181.53L135.303 176.757C135.596 176.464 135.596 175.99 135.303 175.697C135.01 175.404 134.536 175.404 134.243 175.697L130 179.939L125.757 175.697C125.464 175.404 124.99 175.404 124.697 175.697C124.404 175.99 124.404 176.464 124.697 176.757L129.47 181.53ZM129.25 139.536C129.25 139.95 129.586 140.286 130 140.286C130.414 140.286 130.75 139.95 130.75 139.536L129.25 139.536ZM130.75 143.631C130.75 143.217 130.414 142.881 130 142.881C129.586 142.881 129.25 143.217 129.25 143.631L130.75 143.631ZM129.25 146.702C129.25 147.117 129.586 147.452 130 147.452C130.414 147.452 130.75 147.117 130.75 146.702L129.25 146.702ZM130.75 150.798C130.75 150.383 130.414 150.048 130 150.048C129.586 150.048 129.25 150.383 129.25 150.798L130.75 150.798ZM129.25 153.869C129.25 154.283 129.586 154.619 130 154.619C130.414 154.619 130.75 154.283 130.75 153.869L129.25 153.869ZM130.75 157.964C130.75 157.55 130.414 157.214 130 157.214C129.586 157.214 129.25 157.55 129.25 157.964L130.75 157.964ZM129.25 161.036C129.25 161.45 129.586 161.786 130 161.786C130.414 161.786 130.75 161.45 130.75 161.036L129.25 161.036ZM130.75 165.131C130.75 164.717 130.414 164.381 130 164.381C129.586 164.381 129.25 164.717 129.25 165.131L130.75 165.131ZM129.25 168.202C129.25 168.617 129.586 168.952 130 168.952C130.414 168.952 130.75 168.617 130.75 168.202L129.25 168.202ZM130.75 172.298C130.75 171.883 130.414 171.548 130 171.548C129.586 171.548 129.25 171.883 129.25 172.298L130.75 172.298ZM129.25 175.369C129.25 175.783 129.586 176.119 130 176.119C130.414 176.119 130.75 175.783 130.75 175.369L129.25 175.369ZM130.75 179.464C130.75 179.05 130.414 178.714 130 178.714C129.586 178.714 129.25 179.05 129.25 179.464L130.75 179.464ZM129.25 138L129.25 139.536L130.75 139.536L130.75 138L129.25 138ZM129.25 143.631L129.25 146.702L130.75 146.702L130.75 143.631L129.25 143.631ZM129.25 150.798L129.25 153.869L130.75 153.869L130.75 150.798L129.25 150.798ZM129.25 157.964L129.25 161.036L130.75 161.036L130.75 157.964L129.25 157.964ZM129.25 165.131L129.25 168.202L130.75 168.202L130.75 165.131L129.25 165.131ZM129.25 172.298L129.25 175.369L130.75 175.369L130.75 172.298L129.25 172.298ZM129.25 179.464L129.25 181L130.75 181L130.75 179.464L129.25 179.464Z" fill="#AD9BCB"/>
<path opacity="0.75" d="M128.47 314.53C128.763 314.823 129.237 314.823 129.53 314.53L134.303 309.757C134.596 309.464 134.596 308.99 134.303 308.697C134.01 308.404 133.536 308.404 133.243 308.697L129 312.939L124.757 308.697C124.464 308.404 123.99 308.404 123.697 308.697C123.404 308.99 123.404 309.464 123.697 309.757L128.47 314.53ZM128.25 272.536C128.25 272.95 128.586 273.286 129 273.286C129.414 273.286 129.75 272.95 129.75 272.536L128.25 272.536ZM129.75 276.631C129.75 276.217 129.414 275.881 129 275.881C128.586 275.881 128.25 276.217 128.25 276.631L129.75 276.631ZM128.25 279.702C128.25 280.117 128.586 280.452 129 280.452C129.414 280.452 129.75 280.117 129.75 279.702L128.25 279.702ZM129.75 283.798C129.75 283.383 129.414 283.048 129 283.048C128.586 283.048 128.25 283.383 128.25 283.798L129.75 283.798ZM128.25 286.869C128.25 287.283 128.586 287.619 129 287.619C129.414 287.619 129.75 287.283 129.75 286.869L128.25 286.869ZM129.75 290.964C129.75 290.55 129.414 290.214 129 290.214C128.586 290.214 128.25 290.55 128.25 290.964L129.75 290.964ZM128.25 294.036C128.25 294.45 128.586 294.786 129 294.786C129.414 294.786 129.75 294.45 129.75 294.036L128.25 294.036ZM129.75 298.131C129.75 297.717 129.414 297.381 129 297.381C128.586 297.381 128.25 297.717 128.25 298.131L129.75 298.131ZM128.25 301.202C128.25 301.617 128.586 301.952 129 301.952C129.414 301.952 129.75 301.617 129.75 301.202L128.25 301.202ZM129.75 305.298C129.75 304.883 129.414 304.548 129 304.548C128.586 304.548 128.25 304.883 128.25 305.298L129.75 305.298ZM128.25 308.369C128.25 308.783 128.586 309.119 129 309.119C129.414 309.119 129.75 308.783 129.75 308.369L128.25 308.369ZM129.75 312.464C129.75 312.05 129.414 311.714 129 311.714C128.586 311.714 128.25 312.05 128.25 312.464L129.75 312.464ZM128.25 271L128.25 272.536L129.75 272.536L129.75 271L128.25 271ZM128.25 276.631L128.25 279.702L129.75 279.702L129.75 276.631L128.25 276.631ZM128.25 283.798L128.25 286.869L129.75 286.869L129.75 283.798L128.25 283.798ZM128.25 290.964L128.25 294.036L129.75 294.036L129.75 290.964L128.25 290.964ZM128.25 298.131L128.25 301.202L129.75 301.202L129.75 298.131L128.25 298.131ZM128.25 305.298L128.25 308.369L129.75 308.369L129.75 305.298L128.25 305.298ZM128.25 312.464L128.25 314L129.75 314L129.75 312.464L128.25 312.464Z" fill="#AD9BCB"/>
<g filter="url(#filter0_d_302_35214)">
<rect x="84" y="185" width="90" height="90" rx="45" fill="white"/>
<path d="M120.405 227.375C120.405 228.053 119.856 228.602 119.178 228.602C118.5 228.602 117.951 228.053 117.951 227.375V218.955C117.951 217.599 119.05 216.5 120.405 216.5H137.587C138.943 216.5 140.042 217.599 140.042 218.955V227.546C140.042 228.224 139.492 228.773 138.815 228.773C138.137 228.773 137.587 228.224 137.587 227.546V218.955H120.405V227.375Z" fill="#200849"/>
<path d="M125.314 223.863C124.636 223.863 124.087 223.314 124.087 222.636C124.087 221.958 124.636 221.408 125.314 221.408H132.678C133.356 221.408 133.905 221.958 133.905 222.636C133.905 223.314 133.356 223.863 132.678 223.863H125.314Z" fill="#9B89EA"/>
<path d="M125.314 227.547C124.636 227.547 124.087 226.997 124.087 226.32C124.087 225.642 124.636 225.092 125.314 225.092H132.678C133.356 225.092 133.905 225.642 133.905 226.32C133.905 226.997 133.356 227.547 132.678 227.547H125.314Z" fill="#9B89EA"/>
<path d="M117.951 228.773V239.818C117.951 240.496 118.5 241.045 119.178 241.045H138.815C139.492 241.045 140.042 240.496 140.042 239.818V231.536C140.042 230.858 140.591 230.308 141.269 230.308C141.947 230.308 142.496 230.858 142.496 231.536V239.818C142.496 241.852 140.848 243.5 138.815 243.5H119.178C117.145 243.5 115.496 241.852 115.496 239.818V226.627C115.496 225.677 116.528 225.087 117.346 225.569L128.996 232.424L140.647 225.569C141.231 225.225 141.983 225.42 142.327 226.004C142.671 226.588 142.476 227.341 141.892 227.684L129.619 234.906C129.235 235.132 128.758 235.132 128.374 234.906L117.951 228.773Z" fill="#200849"/>
<path d="M117.59 227.189C117.11 227.668 116.333 227.667 115.854 227.187C115.376 226.707 115.377 225.929 115.857 225.451L118.319 222.996C118.799 222.518 119.576 222.519 120.055 222.999C120.533 223.479 120.532 224.256 120.052 224.735L117.59 227.189Z" fill="#200849"/>
<path d="M140.41 227.189C140.89 227.668 141.667 227.667 142.146 227.187C142.624 226.707 142.623 225.929 142.143 225.451L139.681 222.996C139.201 222.518 138.424 222.519 137.945 222.999C137.467 223.479 137.468 224.256 137.948 224.735L140.41 227.189Z" fill="#200849"/>
</g>
<path d="M202.801 224L207.895 211.22H210.235L215.347 224H213.079L211.873 220.832H206.185L204.979 224H202.801ZM206.905 218.96H211.153L209.029 213.434L206.905 218.96ZM221.408 224.27C220.736 224.27 220.118 224.15 219.554 223.91C218.99 223.658 218.498 223.316 218.078 222.884C217.658 222.44 217.328 221.918 217.088 221.318C216.86 220.718 216.746 220.064 216.746 219.356C216.746 218.648 216.866 217.988 217.106 217.376C217.346 216.764 217.676 216.23 218.096 215.774C218.516 215.318 219.008 214.964 219.572 214.712C220.148 214.448 220.772 214.316 221.444 214.316C222.092 214.316 222.686 214.436 223.226 214.676C223.766 214.904 224.228 215.234 224.612 215.666C225.008 216.086 225.29 216.584 225.458 217.16L223.496 217.628C223.292 217.172 223.004 216.818 222.632 216.566C222.272 216.314 221.864 216.188 221.408 216.188C220.928 216.188 220.496 216.326 220.112 216.602C219.728 216.878 219.422 217.256 219.194 217.736C218.978 218.204 218.87 218.738 218.87 219.338C218.87 219.926 218.978 220.454 219.194 220.922C219.41 221.378 219.704 221.738 220.076 222.002C220.46 222.266 220.904 222.398 221.408 222.398C221.888 222.398 222.326 222.278 222.722 222.038C223.118 221.786 223.412 221.432 223.604 220.976L225.548 221.426C225.38 222.002 225.092 222.506 224.684 222.938C224.276 223.358 223.79 223.688 223.226 223.928C222.662 224.156 222.056 224.27 221.408 224.27ZM232.057 224.27C231.385 224.27 230.767 224.15 230.203 223.91C229.639 223.658 229.147 223.316 228.727 222.884C228.307 222.44 227.977 221.918 227.737 221.318C227.509 220.718 227.395 220.064 227.395 219.356C227.395 218.648 227.515 217.988 227.755 217.376C227.995 216.764 228.325 216.23 228.745 215.774C229.165 215.318 229.657 214.964 230.221 214.712C230.797 214.448 231.421 214.316 232.093 214.316C232.741 214.316 233.335 214.436 233.875 214.676C234.415 214.904 234.877 215.234 235.261 215.666C235.657 216.086 235.939 216.584 236.107 217.16L234.145 217.628C233.941 217.172 233.653 216.818 233.281 216.566C232.921 216.314 232.513 216.188 232.057 216.188C231.577 216.188 231.145 216.326 230.761 216.602C230.377 216.878 230.071 217.256 229.843 217.736C229.627 218.204 229.519 218.738 229.519 219.338C229.519 219.926 229.627 220.454 229.843 220.922C230.059 221.378 230.353 221.738 230.725 222.002C231.109 222.266 231.553 222.398 232.057 222.398C232.537 222.398 232.975 222.278 233.371 222.038C233.767 221.786 234.061 221.432 234.253 220.976L236.197 221.426C236.029 222.002 235.741 222.506 235.333 222.938C234.925 223.358 234.439 223.688 233.875 223.928C233.311 224.156 232.705 224.27 232.057 224.27ZM242.833 224.27C242.149 224.27 241.513 224.15 240.925 223.91C240.349 223.658 239.845 223.31 239.413 222.866C238.981 222.41 238.645 221.882 238.405 221.282C238.165 220.67 238.045 220.004 238.045 219.284C238.045 218.576 238.165 217.922 238.405 217.322C238.645 216.71 238.981 216.182 239.413 215.738C239.857 215.282 240.373 214.934 240.961 214.694C241.561 214.442 242.209 214.316 242.905 214.316C243.589 214.316 244.219 214.442 244.795 214.694C245.383 214.934 245.893 215.282 246.325 215.738C246.757 216.182 247.093 216.704 247.333 217.304C247.573 217.904 247.693 218.564 247.693 219.284C247.693 220.004 247.573 220.67 247.333 221.282C247.093 221.882 246.751 222.41 246.307 222.866C245.875 223.31 245.359 223.658 244.759 223.91C244.171 224.15 243.529 224.27 242.833 224.27ZM242.869 222.398C243.385 222.398 243.847 222.266 244.255 222.002C244.663 221.726 244.981 221.354 245.209 220.886C245.449 220.418 245.569 219.884 245.569 219.284C245.569 218.684 245.449 218.156 245.209 217.7C244.981 217.232 244.663 216.866 244.255 216.602C243.847 216.326 243.385 216.188 242.869 216.188C242.353 216.188 241.891 216.326 241.483 216.602C241.075 216.866 240.751 217.232 240.511 217.7C240.283 218.156 240.169 218.684 240.169 219.284C240.169 219.884 240.283 220.418 240.511 220.886C240.751 221.354 241.075 221.726 241.483 222.002C241.891 222.266 242.353 222.398 242.869 222.398ZM254.285 224.27C253.445 224.27 252.713 224.09 252.089 223.73C251.477 223.37 250.997 222.86 250.649 222.2C250.313 221.528 250.145 220.742 250.145 219.842V214.586H252.215V219.878C252.215 220.658 252.401 221.276 252.773 221.732C253.145 222.176 253.655 222.398 254.303 222.398C254.951 222.398 255.461 222.176 255.833 221.732C256.205 221.276 256.391 220.658 256.391 219.878V214.586H258.461V219.842C258.461 220.73 258.287 221.51 257.939 222.182C257.603 222.842 257.123 223.358 256.499 223.73C255.875 224.09 255.137 224.27 254.285 224.27ZM261.322 224V214.586H263.212L263.284 215.882C263.56 215.402 263.944 215.024 264.436 214.748C264.94 214.46 265.516 214.316 266.164 214.316C266.872 214.316 267.484 214.484 268 214.82C268.528 215.156 268.936 215.63 269.224 216.242C269.512 216.854 269.656 217.574 269.656 218.402V224H267.586V218.636C267.586 217.868 267.412 217.268 267.064 216.836C266.728 216.404 266.254 216.188 265.642 216.188C265.21 216.188 264.82 216.29 264.472 216.494C264.136 216.698 263.872 216.974 263.68 217.322C263.488 217.67 263.392 218.072 263.392 218.528V224H261.322ZM276.141 224.27C275.193 224.27 274.449 224 273.909 223.46C273.369 222.908 273.099 222.122 273.099 221.102V216.26H271.443V214.586H273.099V211.4H275.169V214.586H277.905V216.26H275.169V220.886C275.169 221.39 275.271 221.78 275.475 222.056C275.691 222.32 276.003 222.452 276.411 222.452C276.627 222.452 276.861 222.422 277.113 222.362C277.365 222.29 277.599 222.194 277.815 222.074L278.283 223.64C278.007 223.832 277.683 223.982 277.311 224.09C276.951 224.21 276.561 224.27 276.141 224.27ZM284.235 224L289.329 211.22H291.669L296.781 224H294.513L293.307 220.832H287.619L286.413 224H284.235ZM288.339 218.96H292.587L290.463 213.434L288.339 218.96ZM298.875 227.564V214.586H300.765L300.855 216.098C301.191 215.546 301.635 215.114 302.187 214.802C302.739 214.478 303.357 214.316 304.041 214.316C304.665 214.316 305.241 214.442 305.769 214.694C306.309 214.946 306.777 215.294 307.173 215.738C307.569 216.182 307.875 216.704 308.091 217.304C308.319 217.904 308.433 218.552 308.433 219.248C308.433 219.956 308.319 220.616 308.091 221.228C307.863 221.84 307.545 222.374 307.137 222.83C306.729 223.286 306.249 223.64 305.697 223.892C305.157 224.144 304.569 224.27 303.933 224.27C303.309 224.27 302.739 224.138 302.223 223.874C301.707 223.61 301.281 223.238 300.945 222.758V227.564H298.875ZM303.609 222.398C304.125 222.398 304.587 222.266 304.995 222.002C305.403 221.726 305.721 221.354 305.949 220.886C306.189 220.418 306.309 219.884 306.309 219.284C306.309 218.684 306.189 218.156 305.949 217.7C305.721 217.232 305.403 216.866 304.995 216.602C304.587 216.326 304.125 216.188 303.609 216.188C303.093 216.188 302.631 216.326 302.223 216.602C301.815 216.866 301.491 217.232 301.251 217.7C301.023 218.156 300.909 218.684 300.909 219.284C300.909 219.884 301.023 220.418 301.251 220.886C301.491 221.354 301.815 221.726 302.223 222.002C302.631 222.266 303.093 222.398 303.609 222.398ZM310.879 227.564V214.586H312.769L312.859 216.098C313.195 215.546 313.639 215.114 314.191 214.802C314.743 214.478 315.361 214.316 316.045 214.316C316.669 214.316 317.245 214.442 317.773 214.694C318.313 214.946 318.781 215.294 319.177 215.738C319.573 216.182 319.879 216.704 320.095 217.304C320.323 217.904 320.437 218.552 320.437 219.248C320.437 219.956 320.323 220.616 320.095 221.228C319.867 221.84 319.549 222.374 319.141 222.83C318.733 223.286 318.253 223.64 317.701 223.892C317.161 224.144 316.573 224.27 315.937 224.27C315.313 224.27 314.743 224.138 314.227 223.874C313.711 223.61 313.285 223.238 312.949 222.758V227.564H310.879ZM315.613 222.398C316.129 222.398 316.591 222.266 316.999 222.002C317.407 221.726 317.725 221.354 317.953 220.886C318.193 220.418 318.313 219.884 318.313 219.284C318.313 218.684 318.193 218.156 317.953 217.7C317.725 217.232 317.407 216.866 316.999 216.602C316.591 216.326 316.129 216.188 315.613 216.188C315.097 216.188 314.635 216.326 314.227 216.602C313.819 216.866 313.495 217.232 313.255 217.7C313.027 218.156 312.913 218.684 312.913 219.284C312.913 219.884 313.027 220.418 313.255 220.886C313.495 221.354 313.819 221.726 314.227 222.002C314.635 222.266 315.097 222.398 315.613 222.398ZM322.882 224V214.586H324.772L324.862 216.134C325.102 215.606 325.432 215.198 325.852 214.91C326.284 214.61 326.788 214.46 327.364 214.46C327.544 214.46 327.718 214.472 327.886 214.496C328.054 214.52 328.204 214.562 328.336 214.622L328.102 216.638C327.97 216.59 327.832 216.56 327.688 216.548C327.544 216.524 327.4 216.512 327.256 216.512C326.536 216.512 325.972 216.752 325.564 217.232C325.156 217.712 324.952 218.378 324.952 219.23V224H322.882ZM334.583 224.27C333.899 224.27 333.263 224.15 332.675 223.91C332.099 223.658 331.595 223.31 331.163 222.866C330.731 222.41 330.395 221.882 330.155 221.282C329.915 220.67 329.795 220.004 329.795 219.284C329.795 218.576 329.915 217.922 330.155 217.322C330.395 216.71 330.731 216.182 331.163 215.738C331.607 215.282 332.123 214.934 332.711 214.694C333.311 214.442 333.959 214.316 334.655 214.316C335.339 214.316 335.969 214.442 336.545 214.694C337.133 214.934 337.643 215.282 338.075 215.738C338.507 216.182 338.843 216.704 339.083 217.304C339.323 217.904 339.443 218.564 339.443 219.284C339.443 220.004 339.323 220.67 339.083 221.282C338.843 221.882 338.501 222.41 338.057 222.866C337.625 223.31 337.109 223.658 336.509 223.91C335.921 224.15 335.279 224.27 334.583 224.27ZM334.619 222.398C335.135 222.398 335.597 222.266 336.005 222.002C336.413 221.726 336.731 221.354 336.959 220.886C337.199 220.418 337.319 219.884 337.319 219.284C337.319 218.684 337.199 218.156 336.959 217.7C336.731 217.232 336.413 216.866 336.005 216.602C335.597 216.326 335.135 216.188 334.619 216.188C334.103 216.188 333.641 216.326 333.233 216.602C332.825 216.866 332.501 217.232 332.261 217.7C332.033 218.156 331.919 218.684 331.919 219.284C331.919 219.884 332.033 220.418 332.261 220.886C332.501 221.354 332.825 221.726 333.233 222.002C333.641 222.266 334.103 222.398 334.619 222.398ZM344.35 224L340.75 214.586H343.018L345.43 221.84L347.86 214.586H350.056L346.456 224H344.35ZM354.634 224.27C354.154 224.27 353.71 224.198 353.302 224.054C352.906 223.91 352.558 223.706 352.258 223.442C351.958 223.178 351.724 222.866 351.556 222.506C351.388 222.146 351.304 221.75 351.304 221.318C351.304 220.718 351.46 220.196 351.772 219.752C352.096 219.296 352.546 218.942 353.122 218.69C353.698 218.438 354.37 218.312 355.138 218.312C355.558 218.312 355.96 218.354 356.344 218.438C356.728 218.51 357.094 218.618 357.442 218.762V218.168C357.442 217.748 357.364 217.382 357.208 217.07C357.052 216.746 356.83 216.494 356.542 216.314C356.254 216.134 355.906 216.044 355.498 216.044C355.066 216.044 354.676 216.158 354.328 216.386C353.98 216.614 353.722 216.932 353.554 217.34L351.646 216.908C351.79 216.38 352.048 215.924 352.42 215.54C352.804 215.156 353.26 214.856 353.788 214.64C354.328 214.424 354.91 214.316 355.534 214.316C356.122 214.316 356.656 214.412 357.136 214.604C357.628 214.796 358.048 215.066 358.396 215.414C358.744 215.762 359.014 216.176 359.206 216.656C359.398 217.136 359.494 217.67 359.494 218.258V224H357.604L357.532 222.758C357.28 223.214 356.902 223.58 356.398 223.856C355.894 224.132 355.306 224.27 354.634 224.27ZM353.392 221.228C353.392 221.492 353.464 221.732 353.608 221.948C353.752 222.152 353.95 222.314 354.202 222.434C354.466 222.554 354.772 222.614 355.12 222.614C355.564 222.614 355.96 222.518 356.308 222.326C356.656 222.134 356.932 221.876 357.136 221.552C357.34 221.216 357.442 220.838 357.442 220.418V220.202C357.13 220.07 356.806 219.968 356.47 219.896C356.146 219.812 355.81 219.77 355.462 219.77C354.838 219.77 354.334 219.902 353.95 220.166C353.578 220.43 353.392 220.784 353.392 221.228ZM362.351 224V210.608H364.421V224H362.351Z" fill="#323B4B"/>
<path d="M205.794 249V240.015L203.334 241.395L202.839 240.405L206.019 238.65H207.024V249H205.794ZM209.979 245.415V244.32H214.104V245.415H209.979ZM215.852 249V247.98C216.532 247.42 217.167 246.875 217.757 246.345C218.357 245.805 218.882 245.305 219.332 244.845C219.802 244.365 220.172 243.945 220.442 243.585C220.722 243.225 220.922 242.895 221.042 242.595C221.162 242.285 221.222 241.97 221.222 241.65C221.222 241.23 221.137 240.865 220.967 240.555C220.797 240.235 220.562 239.99 220.262 239.82C219.972 239.64 219.627 239.55 219.227 239.55C218.687 239.55 218.222 239.715 217.832 240.045C217.442 240.375 217.162 240.835 216.992 241.425L215.852 241.14C215.982 240.59 216.212 240.115 216.542 239.715C216.872 239.305 217.267 238.99 217.727 238.77C218.197 238.54 218.707 238.425 219.257 238.425C219.717 238.425 220.142 238.505 220.532 238.665C220.922 238.815 221.262 239.03 221.552 239.31C221.842 239.59 222.067 239.92 222.227 240.3C222.397 240.68 222.482 241.09 222.482 241.53C222.482 242.17 222.292 242.82 221.912 243.48C221.542 244.13 220.952 244.85 220.142 245.64C219.952 245.82 219.722 246.03 219.452 246.27C219.192 246.51 218.907 246.765 218.597 247.035C218.297 247.305 217.987 247.575 217.667 247.845H222.662V249H215.852ZM228.906 249V237.87H230.106V242.625C230.386 242.135 230.766 241.75 231.246 241.47C231.736 241.18 232.286 241.035 232.896 241.035C233.406 241.035 233.881 241.14 234.321 241.35C234.761 241.55 235.146 241.835 235.476 242.205C235.806 242.575 236.061 243.01 236.241 243.51C236.431 244 236.526 244.535 236.526 245.115C236.526 245.695 236.431 246.235 236.241 246.735C236.061 247.235 235.801 247.67 235.461 248.04C235.131 248.41 234.741 248.7 234.291 248.91C233.841 249.12 233.356 249.225 232.836 249.225C232.236 249.225 231.691 249.08 231.201 248.79C230.711 248.5 230.326 248.1 230.046 247.59L229.986 249H228.906ZM232.686 248.13C233.066 248.13 233.411 248.055 233.721 247.905C234.041 247.755 234.316 247.55 234.546 247.29C234.786 247.02 234.971 246.705 235.101 246.345C235.231 245.975 235.296 245.57 235.296 245.13C235.296 244.69 235.231 244.29 235.101 243.93C234.971 243.56 234.786 243.245 234.546 242.985C234.316 242.715 234.041 242.505 233.721 242.355C233.411 242.205 233.066 242.13 232.686 242.13C232.306 242.13 231.956 242.205 231.636 242.355C231.326 242.505 231.051 242.715 230.811 242.985C230.581 243.245 230.401 243.56 230.271 243.93C230.141 244.29 230.076 244.69 230.076 245.13C230.076 245.57 230.141 245.975 230.271 246.345C230.401 246.705 230.581 247.02 230.811 247.29C231.051 247.55 231.326 247.755 231.636 247.905C231.956 248.055 232.306 248.13 232.686 248.13ZM241.912 249.225C241.252 249.225 240.682 249.08 240.202 248.79C239.722 248.5 239.352 248.09 239.092 247.56C238.832 247.02 238.702 246.38 238.702 245.64V241.26H239.902V245.655C239.902 246.165 239.982 246.605 240.142 246.975C240.312 247.345 240.547 247.63 240.847 247.83C241.157 248.03 241.522 248.13 241.942 248.13C242.362 248.13 242.722 248.03 243.022 247.83C243.332 247.63 243.567 247.345 243.727 246.975C243.897 246.605 243.982 246.165 243.982 245.655V241.26H245.182V245.64C245.182 246.36 245.047 246.99 244.777 247.53C244.507 248.07 244.127 248.49 243.637 248.79C243.147 249.08 242.572 249.225 241.912 249.225ZM250.198 249.225C249.748 249.225 249.323 249.15 248.923 249C248.533 248.85 248.193 248.635 247.903 248.355C247.613 248.075 247.393 247.745 247.243 247.365L248.323 246.975C248.523 247.355 248.783 247.65 249.103 247.86C249.423 248.07 249.788 248.175 250.198 248.175C250.528 248.175 250.818 248.12 251.068 248.01C251.318 247.9 251.513 247.75 251.653 247.56C251.793 247.36 251.863 247.14 251.863 246.9C251.863 246.25 251.393 245.83 250.453 245.64L249.868 245.52C249.048 245.36 248.443 245.1 248.053 244.74C247.663 244.37 247.468 243.905 247.468 243.345C247.468 242.895 247.583 242.495 247.813 242.145C248.043 241.795 248.363 241.525 248.773 241.335C249.193 241.135 249.668 241.035 250.198 241.035C250.638 241.035 251.043 241.11 251.413 241.26C251.783 241.4 252.098 241.61 252.358 241.89C252.628 242.17 252.833 242.5 252.973 242.88L251.893 243.24C251.733 242.87 251.503 242.585 251.203 242.385C250.913 242.175 250.573 242.07 250.183 242.07C249.883 242.07 249.618 242.12 249.388 242.22C249.168 242.32 248.993 242.455 248.863 242.625C248.733 242.795 248.668 242.995 248.668 243.225C248.668 243.545 248.788 243.8 249.028 243.99C249.278 244.18 249.678 244.33 250.228 244.44L250.813 244.56C251.553 244.71 252.118 244.975 252.508 245.355C252.898 245.725 253.093 246.2 253.093 246.78C253.093 247.14 253.018 247.47 252.868 247.77C252.728 248.06 252.528 248.315 252.268 248.535C252.018 248.755 251.713 248.925 251.353 249.045C251.003 249.165 250.618 249.225 250.198 249.225ZM256.632 238.995C256.632 239.145 256.592 239.285 256.512 239.415C256.442 239.535 256.342 239.635 256.212 239.715C256.092 239.785 255.957 239.82 255.807 239.82C255.657 239.82 255.517 239.785 255.387 239.715C255.267 239.635 255.167 239.535 255.087 239.415C255.017 239.285 254.982 239.145 254.982 238.995C254.982 238.845 255.017 238.71 255.087 238.59C255.167 238.46 255.267 238.36 255.387 238.29C255.517 238.21 255.657 238.17 255.807 238.17C255.957 238.17 256.092 238.21 256.212 238.29C256.342 238.36 256.442 238.46 256.512 238.59C256.592 238.71 256.632 238.845 256.632 238.995ZM255.207 249V241.26H256.407V249H255.207ZM259.028 249V241.26H260.108L260.168 242.49C260.398 242.05 260.728 241.7 261.158 241.44C261.598 241.17 262.103 241.035 262.673 241.035C263.263 241.035 263.778 241.175 264.218 241.455C264.658 241.735 264.993 242.135 265.223 242.655C265.463 243.165 265.583 243.77 265.583 244.47V249H264.383V244.545C264.383 243.775 264.213 243.18 263.873 242.76C263.543 242.34 263.068 242.13 262.448 242.13C262.018 242.13 261.633 242.23 261.293 242.43C260.963 242.62 260.703 242.89 260.513 243.24C260.323 243.58 260.228 243.97 260.228 244.41V249H259.028ZM271.662 249.225C271.092 249.225 270.567 249.125 270.087 248.925C269.617 248.725 269.207 248.445 268.857 248.085C268.507 247.715 268.237 247.285 268.047 246.795C267.857 246.295 267.762 245.745 267.762 245.145C267.762 244.555 267.852 244.015 268.032 243.525C268.222 243.025 268.482 242.59 268.812 242.22C269.152 241.85 269.547 241.565 269.997 241.365C270.447 241.155 270.937 241.05 271.467 241.05C271.977 241.05 272.447 241.145 272.877 241.335C273.317 241.525 273.697 241.79 274.017 242.13C274.337 242.47 274.582 242.875 274.752 243.345C274.932 243.815 275.022 244.325 275.022 244.875V245.37H269.007C269.047 245.93 269.177 246.42 269.397 246.84C269.627 247.26 269.932 247.585 270.312 247.815C270.692 248.045 271.132 248.16 271.632 248.16C272.122 248.16 272.547 248.06 272.907 247.86C273.277 247.65 273.592 247.345 273.852 246.945L274.872 247.41C274.672 247.79 274.412 248.115 274.092 248.385C273.772 248.655 273.402 248.86 272.982 249C272.572 249.15 272.132 249.225 271.662 249.225ZM271.467 242.07C271.057 242.07 270.682 242.17 270.342 242.37C270.012 242.57 269.732 242.85 269.502 243.21C269.282 243.56 269.137 243.97 269.067 244.44H273.762C273.722 243.97 273.597 243.56 273.387 243.21C273.177 242.85 272.907 242.57 272.577 242.37C272.247 242.17 271.877 242.07 271.467 242.07ZM279.735 249.225C279.285 249.225 278.86 249.15 278.46 249C278.07 248.85 277.73 248.635 277.44 248.355C277.15 248.075 276.93 247.745 276.78 247.365L277.86 246.975C278.06 247.355 278.32 247.65 278.64 247.86C278.96 248.07 279.325 248.175 279.735 248.175C280.065 248.175 280.355 248.12 280.605 248.01C280.855 247.9 281.05 247.75 281.19 247.56C281.33 247.36 281.4 247.14 281.4 246.9C281.4 246.25 280.93 245.83 279.99 245.64L279.405 245.52C278.585 245.36 277.98 245.1 277.59 244.74C277.2 244.37 277.005 243.905 277.005 243.345C277.005 242.895 277.12 242.495 277.35 242.145C277.58 241.795 277.9 241.525 278.31 241.335C278.73 241.135 279.205 241.035 279.735 241.035C280.175 241.035 280.58 241.11 280.95 241.26C281.32 241.4 281.635 241.61 281.895 241.89C282.165 242.17 282.37 242.5 282.51 242.88L281.43 243.24C281.27 242.87 281.04 242.585 280.74 242.385C280.45 242.175 280.11 242.07 279.72 242.07C279.42 242.07 279.155 242.12 278.925 242.22C278.705 242.32 278.53 242.455 278.4 242.625C278.27 242.795 278.205 242.995 278.205 243.225C278.205 243.545 278.325 243.8 278.565 243.99C278.815 244.18 279.215 244.33 279.765 244.44L280.35 244.56C281.09 244.71 281.655 244.975 282.045 245.355C282.435 245.725 282.63 246.2 282.63 246.78C282.63 247.14 282.555 247.47 282.405 247.77C282.265 248.06 282.065 248.315 281.805 248.535C281.555 248.755 281.25 248.925 280.89 249.045C280.54 249.165 280.155 249.225 279.735 249.225ZM287.189 249.225C286.739 249.225 286.314 249.15 285.914 249C285.524 248.85 285.184 248.635 284.894 248.355C284.604 248.075 284.384 247.745 284.234 247.365L285.314 246.975C285.514 247.355 285.774 247.65 286.094 247.86C286.414 248.07 286.779 248.175 287.189 248.175C287.519 248.175 287.809 248.12 288.059 248.01C288.309 247.9 288.504 247.75 288.644 247.56C288.784 247.36 288.854 247.14 288.854 246.9C288.854 246.25 288.384 245.83 287.444 245.64L286.859 245.52C286.039 245.36 285.434 245.1 285.044 244.74C284.654 244.37 284.459 243.905 284.459 243.345C284.459 242.895 284.574 242.495 284.804 242.145C285.034 241.795 285.354 241.525 285.764 241.335C286.184 241.135 286.659 241.035 287.189 241.035C287.629 241.035 288.034 241.11 288.404 241.26C288.774 241.4 289.089 241.61 289.349 241.89C289.619 242.17 289.824 242.5 289.964 242.88L288.884 243.24C288.724 242.87 288.494 242.585 288.194 242.385C287.904 242.175 287.564 242.07 287.174 242.07C286.874 242.07 286.609 242.12 286.379 242.22C286.159 242.32 285.984 242.455 285.854 242.625C285.724 242.795 285.659 242.995 285.659 243.225C285.659 243.545 285.779 243.8 286.019 243.99C286.269 244.18 286.669 244.33 287.219 244.44L287.804 244.56C288.544 244.71 289.109 244.975 289.499 245.355C289.889 245.725 290.084 246.2 290.084 246.78C290.084 247.14 290.009 247.47 289.859 247.77C289.719 248.06 289.519 248.315 289.259 248.535C289.009 248.755 288.704 248.925 288.344 249.045C287.994 249.165 287.609 249.225 287.189 249.225ZM299.244 249.225C298.734 249.225 298.259 249.125 297.819 248.925C297.379 248.715 296.994 248.425 296.664 248.055C296.334 247.685 296.074 247.255 295.884 246.765C295.704 246.265 295.614 245.725 295.614 245.145C295.614 244.565 295.704 244.025 295.884 243.525C296.074 243.025 296.334 242.59 296.664 242.22C297.004 241.85 297.399 241.56 297.849 241.35C298.299 241.14 298.784 241.035 299.304 241.035C299.894 241.035 300.424 241.17 300.894 241.44C301.374 241.71 301.754 242.09 302.034 242.58V237.87H303.234V249H302.154L302.094 247.53C301.814 248.06 301.424 248.475 300.924 248.775C300.434 249.075 299.874 249.225 299.244 249.225ZM299.454 248.13C299.834 248.13 300.179 248.055 300.489 247.905C300.809 247.755 301.084 247.55 301.314 247.29C301.554 247.02 301.739 246.705 301.869 246.345C301.999 245.975 302.064 245.57 302.064 245.13C302.064 244.69 301.999 244.29 301.869 243.93C301.739 243.56 301.554 243.245 301.314 242.985C301.084 242.715 300.809 242.505 300.489 242.355C300.179 242.205 299.834 242.13 299.454 242.13C299.074 242.13 298.724 242.205 298.404 242.355C298.094 242.505 297.819 242.715 297.579 242.985C297.349 243.245 297.169 243.56 297.039 243.93C296.909 244.29 296.844 244.69 296.844 245.13C296.844 245.57 296.909 245.975 297.039 246.345C297.169 246.705 297.349 247.02 297.579 247.29C297.819 247.55 298.094 247.755 298.404 247.905C298.724 248.055 299.074 248.13 299.454 248.13ZM308.26 249.225C307.72 249.225 307.24 249.125 306.82 248.925C306.4 248.715 306.07 248.43 305.83 248.07C305.6 247.71 305.485 247.295 305.485 246.825C305.485 246.315 305.615 245.875 305.875 245.505C306.145 245.135 306.52 244.85 307 244.65C307.48 244.44 308.04 244.335 308.68 244.335C309.04 244.335 309.405 244.375 309.775 244.455C310.145 244.535 310.475 244.64 310.765 244.77V244.2C310.765 243.78 310.68 243.415 310.51 243.105C310.35 242.785 310.125 242.54 309.835 242.37C309.545 242.19 309.205 242.1 308.815 242.1C308.345 242.1 307.935 242.21 307.585 242.43C307.245 242.65 306.99 242.96 306.82 243.36L305.77 243C305.91 242.6 306.125 242.255 306.415 241.965C306.715 241.675 307.07 241.45 307.48 241.29C307.9 241.13 308.35 241.05 308.83 241.05C309.45 241.05 309.99 241.185 310.45 241.455C310.92 241.715 311.28 242.085 311.53 242.565C311.79 243.035 311.92 243.59 311.92 244.23V249H310.87L310.795 247.8C310.575 248.23 310.24 248.575 309.79 248.835C309.35 249.095 308.84 249.225 308.26 249.225ZM306.7 246.78C306.7 247.07 306.775 247.325 306.925 247.545C307.075 247.755 307.285 247.92 307.555 248.04C307.825 248.16 308.135 248.22 308.485 248.22C308.915 248.22 309.3 248.125 309.64 247.935C309.99 247.735 310.265 247.47 310.465 247.14C310.665 246.8 310.765 246.415 310.765 245.985V245.7C310.435 245.57 310.1 245.47 309.76 245.4C309.43 245.32 309.115 245.28 308.815 245.28C308.155 245.28 307.635 245.415 307.255 245.685C306.885 245.955 306.7 246.32 306.7 246.78ZM314.911 252.21C314.701 252.21 314.506 252.185 314.326 252.135C314.146 252.095 313.961 252.025 313.771 251.925L314.116 250.965C314.216 251.025 314.326 251.07 314.446 251.1C314.576 251.13 314.711 251.145 314.851 251.145C315.161 251.145 315.431 251.045 315.661 250.845C315.901 250.655 316.106 250.35 316.276 249.93L316.681 248.925L313.471 241.26H314.791L317.266 247.62L319.501 241.26H320.776L317.326 250.215C317.066 250.895 316.736 251.395 316.336 251.715C315.936 252.045 315.461 252.21 314.911 252.21ZM325.072 249.225C324.622 249.225 324.197 249.15 323.797 249C323.407 248.85 323.067 248.635 322.777 248.355C322.487 248.075 322.267 247.745 322.117 247.365L323.197 246.975C323.397 247.355 323.657 247.65 323.977 247.86C324.297 248.07 324.662 248.175 325.072 248.175C325.402 248.175 325.692 248.12 325.942 248.01C326.192 247.9 326.387 247.75 326.527 247.56C326.667 247.36 326.737 247.14 326.737 246.9C326.737 246.25 326.267 245.83 325.327 245.64L324.742 245.52C323.922 245.36 323.317 245.1 322.927 244.74C322.537 244.37 322.342 243.905 322.342 243.345C322.342 242.895 322.457 242.495 322.687 242.145C322.917 241.795 323.237 241.525 323.647 241.335C324.067 241.135 324.542 241.035 325.072 241.035C325.512 241.035 325.917 241.11 326.287 241.26C326.657 241.4 326.972 241.61 327.232 241.89C327.502 242.17 327.707 242.5 327.847 242.88L326.767 243.24C326.607 242.87 326.377 242.585 326.077 242.385C325.787 242.175 325.447 242.07 325.057 242.07C324.757 242.07 324.492 242.12 324.262 242.22C324.042 242.32 323.867 242.455 323.737 242.625C323.607 242.795 323.542 242.995 323.542 243.225C323.542 243.545 323.662 243.8 323.902 243.99C324.152 244.18 324.552 244.33 325.102 244.44L325.687 244.56C326.427 244.71 326.992 244.975 327.382 245.355C327.772 245.725 327.967 246.2 327.967 246.78C327.967 247.14 327.892 247.47 327.742 247.77C327.602 248.06 327.402 248.315 327.142 248.535C326.892 248.755 326.587 248.925 326.227 249.045C325.877 249.165 325.492 249.225 325.072 249.225Z" fill="#323B4B"/>
<g filter="url(#filter1_d_302_35214)">
<rect x="84" y="52" width="90" height="90" rx="45" fill="white"/>
<path d="M119.182 89.6364C119.182 90.3142 118.632 90.8636 117.954 90.8636C117.277 90.8636 116.727 90.3142 116.727 89.6364V87.1818C116.727 85.1484 118.375 83.5 120.409 83.5H137.591C139.624 83.5 141.273 85.1484 141.273 87.1818V106.818C141.273 108.852 139.624 110.5 137.591 110.5H120.409C118.375 110.5 116.727 108.852 116.727 106.818V94.5455C116.727 93.8677 117.277 93.3182 117.954 93.3182C118.632 93.3182 119.182 93.8677 119.182 94.5455V106.818C119.182 107.496 119.731 108.045 120.409 108.045H137.591C138.268 108.045 138.818 107.496 138.818 106.818V87.1818C138.818 86.504 138.268 85.9545 137.591 85.9545H120.409C119.731 85.9545 119.182 86.504 119.182 87.1818V89.6364Z" fill="#200849"/>
<path d="M125.678 88.7686C126.157 88.2894 126.934 88.2894 127.413 88.7686C127.892 89.2479 127.892 90.025 127.413 90.5043L124.959 92.9588C124.479 93.4381 123.702 93.4381 123.223 92.9588L121.996 91.7315C121.516 91.2523 121.516 90.4752 121.996 89.9959C122.475 89.5166 123.252 89.5166 123.731 89.9959L124.091 90.3554L125.678 88.7686Z" fill="#9B89EA"/>
<path d="M130.226 92.091C129.548 92.0902 128.999 91.54 129 90.8622C129.001 90.1844 129.551 89.6356 130.229 89.6365L135.115 89.6425C135.793 89.6434 136.342 90.1935 136.341 90.8713C136.34 91.5491 135.79 92.0979 135.112 92.0971L130.226 92.091Z" fill="#200849"/>
<path d="M130.226 98.2272C129.548 98.2264 128.999 97.6763 129 96.9985C129.001 96.3207 129.551 95.7719 130.229 95.7727L135.115 95.7788C135.793 95.7796 136.342 96.3298 136.341 97.0076C136.34 97.6854 135.79 98.2342 135.112 98.2333L130.226 98.2272Z" fill="#200849"/>
<path d="M125.678 94.9049C126.157 94.4256 126.934 94.4256 127.413 94.9049C127.892 95.3841 127.892 96.1612 127.413 96.6405L124.959 99.095C124.479 99.5743 123.702 99.5743 123.223 99.095L121.996 97.8678C121.516 97.3885 121.516 96.6114 121.996 96.1321C122.475 95.6529 123.252 95.6529 123.731 96.1321L124.091 96.4916L125.678 94.9049Z" fill="#9B89EA"/>
<path d="M130.226 104.364C129.548 104.363 128.999 103.813 129 103.135C129.001 102.457 129.551 101.908 130.229 101.909L135.115 101.915C135.793 101.916 136.342 102.466 136.341 103.144C136.34 103.822 135.79 104.371 135.112 104.37L130.226 104.364Z" fill="#200849"/>
<path d="M125.678 101.041C126.157 100.562 126.934 100.562 127.413 101.041C127.892 101.521 127.892 102.298 127.413 102.777L124.959 105.232C124.479 105.711 123.702 105.711 123.223 105.232L121.996 104.004C121.516 103.525 121.516 102.748 121.996 102.269C122.475 101.789 123.252 101.789 123.731 102.269L124.091 102.628L125.678 101.041Z" fill="#9B89EA"/>
</g>
<path d="M202.533 103.5L207.627 90.72H209.967L215.079 103.5H212.811L211.605 100.332H205.917L204.711 103.5H202.533ZM206.637 98.46H210.885L208.761 92.934L206.637 98.46ZM217.173 107.064V94.086H219.064L219.153 95.598C219.489 95.046 219.933 94.614 220.486 94.302C221.038 93.978 221.656 93.816 222.34 93.816C222.964 93.816 223.54 93.942 224.068 94.194C224.608 94.446 225.076 94.794 225.471 95.238C225.868 95.682 226.174 96.204 226.389 96.804C226.618 97.404 226.732 98.052 226.732 98.748C226.732 99.456 226.618 100.116 226.389 100.728C226.161 101.34 225.844 101.874 225.436 102.33C225.028 102.786 224.548 103.14 223.996 103.392C223.456 103.644 222.868 103.77 222.232 103.77C221.608 103.77 221.038 103.638 220.522 103.374C220.006 103.11 219.58 102.738 219.243 102.258V107.064H217.173ZM221.908 101.898C222.424 101.898 222.886 101.766 223.294 101.502C223.702 101.226 224.02 100.854 224.248 100.386C224.488 99.918 224.608 99.384 224.608 98.784C224.608 98.184 224.488 97.656 224.248 97.2C224.02 96.732 223.702 96.366 223.294 96.102C222.886 95.826 222.424 95.688 221.908 95.688C221.392 95.688 220.93 95.826 220.522 96.102C220.114 96.366 219.79 96.732 219.549 97.2C219.322 97.656 219.208 98.184 219.208 98.784C219.208 99.384 219.322 99.918 219.549 100.386C219.79 100.854 220.114 101.226 220.522 101.502C220.93 101.766 221.392 101.898 221.908 101.898ZM229.177 107.064V94.086H231.067L231.157 95.598C231.493 95.046 231.937 94.614 232.489 94.302C233.041 93.978 233.659 93.816 234.343 93.816C234.967 93.816 235.543 93.942 236.071 94.194C236.611 94.446 237.079 94.794 237.475 95.238C237.871 95.682 238.177 96.204 238.393 96.804C238.621 97.404 238.735 98.052 238.735 98.748C238.735 99.456 238.621 100.116 238.393 100.728C238.165 101.34 237.847 101.874 237.439 102.33C237.031 102.786 236.551 103.14 235.999 103.392C235.459 103.644 234.871 103.77 234.235 103.77C233.611 103.77 233.041 103.638 232.525 103.374C232.009 103.11 231.583 102.738 231.247 102.258V107.064H229.177ZM233.911 101.898C234.427 101.898 234.889 101.766 235.297 101.502C235.705 101.226 236.023 100.854 236.251 100.386C236.491 99.918 236.611 99.384 236.611 98.784C236.611 98.184 236.491 97.656 236.251 97.2C236.023 96.732 235.705 96.366 235.297 96.102C234.889 95.826 234.427 95.688 233.911 95.688C233.395 95.688 232.933 95.826 232.525 96.102C232.117 96.366 231.793 96.732 231.553 97.2C231.325 97.656 231.211 98.184 231.211 98.784C231.211 99.384 231.325 99.918 231.553 100.386C231.793 100.854 232.117 101.226 232.525 101.502C232.933 101.766 233.395 101.898 233.911 101.898ZM241.18 103.5V90.108H243.25V103.5H241.18ZM247.376 107.244C247.076 107.244 246.794 107.214 246.53 107.154C246.278 107.094 246.032 106.998 245.792 106.866L246.242 105.228C246.374 105.288 246.524 105.336 246.692 105.372C246.86 105.42 247.022 105.444 247.178 105.444C247.538 105.444 247.85 105.342 248.114 105.138C248.39 104.934 248.618 104.604 248.798 104.148L249.086 103.41L245.252 94.086H247.52L250.058 101.124L252.362 94.086H254.558L250.562 104.634C250.214 105.534 249.776 106.194 249.248 106.614C248.732 107.034 248.108 107.244 247.376 107.244Z" fill="#323B4B"/>
<g filter="url(#filter2_d_302_35214)">
<rect x="84" y="318" width="90" height="90" rx="45" fill="white"/>
<path d="M120.479 374.046C121.156 374.046 121.706 374.595 121.706 375.273C121.706 375.951 121.156 376.5 120.479 376.5H119.721C117.688 376.5 116.04 374.852 116.04 372.818C116.04 372.576 116.063 372.334 116.111 372.096L117.521 365.047C118.615 359.575 123.42 355.637 129 355.637C134.58 355.637 139.385 359.575 140.479 365.047L141.889 372.096C142.287 374.09 140.994 376.03 139 376.429C138.763 376.476 138.521 376.5 138.278 376.5H125.388C124.71 376.5 124.16 375.951 124.16 375.273C124.16 374.595 124.71 374.046 125.388 374.046H138.278C138.359 374.046 138.44 374.038 138.519 374.022C139.184 373.889 139.615 373.242 139.482 372.578L138.072 365.529C137.207 361.204 133.41 358.091 129 358.091C124.59 358.091 120.793 361.204 119.928 365.529L118.518 372.578C118.502 372.657 118.494 372.738 118.494 372.818C118.494 373.496 119.044 374.046 119.721 374.046H120.479Z" fill="#200849"/>
<path d="M132.624 364.227C133.302 364.227 133.851 363.678 133.851 363C133.851 362.322 133.302 361.773 132.624 361.773H126.562C125.207 361.773 124.108 362.872 124.108 364.227V365.455C124.108 366.81 125.207 367.909 126.562 367.909H131.454V369.136H125.318C124.64 369.136 124.091 369.686 124.091 370.364C124.091 371.042 124.64 371.591 125.318 371.591H131.454C132.81 371.591 133.909 370.492 133.909 369.136V367.909C133.909 366.554 132.81 365.455 131.454 365.455H126.562V364.227H132.624Z" fill="#9B89EA"/>
<path d="M130.227 371.58C130.227 372.258 129.678 372.807 129 372.807C128.322 372.807 127.772 372.258 127.772 371.58V370.364C127.772 369.686 128.322 369.136 129 369.136C129.678 369.136 130.227 369.686 130.227 370.364V371.58Z" fill="#9B89EA"/>
<path d="M130.227 363C130.227 363.678 129.678 364.227 129 364.227C128.322 364.227 127.772 363.678 127.772 363V361.773C127.772 361.095 128.322 360.546 129 360.546C129.678 360.546 130.227 361.095 130.227 361.773V363Z" fill="#9B89EA"/>
<path d="M133.013 352.735L131.542 356.41C131.291 357.039 131.597 357.754 132.226 358.005C132.855 358.257 133.57 357.951 133.821 357.322L136.276 351.185C136.664 350.215 135.738 349.234 134.747 349.566L131.561 350.632L129.546 349.631C129.201 349.459 128.794 349.46 128.449 349.633L126.461 350.632L123.251 349.565C122.26 349.236 121.337 350.216 121.724 351.185L124.179 357.322C124.431 357.951 125.145 358.257 125.774 358.005C126.403 357.754 126.71 357.039 126.458 356.41L124.985 352.728L126.17 353.122C126.479 353.224 126.816 353.2 127.108 353.054L129.003 352.102L130.923 353.056C131.214 353.201 131.551 353.224 131.859 353.121L133.013 352.735Z" fill="#200849"/>
</g>
<path d="M203.754 357V344.22H211.332V346.146H205.914V349.818H210.774V351.744H205.914V357H203.754ZM217.837 357.27C216.997 357.27 216.265 357.09 215.641 356.73C215.029 356.37 214.549 355.86 214.201 355.2C213.865 354.528 213.697 353.742 213.697 352.842V347.586H215.767V352.878C215.767 353.658 215.953 354.276 216.325 354.732C216.697 355.176 217.207 355.398 217.855 355.398C218.503 355.398 219.013 355.176 219.385 354.732C219.757 354.276 219.943 353.658 219.943 352.878V347.586H222.013V352.842C222.013 353.73 221.839 354.51 221.491 355.182C221.155 355.842 220.675 356.358 220.051 356.73C219.427 357.09 218.689 357.27 217.837 357.27ZM224.874 357V347.586H226.764L226.836 348.882C227.112 348.402 227.496 348.024 227.988 347.748C228.492 347.46 229.068 347.316 229.716 347.316C230.424 347.316 231.036 347.484 231.552 347.82C232.08 348.156 232.488 348.63 232.776 349.242C233.064 349.854 233.208 350.574 233.208 351.402V357H231.138V351.636C231.138 350.868 230.964 350.268 230.616 349.836C230.28 349.404 229.806 349.188 229.194 349.188C228.762 349.188 228.372 349.29 228.024 349.494C227.688 349.698 227.424 349.974 227.232 350.322C227.04 350.67 226.944 351.072 226.944 351.528V357H224.874ZM240.047 357.27C239.423 357.27 238.841 357.144 238.301 356.892C237.773 356.64 237.311 356.292 236.915 355.848C236.519 355.404 236.207 354.882 235.979 354.282C235.763 353.682 235.655 353.034 235.655 352.338C235.655 351.63 235.769 350.97 235.997 350.358C236.225 349.746 236.543 349.212 236.951 348.756C237.359 348.3 237.833 347.946 238.373 347.694C238.925 347.442 239.519 347.316 240.155 347.316C240.779 347.316 241.349 347.448 241.865 347.712C242.381 347.976 242.807 348.348 243.143 348.828V343.608H245.213V357H243.323L243.233 355.488C242.897 356.04 242.453 356.478 241.901 356.802C241.349 357.114 240.731 357.27 240.047 357.27ZM240.479 355.398C240.995 355.398 241.457 355.266 241.865 355.002C242.273 354.726 242.591 354.354 242.819 353.886C243.059 353.418 243.179 352.89 243.179 352.302C243.179 351.702 243.059 351.168 242.819 350.7C242.591 350.232 242.273 349.866 241.865 349.602C241.457 349.326 240.995 349.188 240.479 349.188C239.963 349.188 239.501 349.326 239.093 349.602C238.685 349.866 238.361 350.232 238.121 350.7C237.893 351.168 237.779 351.702 237.779 352.302C237.779 352.89 237.893 353.418 238.121 353.886C238.361 354.354 238.685 354.726 239.093 355.002C239.501 355.266 239.963 355.398 240.479 355.398ZM252.446 357.27C251.75 357.27 251.108 357.15 250.52 356.91C249.944 356.658 249.44 356.31 249.008 355.866C248.576 355.422 248.24 354.9 248 354.3C247.772 353.688 247.658 353.016 247.658 352.284C247.658 351.576 247.772 350.922 248 350.322C248.24 349.722 248.564 349.2 248.972 348.756C249.392 348.3 249.884 347.946 250.448 347.694C251.012 347.442 251.624 347.316 252.284 347.316C252.944 347.316 253.544 347.436 254.084 347.676C254.636 347.904 255.11 348.234 255.506 348.666C255.914 349.098 256.226 349.614 256.442 350.214C256.658 350.802 256.766 351.456 256.766 352.176V352.788H249.8C249.86 353.34 250.004 353.82 250.232 354.228C250.472 354.624 250.778 354.93 251.15 355.146C251.522 355.362 251.954 355.47 252.446 355.47C253.43 355.47 254.198 355.032 254.75 354.156L256.568 354.858C256.352 355.35 256.034 355.782 255.614 356.154C255.206 356.514 254.726 356.79 254.174 356.982C253.634 357.174 253.058 357.27 252.446 357.27ZM252.284 348.99C251.864 348.99 251.486 349.086 251.15 349.278C250.826 349.47 250.55 349.74 250.322 350.088C250.094 350.436 249.938 350.844 249.854 351.312H254.606C254.534 350.844 254.396 350.436 254.192 350.088C253.988 349.74 253.718 349.47 253.382 349.278C253.058 349.086 252.692 348.99 252.284 348.99ZM263.227 357.27C262.603 357.27 262.021 357.144 261.481 356.892C260.953 356.64 260.491 356.292 260.095 355.848C259.699 355.404 259.387 354.882 259.159 354.282C258.943 353.682 258.835 353.034 258.835 352.338C258.835 351.63 258.949 350.97 259.177 350.358C259.405 349.746 259.723 349.212 260.131 348.756C260.539 348.3 261.013 347.946 261.553 347.694C262.105 347.442 262.699 347.316 263.335 347.316C263.959 347.316 264.529 347.448 265.045 347.712C265.561 347.976 265.987 348.348 266.323 348.828V343.608H268.393V357H266.503L266.413 355.488C266.077 356.04 265.633 356.478 265.081 356.802C264.529 357.114 263.911 357.27 263.227 357.27ZM263.659 355.398C264.175 355.398 264.637 355.266 265.045 355.002C265.453 354.726 265.771 354.354 265.999 353.886C266.239 353.418 266.359 352.89 266.359 352.302C266.359 351.702 266.239 351.168 265.999 350.7C265.771 350.232 265.453 349.866 265.045 349.602C264.637 349.326 264.175 349.188 263.659 349.188C263.143 349.188 262.681 349.326 262.273 349.602C261.865 349.866 261.541 350.232 261.301 350.7C261.073 351.168 260.959 351.702 260.959 352.302C260.959 352.89 261.073 353.418 261.301 353.886C261.541 354.354 261.865 354.726 262.273 355.002C262.681 355.266 263.143 355.398 263.659 355.398Z" fill="#323B4B"/>
<path d="M206.352 382.225C205.792 382.225 205.272 382.13 204.792 381.94C204.312 381.74 203.897 381.46 203.547 381.1C203.197 380.74 202.942 380.315 202.782 379.825L203.967 379.45C204.167 379.97 204.472 380.375 204.882 380.665C205.302 380.955 205.787 381.1 206.337 381.1C206.767 381.1 207.152 381.015 207.492 380.845C207.842 380.665 208.112 380.425 208.302 380.125C208.502 379.815 208.602 379.47 208.602 379.09C208.602 378.6 208.432 378.2 208.092 377.89C207.762 377.57 207.282 377.34 206.652 377.2L205.992 377.05C205.012 376.83 204.277 376.47 203.787 375.97C203.297 375.47 203.052 374.855 203.052 374.125C203.052 373.685 203.132 373.285 203.292 372.925C203.462 372.555 203.697 372.235 203.997 371.965C204.297 371.695 204.642 371.49 205.032 371.35C205.432 371.2 205.862 371.125 206.322 371.125C206.862 371.125 207.357 371.225 207.807 371.425C208.267 371.615 208.662 371.89 208.992 372.25C209.322 372.61 209.562 373.03 209.712 373.51L208.527 373.885C208.327 373.355 208.037 372.95 207.657 372.67C207.277 372.39 206.832 372.25 206.322 372.25C205.932 372.25 205.587 372.33 205.287 372.49C204.987 372.64 204.752 372.85 204.582 373.12C204.412 373.38 204.327 373.685 204.327 374.035C204.327 374.495 204.492 374.875 204.822 375.175C205.152 375.465 205.677 375.695 206.397 375.865L207.057 376.015C208.007 376.235 208.712 376.605 209.172 377.125C209.642 377.645 209.877 378.275 209.877 379.015C209.877 379.485 209.787 379.92 209.607 380.32C209.437 380.71 209.192 381.05 208.872 381.34C208.562 381.62 208.192 381.84 207.762 382C207.332 382.15 206.862 382.225 206.352 382.225ZM214.508 382.225C213.968 382.225 213.488 382.125 213.068 381.925C212.648 381.715 212.318 381.43 212.078 381.07C211.848 380.71 211.733 380.295 211.733 379.825C211.733 379.315 211.863 378.875 212.123 378.505C212.393 378.135 212.768 377.85 213.248 377.65C213.728 377.44 214.288 377.335 214.928 377.335C215.288 377.335 215.653 377.375 216.023 377.455C216.393 377.535 216.723 377.64 217.013 377.77V377.2C217.013 376.78 216.928 376.415 216.758 376.105C216.598 375.785 216.373 375.54 216.083 375.37C215.793 375.19 215.453 375.1 215.063 375.1C214.593 375.1 214.183 375.21 213.833 375.43C213.493 375.65 213.238 375.96 213.068 376.36L212.018 376C212.158 375.6 212.373 375.255 212.663 374.965C212.963 374.675 213.318 374.45 213.728 374.29C214.148 374.13 214.598 374.05 215.078 374.05C215.698 374.05 216.238 374.185 216.698 374.455C217.168 374.715 217.528 375.085 217.778 375.565C218.038 376.035 218.168 376.59 218.168 377.23V382H217.118L217.043 380.8C216.823 381.23 216.488 381.575 216.038 381.835C215.598 382.095 215.088 382.225 214.508 382.225ZM212.948 379.78C212.948 380.07 213.023 380.325 213.173 380.545C213.323 380.755 213.533 380.92 213.803 381.04C214.073 381.16 214.383 381.22 214.733 381.22C215.163 381.22 215.548 381.125 215.888 380.935C216.238 380.735 216.513 380.47 216.713 380.14C216.913 379.8 217.013 379.415 217.013 378.985V378.7C216.683 378.57 216.348 378.47 216.008 378.4C215.678 378.32 215.363 378.28 215.063 378.28C214.403 378.28 213.883 378.415 213.503 378.685C213.133 378.955 212.948 379.32 212.948 379.78ZM220.734 382V374.26H221.814L221.874 375.445C222.094 375.015 222.414 374.675 222.834 374.425C223.254 374.165 223.734 374.035 224.274 374.035C224.854 374.035 225.359 374.185 225.789 374.485C226.219 374.785 226.539 375.205 226.749 375.745C226.879 375.405 227.074 375.11 227.334 374.86C227.594 374.6 227.899 374.4 228.249 374.26C228.609 374.11 228.994 374.035 229.404 374.035C229.984 374.035 230.484 374.175 230.904 374.455C231.334 374.725 231.659 375.11 231.879 375.61C232.109 376.11 232.224 376.71 232.224 377.41V382H231.024V377.485C231.024 376.725 230.869 376.145 230.559 375.745C230.249 375.335 229.799 375.13 229.209 375.13C228.799 375.13 228.434 375.23 228.114 375.43C227.794 375.62 227.539 375.885 227.349 376.225C227.169 376.555 227.079 376.93 227.079 377.35V382H225.879V377.485C225.879 376.725 225.719 376.145 225.399 375.745C225.079 375.335 224.624 375.13 224.034 375.13C223.634 375.13 223.274 375.23 222.954 375.43C222.634 375.62 222.384 375.885 222.204 376.225C222.024 376.555 221.934 376.93 221.934 377.35V382H220.734ZM238.304 382.225C237.734 382.225 237.209 382.125 236.729 381.925C236.259 381.725 235.849 381.445 235.499 381.085C235.149 380.715 234.879 380.285 234.689 379.795C234.499 379.295 234.404 378.745 234.404 378.145C234.404 377.555 234.494 377.015 234.674 376.525C234.864 376.025 235.124 375.59 235.454 375.22C235.794 374.85 236.189 374.565 236.639 374.365C237.089 374.155 237.579 374.05 238.109 374.05C238.619 374.05 239.089 374.145 239.519 374.335C239.959 374.525 240.339 374.79 240.659 375.13C240.979 375.47 241.224 375.875 241.394 376.345C241.574 376.815 241.664 377.325 241.664 377.875V378.37H235.649C235.689 378.93 235.819 379.42 236.039 379.84C236.269 380.26 236.574 380.585 236.954 380.815C237.334 381.045 237.774 381.16 238.274 381.16C238.764 381.16 239.189 381.06 239.549 380.86C239.919 380.65 240.234 380.345 240.494 379.945L241.514 380.41C241.314 380.79 241.054 381.115 240.734 381.385C240.414 381.655 240.044 381.86 239.624 382C239.214 382.15 238.774 382.225 238.304 382.225ZM238.109 375.07C237.699 375.07 237.324 375.17 236.984 375.37C236.654 375.57 236.374 375.85 236.144 376.21C235.924 376.56 235.779 376.97 235.709 377.44H240.404C240.364 376.97 240.239 376.56 240.029 376.21C239.819 375.85 239.549 375.57 239.219 375.37C238.889 375.17 238.519 375.07 238.109 375.07ZM250.949 382.225C250.439 382.225 249.964 382.125 249.524 381.925C249.084 381.715 248.699 381.425 248.369 381.055C248.039 380.685 247.779 380.255 247.589 379.765C247.409 379.265 247.319 378.725 247.319 378.145C247.319 377.565 247.409 377.025 247.589 376.525C247.779 376.025 248.039 375.59 248.369 375.22C248.709 374.85 249.104 374.56 249.554 374.35C250.004 374.14 250.489 374.035 251.009 374.035C251.599 374.035 252.129 374.17 252.599 374.44C253.079 374.71 253.459 375.09 253.739 375.58V370.87H254.939V382H253.859L253.799 380.53C253.519 381.06 253.129 381.475 252.629 381.775C252.139 382.075 251.579 382.225 250.949 382.225ZM251.159 381.13C251.539 381.13 251.884 381.055 252.194 380.905C252.514 380.755 252.789 380.55 253.019 380.29C253.259 380.02 253.444 379.705 253.574 379.345C253.704 378.975 253.769 378.57 253.769 378.13C253.769 377.69 253.704 377.29 253.574 376.93C253.444 376.56 253.259 376.245 253.019 375.985C252.789 375.715 252.514 375.505 252.194 375.355C251.884 375.205 251.539 375.13 251.159 375.13C250.779 375.13 250.429 375.205 250.109 375.355C249.799 375.505 249.524 375.715 249.284 375.985C249.054 376.245 248.874 376.56 248.744 376.93C248.614 377.29 248.549 377.69 248.549 378.13C248.549 378.57 248.614 378.975 248.744 379.345C248.874 379.705 249.054 380.02 249.284 380.29C249.524 380.55 249.799 380.755 250.109 380.905C250.429 381.055 250.779 381.13 251.159 381.13ZM259.965 382.225C259.425 382.225 258.945 382.125 258.525 381.925C258.105 381.715 257.775 381.43 257.535 381.07C257.305 380.71 257.19 380.295 257.19 379.825C257.19 379.315 257.32 378.875 257.58 378.505C257.85 378.135 258.225 377.85 258.705 377.65C259.185 377.44 259.745 377.335 260.385 377.335C260.745 377.335 261.11 377.375 261.48 377.455C261.85 377.535 262.18 377.64 262.47 377.77V377.2C262.47 376.78 262.385 376.415 262.215 376.105C262.055 375.785 261.83 375.54 261.54 375.37C261.25 375.19 260.91 375.1 260.52 375.1C260.05 375.1 259.64 375.21 259.29 375.43C258.95 375.65 258.695 375.96 258.525 376.36L257.475 376C257.615 375.6 257.83 375.255 258.12 374.965C258.42 374.675 258.775 374.45 259.185 374.29C259.605 374.13 260.055 374.05 260.535 374.05C261.155 374.05 261.695 374.185 262.155 374.455C262.625 374.715 262.985 375.085 263.235 375.565C263.495 376.035 263.625 376.59 263.625 377.23V382H262.575L262.5 380.8C262.28 381.23 261.945 381.575 261.495 381.835C261.055 382.095 260.545 382.225 259.965 382.225ZM258.405 379.78C258.405 380.07 258.48 380.325 258.63 380.545C258.78 380.755 258.99 380.92 259.26 381.04C259.53 381.16 259.84 381.22 260.19 381.22C260.62 381.22 261.005 381.125 261.345 380.935C261.695 380.735 261.97 380.47 262.17 380.14C262.37 379.8 262.47 379.415 262.47 378.985V378.7C262.14 378.57 261.805 378.47 261.465 378.4C261.135 378.32 260.82 378.28 260.52 378.28C259.86 378.28 259.34 378.415 258.96 378.685C258.59 378.955 258.405 379.32 258.405 379.78ZM266.616 385.21C266.406 385.21 266.211 385.185 266.031 385.135C265.851 385.095 265.666 385.025 265.476 384.925L265.821 383.965C265.921 384.025 266.031 384.07 266.151 384.1C266.281 384.13 266.416 384.145 266.556 384.145C266.866 384.145 267.136 384.045 267.366 383.845C267.606 383.655 267.811 383.35 267.981 382.93L268.386 381.925L265.176 374.26H266.496L268.971 380.62L271.206 374.26H272.481L269.031 383.215C268.771 383.895 268.441 384.395 268.041 384.715C267.641 385.045 267.166 385.21 266.616 385.21Z" fill="#323B4B"/>
<defs>
<filter id="filter0_d_302_35214" x="0" y="133" width="258" height="258" filterUnits="userSpaceOnUse" color-interpolation-filters="sRGB">
<feFlood flood-opacity="0" result="BackgroundImageFix"/>
<feColorMatrix in="SourceAlpha" type="matrix" values="0 0 0 0 0 0 0 0 0 0 0 0 0 0 0 0 0 0 127 0" result="hardAlpha"/>
<feOffset dy="32"/>
<feGaussianBlur stdDeviation="42"/>
<feColorMatrix type="matrix" values="0 0 0 0 0.087931 0 0 0 0 0.062069 0 0 0 0 0.237931 0 0 0 0.07 0"/>
<feBlend mode="normal" in2="BackgroundImageFix" result="effect1_dropShadow_302_35214"/>
<feBlend mode="normal" in="SourceGraphic" in2="effect1_dropShadow_302_35214" result="shape"/>
</filter>
<filter id="filter1_d_302_35214" x="0" y="0" width="258" height="258" filterUnits="userSpaceOnUse" color-interpolation-filters="sRGB">
<feFlood flood-opacity="0" result="BackgroundImageFix"/>
<feColorMatrix in="SourceAlpha" type="matrix" values="0 0 0 0 0 0 0 0 0 0 0 0 0 0 0 0 0 0 127 0" result="hardAlpha"/>
<feOffset dy="32"/>
<feGaussianBlur stdDeviation="42"/>
<feColorMatrix type="matrix" values="0 0 0 0 0.087931 0 0 0 0 0.062069 0 0 0 0 0.237931 0 0 0 0.07 0"/>
<feBlend mode="normal" in2="BackgroundImageFix" result="effect1_dropShadow_302_35214"/>
<feBlend mode="normal" in="SourceGraphic" in2="effect1_dropShadow_302_35214" result="shape"/>
</filter>
<filter id="filter2_d_302_35214" x="0" y="266" width="258" height="258" filterUnits="userSpaceOnUse" color-interpolation-filters="sRGB">
<feFlood flood-opacity="0" result="BackgroundImageFix"/>
<feColorMatrix in="SourceAlpha" type="matrix" values="0 0 0 0 0 0 0 0 0 0 0 0 0 0 0 0 0 0 127 0" result="hardAlpha"/>
<feOffset dy="32"/>
<feGaussianBlur stdDeviation="42"/>
<feColorMatrix type="matrix" values="0 0 0 0 0.087931 0 0 0 0 0.062069 0 0 0 0 0.237931 0 0 0 0.07 0"/>
<feBlend mode="normal" in2="BackgroundImageFix" result="effect1_dropShadow_302_35214"/>
<feBlend mode="normal" in="SourceGraphic" in2="effect1_dropShadow_302_35214" result="shape"/>
</filter>
</defs>
</svg>
