<svg width="112" height="112" viewBox="0 0 112 112" fill="none" xmlns="http://www.w3.org/2000/svg">
<path d="M56 112C86.928 112 112 86.928 112 56C112 25.0721 86.928 0 56 0C25.0721 0 0 25.0721 0 56C0 86.928 25.0721 112 56 112Z" fill="#FDE8E7"/>
<rect opacity="0.9" x="31" y="30.9998" width="50" height="50" rx="19" fill="url(#paint0_linear)"/>
<path d="M59.0662 52.9338L52.9346 59.0655" stroke="white" stroke-width="2" stroke-linecap="round" stroke-linejoin="round"/>
<path d="M59.0662 59.0655L52.9346 52.9338" stroke="white" stroke-width="2" stroke-linecap="round" stroke-linejoin="round"/>
<path fill-rule="evenodd" clip-rule="evenodd" d="M56 65.7498V65.7498C50.6147 65.7498 46.25 61.385 46.25 55.9998V55.9998C46.25 50.6145 50.6147 46.2498 56 46.2498V46.2498C61.3853 46.2498 65.75 50.6145 65.75 55.9998V55.9998C65.75 61.385 61.3853 65.7498 56 65.7498Z" stroke="white" stroke-width="2" stroke-linecap="round" stroke-linejoin="round"/>
<path d="M29.1769 34.0074C30.7551 34.0074 32.0345 32.728 32.0345 31.1498C32.0345 29.5716 30.7551 28.2922 29.1769 28.2922C27.5987 28.2922 26.3193 29.5716 26.3193 31.1498C26.3193 32.728 27.5987 34.0074 29.1769 34.0074Z" fill="url(#paint1_linear)" fill-opacity="0.6"/>
<path d="M67.5118 92.089C68.7145 92.089 69.6895 91.1139 69.6895 89.9112C69.6895 88.7084 68.7145 87.7334 67.5118 87.7334C66.309 87.7334 65.334 88.7084 65.334 89.9112C65.334 91.1139 66.309 92.089 67.5118 92.089Z" fill="url(#paint2_linear)" fill-opacity="0.6"/>
<path d="M78.8513 39.3701C80.549 39.3701 81.9252 37.9938 81.9252 36.2961C81.9252 34.5984 80.549 33.2222 78.8513 33.2222C77.1536 33.2222 75.7773 34.5984 75.7773 36.2961C75.7773 37.9938 77.1536 39.3701 78.8513 39.3701Z" fill="url(#paint3_linear)" fill-opacity="0.6"/>
<path d="M16.936 54.1753C17.9395 54.1753 18.7529 53.3619 18.7529 52.3584C18.7529 51.355 17.9395 50.5415 16.936 50.5415C15.9326 50.5415 15.1191 51.355 15.1191 52.3584C15.1191 53.3619 15.9326 54.1753 16.936 54.1753Z" fill="url(#paint4_linear)" fill-opacity="0.6"/>
<path d="M51.0449 21.1988C52.4315 21.1988 53.5555 20.0748 53.5555 18.6882C53.5555 17.3016 52.4315 16.1775 51.0449 16.1775C49.6582 16.1775 48.5342 17.3016 48.5342 18.6882C48.5342 20.0748 49.6582 21.1988 51.0449 21.1988Z" fill="url(#paint5_linear)" fill-opacity="0.6"/>
<path d="M95.6884 66.5672C97.185 66.5672 98.3983 65.354 98.3983 63.8574C98.3983 62.3607 97.185 61.1475 95.6884 61.1475C94.1918 61.1475 92.9785 62.3607 92.9785 63.8574C92.9785 65.354 94.1918 66.5672 95.6884 66.5672Z" fill="url(#paint6_linear)" fill-opacity="0.6"/>
<path d="M37 80.9998C39.7614 80.9998 42 78.7612 42 75.9998C42 73.2384 39.7614 70.9998 37 70.9998C34.2386 70.9998 32 73.2384 32 75.9998C32 78.7612 34.2386 80.9998 37 80.9998Z" fill="url(#paint7_linear)" fill-opacity="0.6"/>
<defs>
<linearGradient id="paint0_linear" x1="56" y1="30.9998" x2="56.3252" y2="77.1504" gradientUnits="userSpaceOnUse">
<stop stop-color="#FF2B2B"/>
<stop offset="1" stop-color="#FF9C9C"/>
</linearGradient>
<linearGradient id="paint1_linear" x1="29.1769" y1="28.2922" x2="29.1769" y2="34.0074" gradientUnits="userSpaceOnUse">
<stop stop-color="#FF9C9C"/>
<stop offset="1" stop-color="#FF9C9C" stop-opacity="0.07"/>
</linearGradient>
<linearGradient id="paint2_linear" x1="67.5118" y1="87.7334" x2="67.5118" y2="92.089" gradientUnits="userSpaceOnUse">
<stop stop-color="#FF9C9C"/>
<stop offset="1" stop-color="#FF9C9C" stop-opacity="0.07"/>
</linearGradient>
<linearGradient id="paint3_linear" x1="78.8513" y1="33.2222" x2="78.8513" y2="39.3701" gradientUnits="userSpaceOnUse">
<stop stop-color="#FF9C9C"/>
<stop offset="1" stop-color="#FF9C9C" stop-opacity="0.07"/>
</linearGradient>
<linearGradient id="paint4_linear" x1="16.936" y1="50.5415" x2="16.936" y2="54.1753" gradientUnits="userSpaceOnUse">
<stop stop-color="#FF9C9C"/>
<stop offset="1" stop-color="#FF9C9C" stop-opacity="0.07"/>
</linearGradient>
<linearGradient id="paint5_linear" x1="51.0449" y1="16.1775" x2="51.0449" y2="21.1988" gradientUnits="userSpaceOnUse">
<stop stop-color="#FF9C9C"/>
<stop offset="1" stop-color="#FF9C9C" stop-opacity="0.07"/>
</linearGradient>
<linearGradient id="paint6_linear" x1="95.6884" y1="61.1475" x2="95.6884" y2="66.5672" gradientUnits="userSpaceOnUse">
<stop stop-color="#FF9C9C"/>
<stop offset="1" stop-color="#FF9C9C" stop-opacity="0.07"/>
</linearGradient>
<linearGradient id="paint7_linear" x1="37" y1="70.9998" x2="37" y2="80.9998" gradientUnits="userSpaceOnUse">
<stop stop-color="#FF9C9C"/>
<stop offset="1" stop-color="#FF9C9C" stop-opacity="0.07"/>
</linearGradient>
</defs>
</svg>
