<svg width="294" height="233" viewBox="0 0 294 233" fill="none" xmlns="http://www.w3.org/2000/svg">
<path fill-rule="evenodd" clip-rule="evenodd" d="M66.4325 123.917L71.0589 130.531L73.3978 125.074L66.4325 123.917Z" fill="#653494"/>
<path fill-rule="evenodd" clip-rule="evenodd" d="M66.4325 123.917L71.0589 130.531L73.3978 125.074L66.4325 123.917Z" stroke="#200849" stroke-width="0.870769" stroke-linecap="round" stroke-linejoin="round"/>
<path fill-rule="evenodd" clip-rule="evenodd" d="M104.37 130.531L104.402 115.87L105.643 115.464C107.038 114.704 107.441 113.648 106.674 112.242L109.484 108.464L104.37 130.531ZM21.5857 184.562C24.4697 188.925 27.4947 187.153 28.9994 181.832C27.9092 181.862 21.5857 184.562 21.5857 184.562Z" fill="#653494"/>
<path fill-rule="evenodd" clip-rule="evenodd" d="M104.069 116.376C105.165 149.865 103.472 182.224 100.239 213.958C99.9184 217.39 96.2002 220.277 91.097 220.432C87.4058 201.296 83.5958 182.897 87.5904 168.951C85.4035 162.299 84.7779 157.348 84.7948 151.171C84.7948 151.171 81.7384 157.984 79.4692 163.042C77.9319 166.469 75.0675 169.122 71.5343 170.394C58.2716 175.168 25.7454 186.877 25.7454 186.877C29.7391 184.215 30.171 177.754 29.8428 170.483C43.2853 162.366 55.6767 157.03 64.9552 156.791C66.362 144.708 69.6121 133.618 73.406 125.076L90.1109 128.078L93.6976 117.369L104.069 116.376Z" fill="#E3E1FF"/>
<path fill-rule="evenodd" clip-rule="evenodd" d="M123.626 73.5889C124.858 74.2202 125.936 75.1101 126.788 76.1868C125.828 78.1447 125.231 79.2371 124.347 82.4132C122.502 79.7426 119.859 78.4486 116.694 77.715L117.497 73.7717C117.497 73.7717 117.518 73.9407 118.12 74.1605C120.573 75.0561 122.425 74.7805 123.626 73.5889Z" fill="#200849"/>
<path fill-rule="evenodd" clip-rule="evenodd" d="M145.817 81.5754C148.903 84.7437 156.13 84.0788 157.014 78.4902L157.579 104.356C157.579 104.356 154.581 104.039 153.152 104.356L145.817 81.5754Z" fill="#653494"/>
<path fill-rule="evenodd" clip-rule="evenodd" d="M146.578 186.492C140.199 185.525 135.302 180.011 135.302 173.363C135.302 166.034 141.253 160.083 148.582 160.083C155.911 160.083 161.862 166.034 161.862 173.363C161.862 176.875 160.496 180.07 158.267 182.445C157.194 182.047 156.049 181.837 154.882 181.837C152.3 181.837 149.824 182.863 147.998 184.689C147.451 185.237 146.975 185.843 146.578 186.492Z" fill="#F2F4FF"/>
<path fill-rule="evenodd" clip-rule="evenodd" d="M146.578 186.492C140.199 185.525 135.302 180.011 135.302 173.363C135.302 166.034 141.253 160.083 148.582 160.083C155.911 160.083 161.862 166.034 161.862 173.363C161.862 176.875 160.496 180.07 158.267 182.445C157.194 182.047 156.049 181.837 154.882 181.837C152.3 181.837 149.824 182.863 147.998 184.689C147.451 185.237 146.975 185.843 146.578 186.492Z" stroke="#653494" stroke-width="0.870769" stroke-linecap="round" stroke-linejoin="round"/>
<path fill-rule="evenodd" clip-rule="evenodd" d="M38.0398 200.101C39.1226 199.868 40.245 199.747 41.3957 199.747C50.1983 199.747 57.3456 206.893 57.3456 215.696C57.3456 218.248 56.7448 220.661 55.6772 222.801C47.7328 217.216 41.5272 209.323 38.0398 200.101ZM184.088 218.982C176.79 218.944 170.878 213.009 170.878 205.703C170.878 198.374 176.828 192.423 184.157 192.423C188.24 192.423 191.895 194.269 194.332 197.172C194.163 197.163 193.993 197.159 193.823 197.159C191.241 197.159 188.765 198.184 186.939 200.01C185.114 201.835 184.088 204.312 184.088 206.894V218.982Z" fill="#653494"/>
<path fill-rule="evenodd" clip-rule="evenodd" d="M135.412 232.054C137.994 232.054 140.47 231.028 142.296 229.202C144.121 227.377 145.147 224.9 145.147 222.318V191.573C145.147 188.991 146.173 186.515 147.998 184.689C149.824 182.863 152.3 181.837 154.882 181.837C157.464 181.837 159.94 182.863 161.766 184.689C163.592 186.515 164.617 188.991 164.617 191.573V222.318C164.617 224.9 165.643 227.377 167.469 229.202C169.295 231.028 171.771 232.054 174.353 232.054C176.935 232.054 132.83 232.054 135.412 232.054Z" fill="#E3E1FF"/>
<path fill-rule="evenodd" clip-rule="evenodd" d="M174.337 232.054C176.919 232.054 179.395 231.028 181.221 229.202C183.047 227.377 184.072 224.901 184.072 222.319V207.076C184.072 204.494 185.098 202.018 186.924 200.192C188.749 198.367 191.225 197.341 193.807 197.341H193.808C196.39 197.341 198.866 198.367 200.691 200.192C202.517 202.018 203.543 204.494 203.543 207.076V222.319C203.543 224.901 204.568 227.377 206.394 229.202C208.22 231.028 210.696 232.054 213.278 232.054C215.86 232.054 171.755 232.054 174.337 232.054Z" fill="#E3E1FF"/>
<path d="M191.633 181.726V108.339H161.15" stroke="#200849" stroke-width="0.870769" stroke-linecap="round" stroke-linejoin="round"/>
<path d="M152.773 108.339H125.677V221.912C125.677 224.493 126.702 226.97 128.528 228.795C130.354 230.621 132.83 231.647 135.412 231.647C137.994 231.647 140.47 230.621 142.296 228.795C144.121 226.97 145.147 224.493 145.147 221.912V191.573C145.147 188.991 146.173 186.515 147.998 184.69C149.824 182.864 152.3 181.838 154.882 181.838C157.464 181.838 159.94 182.864 161.766 184.69C163.592 186.515 164.617 188.991 164.617 191.573V221.912C164.617 224.493 165.643 226.97 167.469 228.795C169.295 230.621 171.771 231.647 174.353 231.647C176.935 231.647 179.411 230.621 181.236 228.795C183.062 226.97 184.088 224.493 184.088 221.912C184.088 216.806 184.088 212 184.088 206.894C184.088 204.312 185.113 201.836 186.939 200.01C188.765 198.184 191.241 197.159 193.823 197.159C196.405 197.159 198.881 198.184 200.707 200.01C202.533 201.836 203.558 204.312 203.558 206.894C203.558 211.592 203.994 217.214 203.994 221.912C203.994 224.493 205.019 226.97 206.845 228.795C208.671 230.621 211.147 231.647 213.729 231.647H213.729C216.311 231.647 269.925 231.647 269.925 231.647" stroke="#200849" stroke-width="0.870769" stroke-linecap="round" stroke-linejoin="round"/>
<path d="M194.046 197.159H249.837C252.419 197.159 254.475 198.184 256.301 200.01C258.126 201.836 259.152 204.312 259.152 206.894V221.911C259.152 224.493 260.178 226.969 262.003 228.795C263.829 230.621 266.305 231.646 268.887 231.646C270.029 231.646 281.239 231.646 293.388 231.646M154.591 181.842L210.49 181.726C213.072 181.726 215.128 182.752 216.954 184.578C218.779 186.403 219.805 188.879 219.805 191.461V196.465" stroke="#200849" stroke-width="0.870769" stroke-linecap="round" stroke-linejoin="round"/>
<path d="M293.388 231.646H3.8407" stroke="#200849" stroke-width="0.870769" stroke-linecap="round" stroke-linejoin="round"/>
<path d="M125.711 207.624C120.666 216.164 113.094 223.036 104.026 227.208M41.3957 199.747C50.1984 199.747 57.3456 206.893 57.3456 215.696C57.3456 224.499 50.1984 231.646 41.3957 231.646C32.5927 231.646 25.4454 224.499 25.4454 215.696C25.4454 206.893 32.5927 199.747 41.3957 199.747Z" stroke="#653494" stroke-width="0.870769" stroke-linecap="round" stroke-linejoin="round"/>
<path d="M104.402 138.704C113.127 142.809 120.442 149.424 125.413 157.616M97.0056 229.801C92.7697 231.003 88.3001 231.647 83.6815 231.647C56.7599 231.647 34.9032 209.79 34.9032 182.869C34.9032 161.029 49.2879 142.522 69.0918 136.313L97.0056 229.801Z" stroke="#653494" stroke-width="0.870769" stroke-linecap="round" stroke-linejoin="round"/>
<path fill-rule="evenodd" clip-rule="evenodd" d="M148.582 123.823C155.911 123.823 161.862 129.773 161.862 137.102C161.862 144.432 155.911 150.382 148.582 150.382C141.253 150.382 135.302 144.432 135.302 137.102C135.302 129.773 141.253 123.823 148.582 123.823Z" fill="#F2F4FF"/>
<path fill-rule="evenodd" clip-rule="evenodd" d="M148.582 123.823C155.911 123.823 161.862 129.773 161.862 137.102C161.862 144.432 155.911 150.382 148.582 150.382C141.253 150.382 135.302 144.432 135.302 137.102C135.302 129.773 141.253 123.823 148.582 123.823Z" stroke="#653494" stroke-width="0.870769" stroke-linecap="round" stroke-linejoin="round"/>
<path d="M142.119 128.266C142.818 145.854 152.602 145.549 153.65 135.906" stroke="#653494" stroke-width="0.870769" stroke-linecap="round" stroke-linejoin="round"/>
<path fill-rule="evenodd" clip-rule="evenodd" d="M139.111 127.798C141.521 125.345 144.875 123.823 148.582 123.823C151.876 123.823 154.891 125.025 157.213 127.013C157.288 127.271 157.353 127.533 157.406 127.8C157.979 130.552 158.475 133.309 158.893 136.072L153.618 136.17C153.63 136.082 142.742 128.266 142.742 128.266C142.874 131.581 142.705 134.26 143.363 136.361L137.813 136.464C138.193 133.71 138.594 130.951 139.042 128.184C139.062 128.055 139.086 127.926 139.111 127.798Z" fill="#653494"/>
<path d="M144.613 139.312V144.684" stroke="#653494" stroke-width="0.870769" stroke-linecap="round" stroke-linejoin="round"/>
<path d="M152.727 142.921C154.869 143.342 156.616 144.077 158.893 145.155M138.025 145.155C140.22 144.024 142.271 143.227 144.613 142.813L138.025 145.155Z" stroke="#653494" stroke-width="0.870769" stroke-linecap="round" stroke-linejoin="round"/>
<path d="M140.554 144.038C146.054 148.411 151.057 148.804 156.039 144.038" stroke="#653494" stroke-width="0.870769" stroke-linecap="round" stroke-linejoin="round"/>
<path fill-rule="evenodd" clip-rule="evenodd" d="M236.783 211.771C242.268 211.771 246.721 216.224 246.721 221.709C246.721 227.193 242.268 231.647 236.783 231.647C231.299 231.647 226.846 227.193 226.846 221.709C226.846 216.224 231.299 211.771 236.783 211.771Z" stroke="#200849" stroke-width="0.870769" stroke-linecap="round" stroke-linejoin="round"/>
<path d="M236.671 231.646C236.671 231.646 239.373 231.647 233.888 231.647C228.403 231.647 223.95 227.193 223.95 221.709C223.95 216.224 228.403 211.771 233.888 211.771H236.671" stroke="#200849" stroke-width="0.870769" stroke-linecap="round" stroke-linejoin="round"/>
<path d="M233.062 225.038C233.599 226.152 234.635 227.176 236.899 227.176C239.009 227.176 240.505 226.137 240.505 224.488C240.505 220.792 233.657 221.724 233.657 218.502C233.657 217.265 234.827 216.242 236.841 216.242C238.74 216.242 239.603 217.173 239.968 217.784" stroke="#200849" stroke-width="0.870769" stroke-linecap="round" stroke-linejoin="round"/>
<path d="M236.161 215.415V228.003" stroke="#200849" stroke-width="0.870769" stroke-linecap="round" stroke-linejoin="round"/>
<path d="M237.406 215.415V228.003" stroke="#200849" stroke-width="0.870769" stroke-linecap="round" stroke-linejoin="round"/>
<path d="M167.714 170.533H183.342" stroke="#653494" stroke-width="0.870769" stroke-linecap="round" stroke-linejoin="round"/>
<path d="M167.714 176.044H176.717" stroke="#653494" stroke-width="0.870769" stroke-linecap="round" stroke-linejoin="round"/>
<path d="M167.714 134.347H183.342" stroke="#653494" stroke-width="0.870769" stroke-linecap="round" stroke-linejoin="round"/>
<path d="M167.714 139.858H176.717" stroke="#653494" stroke-width="0.870769" stroke-linecap="round" stroke-linejoin="round"/>
<path fill-rule="evenodd" clip-rule="evenodd" d="M147.809 36.6849L139.798 29.6421L137.766 31.9527L145.144 39.416L147.809 36.6849Z" fill="#E3E1FF"/>
<path fill-rule="evenodd" clip-rule="evenodd" d="M131.783 117.497L123.772 110.454L121.741 112.765L129.118 120.228L131.783 117.497Z" fill="#E3E1FF"/>
<path fill-rule="evenodd" clip-rule="evenodd" d="M185.539 33.0685C185.501 28.6202 187.354 24.9987 190.679 22.0211L187.468 20.5269C184.171 23.4452 182.196 26.9244 181.656 31.0127L185.539 33.0685ZM189.515 127.806C190.76 123.535 193.578 120.6 197.619 118.707L194.974 116.351C190.976 118.196 188.083 120.959 186.389 124.719L189.515 127.806Z" fill="#E3E1FF"/>
<path fill-rule="evenodd" clip-rule="evenodd" d="M76.9926 94.4444C73.7381 94.1339 71.6052 92.3145 70.3461 89.3203L68.3746 91.8773C69.5985 94.844 71.5939 96.7541 74.4273 97.5164L76.9926 94.4444ZM110.032 172.507C110.766 169.321 112.849 167.445 115.983 166.589L113.706 164.3C110.605 165.124 108.45 166.852 107.322 169.562L110.032 172.507Z" fill="#F2F4FF"/>
<path fill-rule="evenodd" clip-rule="evenodd" d="M114.348 132.834C112.434 132.652 111.179 131.581 110.439 129.82L109.279 131.324C109.999 133.069 111.173 134.192 112.839 134.641L114.348 132.834Z" fill="#E3E1FF"/>
<path fill-rule="evenodd" clip-rule="evenodd" d="M125.166 20.3784C121.779 23.2633 117.813 24.1684 113.396 23.5319L114.313 26.9532C118.667 27.6067 122.602 26.8861 126.083 24.6748L125.166 20.3784Z" fill="#F2F4FF"/>
<path fill-rule="evenodd" clip-rule="evenodd" d="M211.782 115.208C210.671 117.681 208.723 119.215 206.124 120.018L207.522 121.663C210.091 120.885 212.07 119.46 213.409 117.334L211.782 115.208Z" fill="#E3E1FF"/>
<path fill-rule="evenodd" clip-rule="evenodd" d="M190.543 41.5928L184.213 46.1086L185.688 48.5585L193.365 43.461L190.543 41.5928Z" fill="#E3E1FF"/>
<path fill-rule="evenodd" clip-rule="evenodd" d="M91.674 46.655L100.574 46.7882L100.989 43.0922L91.9735 41.1865L91.674 46.655Z" fill="#E3E1FF"/>
<path fill-rule="evenodd" clip-rule="evenodd" d="M39.1012 74.8772L43.624 82.5434L45.6886 81.8433L42.6195 73.1548L39.1012 74.8772Z" fill="#E3E1FF"/>
<path fill-rule="evenodd" clip-rule="evenodd" d="M138.578 0.298828L138.754 9.19765L141.156 9.48414L141.876 0.40811L138.578 0.298828Z" fill="#E3E1FF"/>
<path fill-rule="evenodd" clip-rule="evenodd" d="M212.622 45.1135L215.206 53.6309L218.852 52.9004L217.922 43.7329L212.622 45.1135Z" fill="#F2F4FF"/>
<path d="M157.077 107.987C157.077 107.987 157.76 111.236 157.915 111.971C157.935 112.068 157.947 112.167 157.95 112.267C157.968 112.859 158.034 115.066 158.071 116.321C158.077 116.487 157.986 116.643 157.839 116.721C157.692 116.8 157.513 116.788 157.377 116.691C157.377 116.691 157.377 116.691 157.376 116.691C157.073 116.474 156.872 116.143 156.819 115.774C156.706 114.99 156.519 113.684 156.519 113.684L155.689 110.204M155.779 109.053C155.779 109.053 155.451 111.305 155.362 111.912C155.348 112.01 155.325 112.108 155.293 112.203C155.104 112.766 154.403 114.859 154.004 116.048C153.951 116.206 153.813 116.321 153.647 116.343C153.482 116.366 153.318 116.293 153.224 116.155C153.224 116.155 153.224 116.155 153.224 116.155C153.014 115.847 152.94 115.466 153.018 115.102C153.184 114.327 153.46 113.037 153.46 113.037L152.773 108.339L155.779 109.053ZM158.806 107.784C158.806 107.784 159.262 110.455 159.373 111.107C159.39 111.202 159.398 111.298 159.397 111.394C159.396 111.944 159.391 113.935 159.388 115.116C159.388 115.282 159.293 115.434 159.142 115.507C158.992 115.579 158.814 115.56 158.683 115.456C158.396 115.229 158.214 114.894 158.179 114.529C158.105 113.741 157.98 112.417 157.98 112.417L158.806 107.784Z" stroke="#200849" stroke-width="0.870769" stroke-linecap="round" stroke-linejoin="round"/>
<path d="M131.161 105.086C131.161 105.086 147.463 104.578 155.528 104.358C157.739 104.308 159.768 105.573 160.698 107.58H160.698L161.149 111.073L160.457 114.031L159.933 114.98" stroke="#200849" stroke-width="0.870769" stroke-linecap="round" stroke-linejoin="round"/>
<path d="M159.397 105.842C160.563 106.083 162.335 106.329 163.311 106.228C163.479 106.199 163.649 106.263 163.757 106.395C163.776 106.415 163.794 106.437 163.812 106.46C163.948 106.625 163.955 106.861 163.831 107.036C163.202 107.782 161.989 107.955 161.002 107.987" stroke="#200849" stroke-width="0.870769" stroke-linecap="round" stroke-linejoin="round"/>
<path d="M164.872 84.603L166.289 103.853" stroke="#200849" stroke-width="0.870769" stroke-linecap="round" stroke-linejoin="round"/>
<path d="M137.807 86.3613L135.284 104.356" stroke="#200849" stroke-width="0.870769" stroke-linecap="round" stroke-linejoin="round"/>
<path d="M153.152 104.356C153.152 104.356 148.2 88.9769 143.69 74.9676C142.559 71.4545 139.335 69.0363 135.645 68.9336C131.956 68.8308 128.602 71.0661 127.277 74.5113C122.556 86.8423 118.455 99.3313 115.215 112.041C114.678 114.203 115.269 116.49 116.785 118.121C118.301 119.753 120.538 120.51 122.733 120.134C124.439 119.848 125.677 119.635 125.677 119.635" stroke="#200849" stroke-width="0.870769" stroke-linecap="round" stroke-linejoin="round"/>
<path d="M125.677 121.663L119.274 135.892L125.677 140.495" stroke="#200849" stroke-width="0.870769" stroke-linecap="round" stroke-linejoin="round"/>
<path d="M164.836 75.0425L178.944 98.3839" stroke="#200849" stroke-width="0.870769" stroke-linecap="round" stroke-linejoin="round"/>
<path d="M156.966 71.5467C160.166 70.995 164.429 72.0687 164.671 74.0149C164.822 75.2339 164.529 77.9629 164.488 79.1167C164.484 79.2264 164.422 79.3261 164.324 79.3779C164.227 79.4293 164.11 79.425 164.017 79.3666C163.869 79.2735 163.741 79.1938 163.741 79.1938" stroke="#200849" stroke-width="0.870769" stroke-linecap="round" stroke-linejoin="round"/>
<path d="M161.694 75.2667C161.694 75.2667 161.97 77.8803 162.041 78.5547C162.052 78.6596 162.053 78.765 162.045 78.8699C161.995 79.4668 161.817 81.6146 161.716 82.8402C161.702 83.0043 161.597 83.1467 161.443 83.2077C161.29 83.2686 161.116 83.2373 160.993 83.1267C160.993 83.1267 160.993 83.1267 160.992 83.1262C160.721 82.8816 160.561 82.5367 160.55 82.171C160.527 81.3908 160.487 80.0886 160.487 80.0886L159.754 75.7151M163.379 74.564C163.379 74.564 163.53 77.2242 163.567 77.879C163.572 77.9752 163.57 78.0714 163.559 78.1668C163.496 78.708 163.272 80.6511 163.139 81.8057C163.12 81.9694 163.01 82.1079 162.854 82.1623C162.699 82.2167 162.526 82.178 162.409 82.0617C162.154 81.8083 162.013 81.4622 162.019 81.1026C162.034 80.3232 162.058 79.0097 162.058 79.0097L163.379 74.564Z" stroke="#200849" stroke-width="0.870769" stroke-linecap="round" stroke-linejoin="round"/>
<path d="M160.142 77.5336C160.142 77.5336 160.064 80.2361 160.022 81.6737C160.018 81.8387 159.92 81.9863 159.77 82.0556C159.62 82.1243 159.444 82.1026 159.316 81.999C159.316 81.9985 159.316 81.9985 159.315 81.9985C159.031 81.7686 158.853 81.4325 158.822 81.0681C158.757 80.2901 158.648 78.9918 158.648 78.9918L156.84 75.2666" stroke="#200849" stroke-width="0.870769" stroke-linecap="round" stroke-linejoin="round"/>
<path d="M156.656 68.042L157.579 104.356" stroke="#200849" stroke-width="0.870769" stroke-linecap="round" stroke-linejoin="round"/>
<path d="M153.904 67.2402C165.037 69.6705 163.905 60.3433 152.97 50.2275" stroke="#200849" stroke-width="0.870769" stroke-linecap="round" stroke-linejoin="round"/>
<path fill-rule="evenodd" clip-rule="evenodd" d="M143.059 70.8684C143.728 66.4283 148.935 65.4923 147.863 62.0227C147.863 62.0227 145.894 61.8838 144.395 61.7784C143.473 61.7136 142.773 60.9203 142.824 59.9968C142.824 59.9968 142.824 59.9964 142.824 59.996C142.85 59.5297 143.064 59.0943 143.418 58.7891C143.772 58.4843 144.234 58.3363 144.699 58.3794C146.48 58.5444 148.962 58.7738 148.962 58.7738L152.584 61.8895L151.423 56.1742C153.799 54.026 156.464 47.6241 155.981 44.3008C155.979 44.2999 155.068 44.8494 153.501 45.5299C148.011 47.9136 143.024 46.0663 139.101 50.5873C135.179 55.1079 135.098 61.8011 138.91 66.4157C140.256 68.0175 141.63 69.5148 143.059 70.8684Z" fill="#200849"/>
<path d="M124.26 62.0792L127.308 64.584C126.833 65.6097 125.882 66.0543 125.34 66.2119M156.785 54.1387L161.289 55.2972C161.332 56.751 160.569 57.8595 159.948 58.0432L156.785 54.1387Z" stroke="#200849" stroke-width="0.870769" stroke-linecap="round" stroke-linejoin="round"/>
<path d="M144.979 60.2144L147.64 60.3789" stroke="#200849" stroke-width="0.870769" stroke-linecap="round" stroke-linejoin="round"/>
<path d="M112.437 62.9414L114.532 63.7112" stroke="#200849" stroke-width="0.870769" stroke-linecap="round" stroke-linejoin="round"/>
<path d="M143.254 67.5898L143.379 74.1472" stroke="#200849" stroke-width="0.870769" stroke-linecap="round" stroke-linejoin="round"/>
<path d="M176.427 101.697L191.317 82.1025" stroke="#200849" stroke-width="0.870769" stroke-linecap="round" stroke-linejoin="round"/>
<path d="M191.317 82.1025C192.198 90.633 206.925 94.6151 198.711 84.8742" stroke="#200849" stroke-width="0.870769" stroke-linecap="round" stroke-linejoin="round"/>
<path d="M192.814 81.6161C192.814 81.6161 193.541 80.8341 194.231 80.0914C195.006 79.2576 196.1 78.7935 197.239 78.8157C199.566 78.861 203.338 78.9346 203.338 78.9346L205.556 79.4405C205.556 79.4405 206.573 79.3268 207.514 79.2219C207.794 79.1906 208.065 79.3255 208.209 79.5672C208.353 79.8084 208.342 80.1118 208.181 80.3422C208.135 80.4083 208.107 80.4493 208.104 80.4527C208.104 80.4527 208.104 80.4527 208.104 80.4527C208.076 80.4619 205.961 81.1655 205.961 81.1655C205.961 81.1655 204.74 81.1124 203.854 81.0745C203.271 81.0492 202.696 81.2186 202.219 81.5556C201.489 82.0715 200.403 82.8395 199.857 83.2253C199.635 83.3829 199.377 83.483 199.106 83.5165C198.598 83.5806 197.8 83.6803 197.8 83.6803M200.789 90.2855C198.906 95.4822 194.294 103.239 190.657 108.339L200.789 90.2855Z" stroke="#200849" stroke-width="0.870769" stroke-linecap="round" stroke-linejoin="round"/>
<path d="M202.311 78.9146C202.311 78.9146 207.939 78.9916 210.608 79.0278C210.878 79.0317 211.124 79.1841 211.247 79.4244C211.371 79.6643 211.352 79.9529 211.197 80.1746C211.197 80.175 211.197 80.175 211.197 80.1754C211.076 80.3496 210.877 80.4549 210.665 80.4584C209.872 80.4711 207.957 80.5015 207.957 80.5015" stroke="#200849" stroke-width="0.870769" stroke-linecap="round" stroke-linejoin="round"/>
<path d="M199.306 83.4878L196.255 88.9384" stroke="#200849" stroke-width="0.870769" stroke-linecap="round" stroke-linejoin="round"/>
<path fill-rule="evenodd" clip-rule="evenodd" d="M225.106 77.3844C225.106 77.0052 224.956 76.6416 224.687 76.3734C224.419 76.1052 224.056 75.9546 223.676 75.9546C216.271 75.9546 182.341 75.9546 174.936 75.9546C174.557 75.9546 174.193 76.1052 173.925 76.3734C173.657 76.6416 173.506 77.0052 173.506 77.3844C173.506 77.3848 173.506 77.3848 173.506 77.3853C173.506 77.7645 173.657 78.128 173.925 78.3962C174.193 78.6644 174.557 78.8151 174.936 78.8151C182.341 78.8151 216.271 78.8151 223.676 78.8151C224.056 78.8151 224.419 78.6644 224.687 78.3962C224.956 78.128 225.106 77.7645 225.106 77.3853C225.106 77.3848 225.106 77.3848 225.106 77.3844Z" stroke="#200849" stroke-width="0.870769" stroke-linecap="round" stroke-linejoin="round"/>
<path d="M202.589 75.9546C202.21 75.9546 201.847 76.1052 201.579 76.3734C201.31 76.6416 201.16 77.0052 201.16 77.3844C201.16 77.3848 201.16 77.3848 201.16 77.3853C201.16 77.7645 201.31 78.128 201.579 78.3962C201.847 78.6644 202.21 78.8151 202.589 78.8151" stroke="#200849" stroke-width="0.870769" stroke-linecap="round" stroke-linejoin="round"/>
<path d="M221.231 77.3848H222.661" stroke="#200849" stroke-width="0.870769" stroke-linecap="round" stroke-linejoin="round"/>
<path d="M217.865 77.3848H219.567" stroke="#200849" stroke-width="0.870769" stroke-linecap="round" stroke-linejoin="round"/>
<path fill-rule="evenodd" clip-rule="evenodd" d="M235.447 54.9436C235.667 54.5392 235.658 54.048 235.423 53.6518C235.188 53.2556 234.761 53.0127 234.3 53.0127C228.665 53.0127 213.812 53.0127 208.967 53.0127C208.011 53.0127 207.131 53.5356 206.673 54.3755C203.986 59.3101 194.919 75.9549 194.919 75.9549H224.002C224.002 75.9549 232.437 60.4704 235.447 54.9436Z" stroke="#200849" stroke-width="0.870769" stroke-linecap="round" stroke-linejoin="round"/>
<path fill-rule="evenodd" clip-rule="evenodd" d="M219.126 57.9839C223.619 57.9839 225.52 61.1374 223.369 65.0219C221.218 68.9059 215.823 72.0594 211.33 72.0594C206.837 72.0594 204.936 68.9059 207.087 65.0219C209.239 61.1374 214.633 57.9839 219.126 57.9839Z" fill="#653494"/>
<path fill-rule="evenodd" clip-rule="evenodd" d="M212.69 68.111L220.521 63.5334L219.694 62.1606L213.625 65.7086L212.589 63.9919L210.828 65.0216L212.69 68.111Z" fill="white"/>
<path d="M122.167 56.3799C127.543 68.4718 125.717 76.9344 118.12 74.1606" stroke="#200849" stroke-width="0.870769" stroke-linecap="round" stroke-linejoin="round"/>
<path d="M118.12 70.9624L104.402 130.533" stroke="#200849" stroke-width="0.870769" stroke-linecap="round" stroke-linejoin="round"/>
<path d="M106.817 112.279L100.239 110.355" stroke="#200849" stroke-width="0.870769" stroke-linecap="round" stroke-linejoin="round"/>
<path d="M113.703 58.4707L116.04 59.2143" stroke="#200849" stroke-width="0.870769" stroke-linecap="round" stroke-linejoin="round"/>
<path fill-rule="evenodd" clip-rule="evenodd" d="M107.491 76.1868C99.9636 72.8003 96.9185 60.347 105.135 52.9246C107.233 51.0289 111.219 50.0441 114.047 50.0314C116.874 50.0188 119.59 51.1343 121.593 53.1305C122.976 54.5098 123.992 55.523 123.992 55.523C121.711 60.7132 117.091 58.6573 116.024 62.2061C116.024 62.2061 114.255 61.6436 112.836 61.1921C112.373 61.0449 111.872 61.0876 111.441 61.3105C111.01 61.5335 110.685 61.9183 110.538 62.3807C110.538 62.3811 110.538 62.3816 110.538 62.382C110.232 63.3447 110.764 64.373 111.726 64.6795C113.176 65.1402 115.002 65.721 115.002 65.721C113.67 70.5333 109.603 68.9354 108.533 72.5979L107.491 76.1868Z" fill="#653494"/>
<path fill-rule="evenodd" clip-rule="evenodd" d="M106.2 75.4979C106.526 75.4269 106.864 75.5358 107.086 75.7831C107.308 76.0308 107.38 76.3783 107.275 76.6939C104.364 85.4099 90.1108 128.078 90.1108 128.078L100.416 76.7627C100.416 76.7627 104.033 75.972 106.2 75.4979Z" stroke="#200849" stroke-width="0.870769" stroke-linecap="round" stroke-linejoin="round"/>
<path d="M109.849 108.25L119.555 95.7627" stroke="#200849" stroke-width="0.870769" stroke-linecap="round" stroke-linejoin="round"/>
<path d="M104.069 116.376C105.165 149.865 103.472 182.224 100.239 213.958C99.9183 217.39 96.2001 220.277 91.097 220.432C87.4058 201.296 83.5957 182.897 87.5904 168.951C85.4034 162.299 84.7778 157.348 84.7948 151.171" stroke="#653494" stroke-width="0.870769" stroke-linecap="round" stroke-linejoin="round"/>
<path d="M100.239 116.743C100.239 116.743 85.3987 149.824 79.4692 163.042C77.9319 166.468 75.0675 169.122 71.5343 170.394C58.2716 175.168 25.7454 186.876 25.7454 186.876" stroke="#653494" stroke-width="0.870769" stroke-linecap="round" stroke-linejoin="round"/>
<path d="M29.8428 170.483C43.2853 162.365 55.6767 157.03 64.9552 156.791C66.362 144.707 69.3539 133.575 73.1474 125.033M21.5857 184.562C26.0305 191.286 30.8111 183.438 29.8428 170.483L21.5857 184.562Z" stroke="#653494" stroke-width="0.870769" stroke-linecap="round" stroke-linejoin="round"/>
<path d="M90.1109 128.078L66.4325 123.823L86.1023 99.4746" stroke="#200849" stroke-width="0.870769" stroke-linecap="round" stroke-linejoin="round"/>
<path d="M29.7017 170.652L22.1164 175.26C20.4136 174.486 18.6612 173.882 16.6519 174.169C15.9553 174.267 15.3318 174.653 14.9347 175.234C13.4409 177.39 9.40519 183.287 9.40519 183.287C9.40519 183.287 4.06963 188.379 1.80115 190.544C1.2409 191.078 1.2001 191.959 1.70863 192.543C1.70885 192.544 1.70911 192.544 1.70937 192.544C2.11937 193.015 2.79718 193.147 3.35382 192.864C5.74038 191.651 11.8124 188.563 11.8124 188.563L15.93 186.876L28.5675 181.706M100.416 77.0904L88.4573 59.8536L84.7944 39.8555L73.9829 46.4472C75.8429 63.0384 79.2707 77.9747 87.4389 87.9067L85.7035 107.346L100.416 77.0904Z" stroke="#200849" stroke-width="0.870769" stroke-linecap="round" stroke-linejoin="round"/>
<path d="M21.0137 174.793C17.8906 178.324 16.4565 181.855 19.5708 185.387" stroke="#200849" stroke-width="0.870769" stroke-linecap="round" stroke-linejoin="round"/>
<path fill-rule="evenodd" clip-rule="evenodd" d="M92.1689 224.496C91.963 224.321 91.7022 224.225 91.4322 224.225C91.4061 224.225 91.3791 224.225 91.3512 224.225C90.8741 224.225 90.4474 224.523 90.2828 224.971C90.1182 225.419 90.251 225.922 90.6146 226.231C93.2051 228.431 96.9999 231.654 96.9999 231.654H100.597C100.597 231.654 93.7415 225.831 92.1689 224.496Z" fill="#200849"/>
<path fill-rule="evenodd" clip-rule="evenodd" d="M92.1689 224.496C91.963 224.321 91.7022 224.225 91.4322 224.225C91.4061 224.225 91.3791 224.225 91.3512 224.225C90.8741 224.225 90.4474 224.523 90.2828 224.971C90.1182 225.419 90.251 225.922 90.6146 226.231C93.2051 228.431 96.9999 231.654 96.9999 231.654H100.597C100.597 231.654 93.7415 225.831 92.1689 224.496Z" stroke="#200849" stroke-width="0.870769" stroke-linecap="round" stroke-linejoin="round"/>
<path d="M90.2133 225.092C90.2328 223.789 91.3797 222.233 92.7851 221.506C92.7851 221.506 94.0163 222.341 95.2176 223.155C96.3339 223.911 97.8238 223.8 98.8156 222.887C99.3838 222.336 100.097 221.955 100.99 221.882C100.99 221.882 102.709 224.962 103.695 226.729C104.126 227.501 104.857 228.06 105.715 228.275C106.639 228.505 107.851 228.808 108.725 229.027C109.453 229.208 110.092 229.645 110.527 230.257C110.527 230.258 110.527 230.258 110.527 230.258C110.719 230.527 110.743 230.881 110.592 231.175C110.44 231.469 110.137 231.653 109.806 231.653C106.733 231.653 100.597 231.653 100.597 231.653" stroke="#200849" stroke-width="0.870769" stroke-linecap="round" stroke-linejoin="round"/>
<path d="M99.7629 215.712L99.8226 222.186" stroke="#200849" stroke-width="0.870769" stroke-linecap="round" stroke-linejoin="round"/>
<path d="M147.531 177.065C153.487 182.278 156.569 177.401 155.116 165.92" stroke="#653494" stroke-width="0.870769" stroke-linecap="round" stroke-linejoin="round"/>
<path fill-rule="evenodd" clip-rule="evenodd" d="M140.59 162.76C142.815 161.08 145.583 160.083 148.582 160.083C150.417 160.083 152.165 160.457 153.754 161.13C153.85 161.252 153.943 161.377 154.033 161.505C155.199 163.161 156.038 164.635 156.402 165.824C155.397 167.828 151.859 169.298 149.973 169.427L148.395 173.016L147.881 169.763C147.881 169.763 146.994 168.756 146.262 167.924C146.027 167.658 145.686 167.51 145.331 167.521C144.976 167.532 144.645 167.702 144.428 167.982C144.428 167.983 144.428 167.983 144.428 167.983C144.073 168.441 144.101 169.087 144.493 169.513C145.148 170.225 146.041 171.196 146.041 171.196C145.251 173.533 144.541 173.674 142.593 175.781C142.4 174.125 141.556 171.602 140.373 168.591C139.661 166.629 139.787 164.546 140.59 162.76Z" fill="#653494"/>
<path d="M155.465 170.158L157.314 173.059C156.731 173.963 155.875 174.264 155.478 174.073" stroke="#653494" stroke-width="0.870769" stroke-linecap="round" stroke-linejoin="round"/>
<path d="M145.385 168.834L146.479 169.97" stroke="#653494" stroke-width="0.870769" stroke-linecap="round" stroke-linejoin="round"/>
<path d="M142.593 172.535V180.038L139.117 182.687" stroke="#653494" stroke-width="0.870769" stroke-linecap="round" stroke-linejoin="round"/>
<path d="M150.848 179.037L150.907 182.686" stroke="#653494" stroke-width="0.870769" stroke-linecap="round" stroke-linejoin="round"/>
<path d="M142.593 180.038C143.776 182.517 145.51 184.221 148.395 184.314" stroke="#653494" stroke-width="0.870769" stroke-linecap="round" stroke-linejoin="round"/>
<path d="M77.7656 43.7622L78.4613 36.2884C77.2627 34.6356 76.5121 32.6329 76.3745 30.1507C75.3527 28.262 74.6482 26.2432 74.2755 24.0889C74.2372 23.8633 74.3596 23.6413 74.5707 23.5534C74.5707 23.5529 74.5712 23.5525 74.5712 23.5525C74.7127 23.4937 74.8724 23.4954 75.0122 23.5586C75.1524 23.6213 75.2599 23.7393 75.31 23.8842C75.8756 25.5021 76.6118 26.9933 77.5448 28.3395M149.844 104.52C148.417 104.983 147.707 106.223 147.531 108.127L149.844 104.52ZM84.3756 39.8528C84.3756 39.8528 84.3094 37.8549 84.2694 36.6401C84.2493 36.0411 84.3738 35.4459 84.632 34.9047C85.4314 33.2306 87.1708 29.5869 87.1708 29.5869C87.1708 29.5869 87.6053 26.605 87.8434 24.9692C87.8713 24.7777 87.7864 24.587 87.6253 24.4794C87.4642 24.3719 87.2557 24.3671 87.0898 24.4664C87.0327 24.4999 86.9822 24.5304 86.9413 24.5547C86.8703 24.597 86.8107 24.6566 86.768 24.7276C86.2194 25.6563 85.7902 26.8688 85.4754 28.3522C84.2741 28.5328 83.2044 29.5608 82.4882 30.5239L84.3756 39.8528Z" stroke="#200849" stroke-width="0.870769" stroke-linecap="round" stroke-linejoin="round"/>
<path d="M77.2292 27.8674C76.7707 25.7671 76.6667 23.0704 76.9083 20.8334C76.9344 20.6061 77.1134 20.4271 77.3402 20.401C77.3406 20.4006 77.3411 20.4006 77.3415 20.4006C77.4935 20.3832 77.6463 20.4293 77.763 20.5286C77.8801 20.6274 77.9506 20.7702 77.9584 20.923C78.0529 22.635 78.3468 24.2725 78.8697 25.8246" stroke="#200849" stroke-width="0.870769" stroke-linecap="round" stroke-linejoin="round"/>
<path fill-rule="evenodd" clip-rule="evenodd" d="M78.9372 27.0896C78.6934 24.9483 79.3508 20.79 79.8719 18.4315C79.9224 18.2094 80.1184 18.0514 80.3461 18.0484C80.3461 18.0479 80.3461 18.0479 80.3465 18.0479C80.5011 18.0462 80.6495 18.1084 80.7562 18.2203C80.8633 18.3318 80.919 18.4829 80.9099 18.6374C80.818 20.7299 80.9034 24.3201 81.2251 25.6223L78.9372 27.0896ZM81.2251 26.5092C81.4968 24.3732 83.1212 20.4948 84.1883 18.3266C84.2915 18.1202 84.5227 18.0113 84.7474 18.0632C84.7478 18.0632 84.7478 18.0632 84.7478 18.0632C84.898 18.0976 85.0273 18.1929 85.1044 18.3266C85.1819 18.4598 85.2011 18.6191 85.1566 18.7667C84.706 20.4234 84.275 22.9969 83.9746 24.6645C83.8731 25.1965 83.8583 25.742 83.9315 26.2793C83.9463 26.3895 83.9567 26.4656 83.9567 26.4656L84.2319 28.4828L81.2251 26.5092ZM77.8282 30.2239C79.1814 29.3165 80.6896 28.7427 82.4882 28.7932L77.8282 30.2239ZM107.131 77.1109C107.059 87.0781 109.491 90.0697 114.123 88.4157L109.674 107.641L106.873 112.347C106.873 112.347 107.023 112.552 107.176 112.76C107.373 113.028 107.421 113.377 107.305 113.689C107.26 113.81 107.209 113.946 107.156 114.089C106.775 115.113 105.835 115.822 104.747 115.908C101.27 116.181 93.9244 116.76 93.9244 116.76L107.131 77.1109Z" stroke="#200849" stroke-width="0.870769" stroke-linecap="round" stroke-linejoin="round"/>
</svg>
